<?xml version="1.0" encoding="UTF-8" standalone="no"?><svg xmlns="http://www.w3.org/2000/svg" xmlns:xlink="http://www.w3.org/1999/xlink" contentScriptType="application/ecmascript" contentStyleType="text/css" height="845px" preserveAspectRatio="none" style="width:657px;height:845px;" version="1.1" viewBox="0 0 657 845" width="657px" zoomAndPan="magnify"><defs><filter height="300%" id="fiwxiv7sn6cuk" width="300%" x="-1" y="-1"><feGaussianBlur result="blurOut" stdDeviation="2.0"/><feColorMatrix in="blurOut" result="blurOut2" type="matrix" values="0 0 0 0 0 0 0 0 0 0 0 0 0 0 0 0 0 0 .4 0"/><feOffset dx="4.0" dy="4.0" in="blurOut2" result="blurOut3"/><feBlend in="SourceGraphic" in2="blurOut3" mode="normal"/></filter></defs><g><text fill="#000000" font-family="sans-serif" font-size="18" lengthAdjust="spacingAndGlyphs" textLength="184" x="234" y="30.6855">On-Demand Recording</text><rect fill="#DDDDDD" height="797.1563" style="stroke:#A80036;stroke-width:1.0;" width="255" x="147" y="42.6406"/><text fill="#000000" font-family="sans-serif" font-size="13" font-weight="bold" lengthAdjust="spacingAndGlyphs" textLength="99" x="225" y="56.1357">Control Domain</text><line style="stroke:#A80036;stroke-width:1.0;stroke-dasharray:5.0,5.0;" x1="28" x2="28" y1="126.25" y2="752.1875"/><line style="stroke:#A80036;stroke-width:1.0;stroke-dasharray:5.0,5.0;" x1="101" x2="101" y1="126.25" y2="752.1875"/><line style="stroke:#A80036;stroke-width:1.0;stroke-dasharray:5.0,5.0;" x1="209" x2="209" y1="126.25" y2="752.1875"/><line style="stroke:#A80036;stroke-width:1.0;stroke-dasharray:5.0,5.0;" x1="337" x2="337" y1="126.25" y2="752.1875"/><line style="stroke:#A80036;stroke-width:1.0;stroke-dasharray:5.0,5.0;" x1="442" x2="442" y1="126.25" y2="752.1875"/><line style="stroke:#A80036;stroke-width:1.0;stroke-dasharray:5.0,5.0;" x1="512" x2="512" y1="388.5156" y2="752.1875"/><line style="stroke:#A80036;stroke-width:1.0;stroke-dasharray:5.0,5.0;" x1="602" x2="602" y1="126.25" y2="752.1875"/><text fill="#000000" font-family="sans-serif" font-size="14" lengthAdjust="spacingAndGlyphs" textLength="41" x="5" y="123.1738">Coach</text><ellipse cx="28.5" cy="51.6406" fill="#FEFECE" filter="url(#fiwxiv7sn6cuk)" rx="8" ry="8" style="stroke:#A80036;stroke-width:2.0;"/><path d="M28.5,59.6406 L28.5,86.6406 M15.5,67.6406 L41.5,67.6406 M28.5,86.6406 L15.5,101.6406 M28.5,86.6406 L41.5,101.6406 " fill="none" filter="url(#fiwxiv7sn6cuk)" style="stroke:#A80036;stroke-width:2.0;"/><text fill="#000000" font-family="sans-serif" font-size="14" lengthAdjust="spacingAndGlyphs" textLength="41" x="5" y="765.7207">Coach</text><ellipse cx="28.5" cy="778.7969" fill="#FEFECE" filter="url(#fiwxiv7sn6cuk)" rx="8" ry="8" style="stroke:#A80036;stroke-width:2.0;"/><path d="M28.5,786.7969 L28.5,813.7969 M15.5,794.7969 L41.5,794.7969 M28.5,813.7969 L15.5,828.7969 M28.5,813.7969 L41.5,828.7969 " fill="none" filter="url(#fiwxiv7sn6cuk)" style="stroke:#A80036;stroke-width:2.0;"/><text fill="#000000" font-family="sans-serif" font-size="14" lengthAdjust="spacingAndGlyphs" textLength="72" x="62" y="105.5645">Tagging UI/</text><text fill="#000000" font-family="sans-serif" font-size="14" lengthAdjust="spacingAndGlyphs" textLength="70" x="63" y="123.1738">Mobile App</text><path d="M80.5,63.0313 L80.5,87.0313 M80.5,75.0313 L97.5,75.0313 " fill="none" filter="url(#fiwxiv7sn6cuk)" style="stroke:#A80036;stroke-width:2.0;"/><ellipse cx="109.5" cy="75.0313" fill="#FEFECE" filter="url(#fiwxiv7sn6cuk)" rx="12" ry="12" style="stroke:#A80036;stroke-width:2.0;"/><text fill="#000000" font-family="sans-serif" font-size="14" lengthAdjust="spacingAndGlyphs" textLength="72" x="62" y="765.7207">Tagging UI/</text><text fill="#000000" font-family="sans-serif" font-size="14" lengthAdjust="spacingAndGlyphs" textLength="70" x="63" y="783.3301">Mobile App</text><path d="M80.5,790.4063 L80.5,814.4063 M80.5,802.4063 L97.5,802.4063 " fill="none" filter="url(#fiwxiv7sn6cuk)" style="stroke:#A80036;stroke-width:2.0;"/><ellipse cx="109.5" cy="802.4063" fill="#FEFECE" filter="url(#fiwxiv7sn6cuk)" rx="12" ry="12" style="stroke:#A80036;stroke-width:2.0;"/><text fill="#000000" font-family="sans-serif" font-size="14" lengthAdjust="spacingAndGlyphs" textLength="110" x="151" y="123.1738">Security Gateway</text><ellipse cx="209" cy="92.6406" fill="#FEFECE" filter="url(#fiwxiv7sn6cuk)" rx="12" ry="12" style="stroke:#A80036;stroke-width:2.0;"/><polygon fill="#A80036" points="205,80.6406,211,75.6406,209,80.6406,211,85.6406,205,80.6406" style="stroke:#A80036;stroke-width:1.0;"/><text fill="#000000" font-family="sans-serif" font-size="14" lengthAdjust="spacingAndGlyphs" textLength="110" x="151" y="765.7207">Security Gateway</text><ellipse cx="209" cy="784.7969" fill="#FEFECE" filter="url(#fiwxiv7sn6cuk)" rx="12" ry="12" style="stroke:#A80036;stroke-width:2.0;"/><polygon fill="#A80036" points="205,772.7969,211,767.7969,209,772.7969,211,777.7969,205,772.7969" style="stroke:#A80036;stroke-width:1.0;"/><text fill="#000000" font-family="sans-serif" font-size="14" lengthAdjust="spacingAndGlyphs" textLength="115" x="277" y="123.1738">Streaming Service</text><ellipse cx="337.5" cy="92.6406" fill="#FEFECE" filter="url(#fiwxiv7sn6cuk)" rx="12" ry="12" style="stroke:#A80036;stroke-width:2.0;"/><polygon fill="#A80036" points="333.5,80.6406,339.5,75.6406,337.5,80.6406,339.5,85.6406,333.5,80.6406" style="stroke:#A80036;stroke-width:1.0;"/><text fill="#000000" font-family="sans-serif" font-size="14" lengthAdjust="spacingAndGlyphs" textLength="115" x="277" y="765.7207">Streaming Service</text><ellipse cx="337.5" cy="784.7969" fill="#FEFECE" filter="url(#fiwxiv7sn6cuk)" rx="12" ry="12" style="stroke:#A80036;stroke-width:2.0;"/><polygon fill="#A80036" points="333.5,772.7969,339.5,767.7969,337.5,772.7969,339.5,777.7969,333.5,772.7969" style="stroke:#A80036;stroke-width:1.0;"/><text fill="#000000" font-family="sans-serif" font-size="14" lengthAdjust="spacingAndGlyphs" textLength="45" x="417" y="123.1738">IP Cam</text><path d="M422,80.6406 L422,104.6406 M422,92.6406 L439,92.6406 " fill="none" filter="url(#fiwxiv7sn6cuk)" style="stroke:#A80036;stroke-width:2.0;"/><ellipse cx="451" cy="92.6406" fill="#FEFECE" filter="url(#fiwxiv7sn6cuk)" rx="12" ry="12" style="stroke:#A80036;stroke-width:2.0;"/><text fill="#000000" font-family="sans-serif" font-size="14" lengthAdjust="spacingAndGlyphs" textLength="45" x="417" y="765.7207">IP Cam</text><path d="M422,772.7969 L422,796.7969 M422,784.7969 L439,784.7969 " fill="none" filter="url(#fiwxiv7sn6cuk)" style="stroke:#A80036;stroke-width:2.0;"/><ellipse cx="451" cy="784.7969" fill="#FEFECE" filter="url(#fiwxiv7sn6cuk)" rx="12" ry="12" style="stroke:#A80036;stroke-width:2.0;"/><text fill="#000000" font-family="sans-serif" font-size="14" lengthAdjust="spacingAndGlyphs" textLength="63" x="478" y="765.7207">Video File</text><ellipse cx="512.5" cy="784.7969" fill="#FEFECE" filter="url(#fiwxiv7sn6cuk)" rx="12" ry="12" style="stroke:#A80036;stroke-width:2.0;"/><line style="stroke:#A80036;stroke-width:2.0;" x1="500.5" x2="524.5" y1="798.7969" y2="798.7969"/><rect fill="#FEFECE" filter="url(#fiwxiv7sn6cuk)" height="49.2188" style="stroke:#A80036;stroke-width:1.5;" width="86" x="557" y="72.0313"/><text fill="#000000" font-family="sans-serif" font-size="14" lengthAdjust="spacingAndGlyphs" textLength="69" x="565.5" y="93.5645">Win10 App</text><text fill="#000000" font-family="sans-serif" font-size="14" lengthAdjust="spacingAndGlyphs" textLength="72" x="564" y="111.1738">(SportsPIP)</text><rect fill="#FEFECE" filter="url(#fiwxiv7sn6cuk)" height="49.2188" style="stroke:#A80036;stroke-width:1.5;" width="86" x="557" y="751.1875"/><text fill="#000000" font-family="sans-serif" font-size="14" lengthAdjust="spacingAndGlyphs" textLength="69" x="565.5" y="772.7207">Win10 App</text><text fill="#000000" font-family="sans-serif" font-size="14" lengthAdjust="spacingAndGlyphs" textLength="72" x="564" y="790.3301">(SportsPIP)</text><polygon fill="#A80036" points="197,154.6016,207,158.6016,197,162.6016,201,158.6016" style="stroke:#A80036;stroke-width:1.0;"/><line style="stroke:#A80036;stroke-width:1.0;" x1="101" x2="203" y1="158.6016" y2="158.6016"/><text fill="#000000" font-family="sans-serif" font-size="13" lengthAdjust="spacingAndGlyphs" textLength="84" x="108" y="153.7451">autheticate(ID)</text><polygon fill="#A80036" points="112,184.9531,102,188.9531,112,192.9531,108,188.9531" style="stroke:#A80036;stroke-width:1.0;"/><line style="stroke:#A80036;stroke-width:1.0;stroke-dasharray:2.0,2.0;" x1="106" x2="208" y1="188.9531" y2="188.9531"/><text fill="#000000" font-family="sans-serif" font-size="13" lengthAdjust="spacingAndGlyphs" textLength="73" x="118" y="184.0967">return(token)</text><polygon fill="#A80036" points="89,215.3047,99,219.3047,89,223.3047,93,219.3047" style="stroke:#A80036;stroke-width:1.0;"/><line style="stroke:#A80036;stroke-width:1.0;" x1="28.5" x2="95" y1="219.3047" y2="219.3047"/><text fill="#000000" font-family="sans-serif" font-size="13" lengthAdjust="spacingAndGlyphs" textLength="34" x="35.5" y="214.4482">start()</text><polygon fill="#A80036" points="325.5,245.6563,335.5,249.6563,325.5,253.6563,329.5,249.6563" style="stroke:#A80036;stroke-width:1.0;"/><line style="stroke:#A80036;stroke-width:1.0;" x1="101" x2="331.5" y1="249.6563" y2="249.6563"/><text fill="#000000" font-family="sans-serif" font-size="13" lengthAdjust="spacingAndGlyphs" textLength="76" x="108" y="244.7998">record(token)</text><polygon fill="#A80036" points="112,276.0078,102,280.0078,112,284.0078,108,280.0078" style="stroke:#A80036;stroke-width:1.0;"/><line style="stroke:#A80036;stroke-width:1.0;stroke-dasharray:2.0,2.0;" x1="106" x2="336.5" y1="280.0078" y2="280.0078"/><text fill="#000000" font-family="sans-serif" font-size="13" lengthAdjust="spacingAndGlyphs" textLength="88" x="118" y="275.1514">return(mediaID)</text><polygon fill="#A80036" points="430.5,306.3594,440.5,310.3594,430.5,314.3594,434.5,310.3594" style="stroke:#A80036;stroke-width:1.0;"/><line style="stroke:#A80036;stroke-width:1.0;" x1="337.5" x2="436.5" y1="310.3594" y2="310.3594"/><text fill="#000000" font-family="sans-serif" font-size="13" lengthAdjust="spacingAndGlyphs" textLength="78" x="344.5" y="305.5029">fetchStream()</text><polygon fill="#A80036" points="348.5,336.7109,338.5,340.7109,348.5,344.7109,344.5,340.7109" style="stroke:#A80036;stroke-width:1.0;"/><line style="stroke:#A80036;stroke-width:1.0;stroke-dasharray:2.0,2.0;" x1="342.5" x2="441.5" y1="340.7109" y2="340.7109"/><text fill="#000000" font-family="sans-serif" font-size="13" lengthAdjust="spacingAndGlyphs" textLength="81" x="354.5" y="335.8545">return(stream)</text><polygon fill="#A80036" points="466,367.0625,476,371.0625,466,375.0625,470,371.0625" style="stroke:#A80036;stroke-width:1.0;"/><line style="stroke:#A80036;stroke-width:1.0;" x1="337.5" x2="472" y1="371.0625" y2="371.0625"/><text fill="#000000" font-family="sans-serif" font-size="13" lengthAdjust="spacingAndGlyphs" textLength="50" x="344.5" y="366.2061">encode()</text><text fill="#000000" font-family="sans-serif" font-size="14" lengthAdjust="spacingAndGlyphs" textLength="63" x="478" y="395.2441">Video File</text><ellipse cx="512.5" cy="364.7109" fill="#FEFECE" filter="url(#fiwxiv7sn6cuk)" rx="12" ry="12" style="stroke:#A80036;stroke-width:2.0;"/><line style="stroke:#A80036;stroke-width:2.0;" x1="500.5" x2="524.5" y1="378.7109" y2="378.7109"/><polygon fill="#A80036" points="89,426.6719,99,430.6719,89,434.6719,93,430.6719" style="stroke:#A80036;stroke-width:1.0;"/><line style="stroke:#A80036;stroke-width:1.0;" x1="28.5" x2="95" y1="430.6719" y2="430.6719"/><text fill="#000000" font-family="sans-serif" font-size="13" lengthAdjust="spacingAndGlyphs" textLength="33" x="35.5" y="425.8154">stop()</text><polygon fill="#A80036" points="325.5,457.0234,335.5,461.0234,325.5,465.0234,329.5,461.0234" style="stroke:#A80036;stroke-width:1.0;"/><line style="stroke:#A80036;stroke-width:1.0;" x1="101" x2="331.5" y1="461.0234" y2="461.0234"/><text fill="#000000" font-family="sans-serif" font-size="13" lengthAdjust="spacingAndGlyphs" textLength="81" x="108" y="456.167">save(mediaID)</text><polygon fill="#A80036" points="500.5,487.375,510.5,491.375,500.5,495.375,504.5,491.375" style="stroke:#A80036;stroke-width:1.0;"/><line style="stroke:#A80036;stroke-width:1.0;" x1="337.5" x2="506.5" y1="491.375" y2="491.375"/><text fill="#000000" font-family="sans-serif" font-size="13" lengthAdjust="spacingAndGlyphs" textLength="97" x="344.5" y="486.5186">saveAs(mediaID)</text><polygon fill="#A80036" points="112,517.7266,102,521.7266,112,525.7266,108,521.7266" style="stroke:#A80036;stroke-width:1.0;"/><line style="stroke:#A80036;stroke-width:1.0;stroke-dasharray:2.0,2.0;" x1="106" x2="336.5" y1="521.7266" y2="521.7266"/><text fill="#000000" font-family="sans-serif" font-size="13" lengthAdjust="spacingAndGlyphs" textLength="175" x="118" y="516.8701">notify(saveComplete, mediaID)</text><polygon fill="#A80036" points="590,548.0781,600,552.0781,590,556.0781,594,552.0781" style="stroke:#A80036;stroke-width:1.0;"/><line style="stroke:#A80036;stroke-width:1.0;" x1="101" x2="596" y1="552.0781" y2="552.0781"/><text fill="#000000" font-family="sans-serif" font-size="13" lengthAdjust="spacingAndGlyphs" textLength="85" x="108" y="547.2217">getEditorURL()</text><polygon fill="#A80036" points="112,578.4297,102,582.4297,112,586.4297,108,582.4297" style="stroke:#A80036;stroke-width:1.0;"/><line style="stroke:#A80036;stroke-width:1.0;stroke-dasharray:2.0,2.0;" x1="106" x2="601" y1="582.4297" y2="582.4297"/><text fill="#000000" font-family="sans-serif" font-size="13" lengthAdjust="spacingAndGlyphs" textLength="98" x="118" y="577.5732">return(editorURL)</text><polygon fill="#A80036" points="325.5,608.7813,335.5,612.7813,325.5,616.7813,329.5,612.7813" style="stroke:#A80036;stroke-width:1.0;"/><line style="stroke:#A80036;stroke-width:1.0;" x1="101" x2="331.5" y1="612.7813" y2="612.7813"/><text fill="#000000" font-family="sans-serif" font-size="13" lengthAdjust="spacingAndGlyphs" textLength="141" x="108" y="607.9248">move(editorUrl, mediaID)</text><polygon fill="#A80036" points="590,639.1328,600,643.1328,590,647.1328,594,643.1328" style="stroke:#A80036;stroke-width:1.0;"/><line style="stroke:#A80036;stroke-width:1.0;stroke-dasharray:2.0,2.0;" x1="337.5" x2="596" y1="643.1328" y2="643.1328"/><text fill="#000000" font-family="sans-serif" font-size="13" lengthAdjust="spacingAndGlyphs" textLength="199" x="344.5" y="638.2764">return(thumbnail, metadata, token)</text><polygon fill="#A80036" points="590,669.4844,600,673.4844,590,677.4844,594,673.4844" style="stroke:#A80036;stroke-width:1.0;"/><line style="stroke:#A80036;stroke-width:1.0;" x1="28.5" x2="596" y1="673.4844" y2="673.4844"/><text fill="#000000" font-family="sans-serif" font-size="13" lengthAdjust="spacingAndGlyphs" textLength="90" x="35.5" y="668.6279">open(metadata)</text><polygon fill="#A80036" points="348.5,699.8359,338.5,703.8359,348.5,707.8359,344.5,703.8359" style="stroke:#A80036;stroke-width:1.0;"/><line style="stroke:#A80036;stroke-width:1.0;" x1="342.5" x2="601" y1="703.8359" y2="703.8359"/><text fill="#000000" font-family="sans-serif" font-size="13" lengthAdjust="spacingAndGlyphs" textLength="141" x="354.5" y="698.9795">fetchVideo(fileUrl, token)</text><polygon fill="#A80036" points="590,730.1875,600,734.1875,590,738.1875,594,734.1875" style="stroke:#A80036;stroke-width:1.0;"/><line style="stroke:#A80036;stroke-width:1.0;stroke-dasharray:2.0,2.0;" x1="337.5" x2="596" y1="734.1875" y2="734.1875"/><text fill="#000000" font-family="sans-serif" font-size="13" lengthAdjust="spacingAndGlyphs" textLength="99" x="344.5" y="729.3311">return(fileStream)</text><!--MD5=[eaf26ce38534ad31e65cdcc5f79b12a6]
@startuml On-Demand Recording
title On-Demand Recording
actor "Coach" as ch
boundary "Tagging UI/\nMobile App" as tag
box Control Domain
control "Security Gateway" as security
tag -> security: autheticate(ID)
security - -> tag: return(token)
control "Streaming Service" as strm
end box
boundary "IP Cam" as cam
ch -> tag: start()
tag -> strm: record(token)
strm - -> tag: return(mediaID)
strm -> cam: fetchStream()
cam - -> strm: return(stream)
create entity "Video File" as vid
strm -> vid: encode()
ch -> tag: stop()
tag -> strm: save(mediaID)
strm -> vid: saveAs(mediaID)
strm - -> tag: notify(saveComplete, mediaID)
tag -> "Win10 App\n(SportsPIP)" as win10: getEditorURL()
win10 - -> tag: return(editorURL)
tag -> strm: move(editorUrl, mediaID)
strm - -> win10: return(thumbnail, metadata, token)
ch -> win10: open(metadata)
win10 -> strm: fetchVideo(fileUrl, token)
strm - -> win10: return(fileStream) 

@enduml

PlantUML version 1.2020.22(Sun Dec 06 15:06:27 IST 2020)
(GPL source distribution)
Java Runtime: OpenJDK Runtime Environment
JVM: OpenJDK 64-Bit Server VM
Default Encoding: Cp1252
Language: en
Country: IN
--></g></svg>