<?xml version="1.0" encoding="UTF-8" standalone="no"?><svg xmlns="http://www.w3.org/2000/svg" xmlns:xlink="http://www.w3.org/1999/xlink" contentScriptType="application/ecmascript" contentStyleType="text/css" height="997px" preserveAspectRatio="none" style="width:1300px;height:997px;" version="1.1" viewBox="0 0 1300 997" width="1300px" zoomAndPan="magnify"><defs><filter height="300%" id="f1dx4erhfvzntg" width="300%" x="-1" y="-1"><feGaussianBlur result="blurOut" stdDeviation="2.0"/><feColorMatrix in="blurOut" result="blurOut2" type="matrix" values="0 0 0 0 0 0 0 0 0 0 0 0 0 0 0 0 0 0 .4 0"/><feOffset dx="4.0" dy="4.0" in="blurOut2" result="blurOut3"/><feBlend in="SourceGraphic" in2="blurOut3" mode="normal"/></filter></defs><g><text fill="#000000" font-family="sans-serif" font-size="18" lengthAdjust="spacingAndGlyphs" textLength="145" x="575.5" y="30.6855">Scheduled Events</text><rect fill="#FFFFFF" filter="url(#f1dx4erhfvzntg)" height="126.4063" style="stroke:#A80036;stroke-width:1.0;" width="10" x="732.5" y="382.5781"/><rect fill="#FFFFFF" filter="url(#f1dx4erhfvzntg)" height="185.9453" style="stroke:#000000;stroke-width:2.0;" width="1177" x="109" y="708.5156"/><rect fill="#FFFFFF" height="106.8906" style="stroke:none;stroke-width:1.0;" width="1177" x="109" y="787.5703"/><line style="stroke:#A80036;stroke-width:1.0;stroke-dasharray:5.0,5.0;" x1="57" x2="57" y1="126.25" y2="911.4609"/><line style="stroke:#A80036;stroke-width:1.0;stroke-dasharray:5.0,5.0;" x1="142" x2="142" y1="126.25" y2="911.4609"/><line style="stroke:#A80036;stroke-width:1.0;stroke-dasharray:5.0,5.0;" x1="235" x2="235" y1="126.25" y2="911.4609"/><line style="stroke:#A80036;stroke-width:1.0;stroke-dasharray:5.0,5.0;" x1="366" x2="366" y1="126.25" y2="911.4609"/><line style="stroke:#A80036;stroke-width:1.0;stroke-dasharray:5.0,5.0;" x1="502" x2="502" y1="126.25" y2="911.4609"/><line style="stroke:#A80036;stroke-width:1.0;stroke-dasharray:5.0,5.0;" x1="737.5" x2="737.5" y1="126.25" y2="911.4609"/><line style="stroke:#A80036;stroke-width:1.0;stroke-dasharray:5.0,5.0;" x1="970.5" x2="970.5" y1="239.0625" y2="911.4609"/><line style="stroke:#A80036;stroke-width:1.0;stroke-dasharray:5.0,5.0;" x1="1109" x2="1109" y1="595.9453" y2="911.4609"/><line style="stroke:#A80036;stroke-width:1.0;stroke-dasharray:5.0,5.0;" x1="1214" x2="1214" y1="657.8594" y2="911.4609"/><text fill="#000000" font-family="sans-serif" font-size="14" lengthAdjust="spacingAndGlyphs" textLength="98" x="5" y="123.1738">Recording Staff</text><ellipse cx="57" cy="51.6406" fill="#FEFECE" filter="url(#f1dx4erhfvzntg)" rx="8" ry="8" style="stroke:#A80036;stroke-width:2.0;"/><path d="M57,59.6406 L57,86.6406 M44,67.6406 L70,67.6406 M57,86.6406 L44,101.6406 M57,86.6406 L70,101.6406 " fill="none" filter="url(#f1dx4erhfvzntg)" style="stroke:#A80036;stroke-width:2.0;"/><text fill="#000000" font-family="sans-serif" font-size="14" lengthAdjust="spacingAndGlyphs" textLength="98" x="5" y="924.9941">Recording Staff</text><ellipse cx="57" cy="938.0703" fill="#FEFECE" filter="url(#f1dx4erhfvzntg)" rx="8" ry="8" style="stroke:#A80036;stroke-width:2.0;"/><path d="M57,946.0703 L57,973.0703 M44,954.0703 L70,954.0703 M57,973.0703 L44,988.0703 M57,973.0703 L70,988.0703 " fill="none" filter="url(#f1dx4erhfvzntg)" style="stroke:#A80036;stroke-width:2.0;"/><text fill="#000000" font-family="sans-serif" font-size="14" lengthAdjust="spacingAndGlyphs" textLength="41" x="119" y="123.1738">Coach</text><ellipse cx="142.5" cy="51.6406" fill="#FEFECE" filter="url(#f1dx4erhfvzntg)" rx="8" ry="8" style="stroke:#A80036;stroke-width:2.0;"/><path d="M142.5,59.6406 L142.5,86.6406 M129.5,67.6406 L155.5,67.6406 M142.5,86.6406 L129.5,101.6406 M142.5,86.6406 L155.5,101.6406 " fill="none" filter="url(#f1dx4erhfvzntg)" style="stroke:#A80036;stroke-width:2.0;"/><text fill="#000000" font-family="sans-serif" font-size="14" lengthAdjust="spacingAndGlyphs" textLength="41" x="119" y="924.9941">Coach</text><ellipse cx="142.5" cy="938.0703" fill="#FEFECE" filter="url(#f1dx4erhfvzntg)" rx="8" ry="8" style="stroke:#A80036;stroke-width:2.0;"/><path d="M142.5,946.0703 L142.5,973.0703 M129.5,954.0703 L155.5,954.0703 M142.5,973.0703 L129.5,988.0703 M142.5,973.0703 L155.5,988.0703 " fill="none" filter="url(#f1dx4erhfvzntg)" style="stroke:#A80036;stroke-width:2.0;"/><rect fill="#FEFECE" filter="url(#f1dx4erhfvzntg)" height="31.6094" style="stroke:#A80036;stroke-width:1.5;" width="111" x="180" y="85.6406"/><rect fill="#FEFECE" filter="url(#f1dx4erhfvzntg)" height="31.6094" style="stroke:#A80036;stroke-width:1.5;" width="111" x="176" y="89.6406"/><text fill="#000000" font-family="sans-serif" font-size="14" lengthAdjust="spacingAndGlyphs" textLength="97" x="183" y="111.1738">IP/Mobile Cams</text><rect fill="#FEFECE" filter="url(#f1dx4erhfvzntg)" height="31.6094" style="stroke:#A80036;stroke-width:1.5;" width="111" x="180" y="910.4609"/><rect fill="#FEFECE" filter="url(#f1dx4erhfvzntg)" height="31.6094" style="stroke:#A80036;stroke-width:1.5;" width="111" x="176" y="914.4609"/><text fill="#000000" font-family="sans-serif" font-size="14" lengthAdjust="spacingAndGlyphs" textLength="97" x="183" y="935.9941">IP/Mobile Cams</text><rect fill="#FEFECE" filter="url(#f1dx4erhfvzntg)" height="31.6094" style="stroke:#A80036;stroke-width:1.5;" width="115" x="309" y="85.6406"/><rect fill="#FEFECE" filter="url(#f1dx4erhfvzntg)" height="31.6094" style="stroke:#A80036;stroke-width:1.5;" width="115" x="305" y="89.6406"/><text fill="#000000" font-family="sans-serif" font-size="14" lengthAdjust="spacingAndGlyphs" textLength="101" x="312" y="111.1738">Consumer Apps</text><rect fill="#FEFECE" filter="url(#f1dx4erhfvzntg)" height="31.6094" style="stroke:#A80036;stroke-width:1.5;" width="115" x="309" y="910.4609"/><rect fill="#FEFECE" filter="url(#f1dx4erhfvzntg)" height="31.6094" style="stroke:#A80036;stroke-width:1.5;" width="115" x="305" y="914.4609"/><text fill="#000000" font-family="sans-serif" font-size="14" lengthAdjust="spacingAndGlyphs" textLength="101" x="312" y="935.9941">Consumer Apps</text><rect fill="#FEFECE" filter="url(#f1dx4erhfvzntg)" height="31.6094" style="stroke:#A80036;stroke-width:1.5;" width="124" x="438" y="89.6406"/><text fill="#000000" font-family="sans-serif" font-size="14" lengthAdjust="spacingAndGlyphs" textLength="110" x="445" y="111.1738">Security Gateway</text><rect fill="#FEFECE" filter="url(#f1dx4erhfvzntg)" height="31.6094" style="stroke:#A80036;stroke-width:1.5;" width="124" x="438" y="910.4609"/><text fill="#000000" font-family="sans-serif" font-size="14" lengthAdjust="spacingAndGlyphs" textLength="110" x="445" y="931.9941">Security Gateway</text><text fill="#000000" font-family="sans-serif" font-size="14" lengthAdjust="spacingAndGlyphs" textLength="98" x="685.5" y="105.5645">Control Domain</text><text fill="#000000" font-family="sans-serif" font-size="14" lengthAdjust="spacingAndGlyphs" textLength="78" x="695.5" y="123.1738">(win10/linux)</text><ellipse cx="737.5" cy="75.0313" fill="#FEFECE" filter="url(#f1dx4erhfvzntg)" rx="12" ry="12" style="stroke:#A80036;stroke-width:2.0;"/><polygon fill="#A80036" points="733.5,63.0313,739.5,58.0313,737.5,63.0313,739.5,68.0313,733.5,63.0313" style="stroke:#A80036;stroke-width:1.0;"/><text fill="#000000" font-family="sans-serif" font-size="14" lengthAdjust="spacingAndGlyphs" textLength="98" x="685.5" y="924.9941">Control Domain</text><text fill="#000000" font-family="sans-serif" font-size="14" lengthAdjust="spacingAndGlyphs" textLength="78" x="695.5" y="942.6035">(win10/linux)</text><ellipse cx="737.5" cy="961.6797" fill="#FEFECE" filter="url(#f1dx4erhfvzntg)" rx="12" ry="12" style="stroke:#A80036;stroke-width:2.0;"/><polygon fill="#A80036" points="733.5,949.6797,739.5,944.6797,737.5,949.6797,739.5,954.6797,733.5,949.6797" style="stroke:#A80036;stroke-width:1.0;"/><rect fill="#FEFECE" filter="url(#f1dx4erhfvzntg)" height="49.2188" style="stroke:#A80036;stroke-width:1.5;" width="129" x="904.5" y="910.4609"/><text fill="#000000" font-family="sans-serif" font-size="14" lengthAdjust="spacingAndGlyphs" textLength="115" x="911.5" y="931.9941">Streaming Service</text><text fill="#000000" font-family="sans-serif" font-size="14" lengthAdjust="spacingAndGlyphs" textLength="62" x="938" y="949.6035">(encoder)</text><text fill="#000000" font-family="sans-serif" font-size="14" lengthAdjust="spacingAndGlyphs" textLength="38" x="1087.5" y="924.9941">Media</text><text fill="#000000" font-family="sans-serif" font-size="14" lengthAdjust="spacingAndGlyphs" textLength="61" x="1076" y="942.6035">(mediaID)</text><ellipse cx="1109.5" cy="961.6797" fill="#FEFECE" filter="url(#f1dx4erhfvzntg)" rx="12" ry="12" style="stroke:#A80036;stroke-width:2.0;"/><line style="stroke:#A80036;stroke-width:2.0;" x1="1097.5" x2="1121.5" y1="975.6797" y2="975.6797"/><rect fill="#FEFECE" filter="url(#f1dx4erhfvzntg)" height="31.6094" style="stroke:#A80036;stroke-width:1.5;" width="119" x="1153" y="910.4609"/><text fill="#000000" font-family="sans-serif" font-size="14" lengthAdjust="spacingAndGlyphs" textLength="105" x="1160" y="931.9941">Transfer Service</text><rect fill="#FFFFFF" filter="url(#f1dx4erhfvzntg)" height="126.4063" style="stroke:#A80036;stroke-width:1.0;" width="10" x="732.5" y="382.5781"/><polygon fill="#A80036" points="490,154.6016,500,158.6016,490,162.6016,494,158.6016" style="stroke:#A80036;stroke-width:1.0;"/><line style="stroke:#A80036;stroke-width:1.0;" x1="366.5" x2="496" y1="158.6016" y2="158.6016"/><text fill="#000000" font-family="sans-serif" font-size="13" lengthAdjust="spacingAndGlyphs" textLength="91" x="373.5" y="153.7451">authenticate(ID)</text><polygon fill="#A80036" points="377.5,184.9531,367.5,188.9531,377.5,192.9531,373.5,188.9531" style="stroke:#A80036;stroke-width:1.0;"/><line style="stroke:#A80036;stroke-width:1.0;stroke-dasharray:2.0,2.0;" x1="371.5" x2="501" y1="188.9531" y2="188.9531"/><text fill="#000000" font-family="sans-serif" font-size="13" lengthAdjust="spacingAndGlyphs" textLength="73" x="383.5" y="184.0967">return(token)</text><polygon fill="#A80036" points="892.5,215.3047,902.5,219.3047,892.5,223.3047,896.5,219.3047" style="stroke:#A80036;stroke-width:1.0;"/><line style="stroke:#A80036;stroke-width:1.0;" x1="737.5" x2="898.5" y1="219.3047" y2="219.3047"/><text fill="#000000" font-family="sans-serif" font-size="13" lengthAdjust="spacingAndGlyphs" textLength="143" x="744.5" y="214.4482">host(sources{endpoints})</text><rect fill="#FEFECE" filter="url(#f1dx4erhfvzntg)" height="49.2188" style="stroke:#A80036;stroke-width:1.5;" width="129" x="904.5" y="196.9531"/><text fill="#000000" font-family="sans-serif" font-size="14" lengthAdjust="spacingAndGlyphs" textLength="115" x="911.5" y="218.4863">Streaming Service</text><text fill="#000000" font-family="sans-serif" font-size="14" lengthAdjust="spacingAndGlyphs" textLength="62" x="938" y="236.0957">(encoder)</text><polygon fill="#A80036" points="725.5,279.5234,735.5,283.5234,725.5,287.5234,729.5,283.5234" style="stroke:#A80036;stroke-width:1.0;"/><line style="stroke:#A80036;stroke-width:1.0;" x1="235.5" x2="731.5" y1="283.5234" y2="283.5234"/><text fill="#000000" font-family="sans-serif" font-size="13" lengthAdjust="spacingAndGlyphs" textLength="100" x="242.5" y="278.667">register(endpoint)</text><polygon fill="#A80036" points="725.5,309.875,735.5,313.875,725.5,317.875,729.5,313.875" style="stroke:#A80036;stroke-width:1.0;"/><line style="stroke:#A80036;stroke-width:1.0;" x1="366.5" x2="731.5" y1="313.875" y2="313.875"/><text fill="#000000" font-family="sans-serif" font-size="13" lengthAdjust="spacingAndGlyphs" textLength="130" x="373.5" y="309.0186">register(token, priority)</text><polygon fill="#A80036" points="725.5,340.2266,735.5,344.2266,725.5,348.2266,729.5,344.2266" style="stroke:#A80036;stroke-width:1.0;"/><line style="stroke:#A80036;stroke-width:1.0;" x1="57" x2="731.5" y1="344.2266" y2="344.2266"/><text fill="#000000" font-family="sans-serif" font-size="13" lengthAdjust="spacingAndGlyphs" textLength="403" x="64" y="339.3701">createEvent(configuration{description, sources, consumers{priorities}})</text><line style="stroke:#A80036;stroke-width:1.0;stroke-dasharray:2.0,2.0;" x1="737.5" x2="784.5" y1="369.5781" y2="369.5781"/><line style="stroke:#A80036;stroke-width:1.0;stroke-dasharray:2.0,2.0;" x1="784.5" x2="784.5" y1="369.5781" y2="382.5781"/><line style="stroke:#A80036;stroke-width:1.0;stroke-dasharray:2.0,2.0;" x1="743.5" x2="784.5" y1="382.5781" y2="382.5781"/><polygon fill="#A80036" points="753.5,378.5781,743.5,382.5781,753.5,386.5781,749.5,382.5781" style="stroke:#A80036;stroke-width:1.0;"/><text fill="#000000" font-family="sans-serif" font-size="13" lengthAdjust="spacingAndGlyphs" textLength="99" x="749.5" y="364.7217">create(newEvent)</text><polygon fill="#A80036" points="720.5,413.9297,730.5,417.9297,720.5,421.9297,724.5,417.9297" style="stroke:#A80036;stroke-width:1.0;"/><line style="stroke:#A80036;stroke-width:1.0;" x1="57" x2="726.5" y1="417.9297" y2="417.9297"/><text fill="#000000" font-family="sans-serif" font-size="13" lengthAdjust="spacingAndGlyphs" textLength="89" x="64" y="413.0732">start(newEvent)</text><polygon fill="#A80036" points="959,444.2813,969,448.2813,959,452.2813,963,448.2813" style="stroke:#A80036;stroke-width:1.0;"/><line style="stroke:#A80036;stroke-width:1.0;" x1="742.5" x2="965" y1="448.2813" y2="448.2813"/><text fill="#000000" font-family="sans-serif" font-size="13" lengthAdjust="spacingAndGlyphs" textLength="50" x="749.5" y="443.4248">encode()</text><polygon fill="#A80036" points="377.5,474.6328,367.5,478.6328,377.5,482.6328,373.5,478.6328" style="stroke:#A80036;stroke-width:1.0;"/><line style="stroke:#A80036;stroke-width:1.0;stroke-dasharray:2.0,2.0;" x1="371.5" x2="731.5" y1="478.6328" y2="478.6328"/><text fill="#000000" font-family="sans-serif" font-size="13" lengthAdjust="spacingAndGlyphs" textLength="92" x="383.5" y="473.7764">notify(recording)</text><polygon fill="#A80036" points="725.5,504.9844,735.5,508.9844,725.5,512.9844,729.5,508.9844" style="stroke:#A80036;stroke-width:1.0;"/><line style="stroke:#A80036;stroke-width:1.0;" x1="57" x2="731.5" y1="508.9844" y2="508.9844"/><text fill="#000000" font-family="sans-serif" font-size="13" lengthAdjust="spacingAndGlyphs" textLength="88" x="64" y="504.1279">stop(newEvent)</text><polygon fill="#A80036" points="959,535.3359,969,539.3359,959,543.3359,963,539.3359" style="stroke:#A80036;stroke-width:1.0;"/><line style="stroke:#A80036;stroke-width:1.0;" x1="737.5" x2="965" y1="539.3359" y2="539.3359"/><text fill="#000000" font-family="sans-serif" font-size="13" lengthAdjust="spacingAndGlyphs" textLength="97" x="744.5" y="534.4795">saveAs(mediaID)</text><polygon fill="#A80036" points="1064,565.6875,1074,569.6875,1064,573.6875,1068,569.6875" style="stroke:#A80036;stroke-width:1.0;"/><line style="stroke:#A80036;stroke-width:1.0;" x1="971" x2="1070" y1="569.6875" y2="569.6875"/><text fill="#000000" font-family="sans-serif" font-size="13" lengthAdjust="spacingAndGlyphs" textLength="81" x="978" y="564.8311">save(mediaID)</text><text fill="#000000" font-family="sans-serif" font-size="14" lengthAdjust="spacingAndGlyphs" textLength="38" x="1087.5" y="593.8691">Media</text><text fill="#000000" font-family="sans-serif" font-size="14" lengthAdjust="spacingAndGlyphs" textLength="61" x="1076" y="611.4785">(mediaID)</text><ellipse cx="1109.5" cy="563.3359" fill="#FEFECE" filter="url(#f1dx4erhfvzntg)" rx="12" ry="12" style="stroke:#A80036;stroke-width:2.0;"/><line style="stroke:#A80036;stroke-width:2.0;" x1="1097.5" x2="1121.5" y1="577.3359" y2="577.3359"/><polygon fill="#A80036" points="1141,642.9063,1151,646.9063,1141,650.9063,1145,646.9063" style="stroke:#A80036;stroke-width:1.0;"/><line style="stroke:#A80036;stroke-width:1.0;" x1="737.5" x2="1147" y1="646.9063" y2="646.9063"/><text fill="#000000" font-family="sans-serif" font-size="13" lengthAdjust="spacingAndGlyphs" textLength="239" x="744.5" y="642.0498">host(mediaID, consumers{token, priority})</text><rect fill="#FEFECE" filter="url(#f1dx4erhfvzntg)" height="31.6094" style="stroke:#A80036;stroke-width:1.5;" width="119" x="1153" y="624.5547"/><text fill="#000000" font-family="sans-serif" font-size="14" lengthAdjust="spacingAndGlyphs" textLength="105" x="1160" y="646.0879">Transfer Service</text><polygon fill="#A80036" points="377.5,689.5156,367.5,693.5156,377.5,697.5156,373.5,693.5156" style="stroke:#A80036;stroke-width:1.0;"/><line style="stroke:#A80036;stroke-width:1.0;stroke-dasharray:2.0,2.0;" x1="371.5" x2="736.5" y1="693.5156" y2="693.5156"/><text fill="#000000" font-family="sans-serif" font-size="13" lengthAdjust="spacingAndGlyphs" textLength="347" x="383.5" y="688.6592">notify(newMediaAvailable, mediaID, transferServiceEndpoint)</text><path d="M109,708.5156 L170,708.5156 L170,716.5156 L160,726.5156 L109,726.5156 L109,708.5156 " fill="#EEEEEE" style="stroke:#000000;stroke-width:1.0;"/><rect fill="none" height="185.9453" style="stroke:#000000;stroke-width:2.0;" width="1177" x="109" y="708.5156"/><text fill="#000000" font-family="sans-serif" font-size="13" font-weight="bold" lengthAdjust="spacingAndGlyphs" textLength="16" x="124" y="723.0107">alt</text><text fill="#000000" font-family="sans-serif" font-size="11" font-weight="bold" lengthAdjust="spacingAndGlyphs" textLength="137" x="185" y="721.9346">[auto-download enabled]</text><polygon fill="#A80036" points="1202.5,745.2188,1212.5,749.2188,1202.5,753.2188,1206.5,749.2188" style="stroke:#A80036;stroke-width:1.0;"/><line style="stroke:#A80036;stroke-width:1.0;" x1="366.5" x2="1208.5" y1="749.2188" y2="749.2188"/><text fill="#000000" font-family="sans-serif" font-size="13" lengthAdjust="spacingAndGlyphs" textLength="158" x="373.5" y="744.3623">fetchMedia(token, mediaID)</text><polygon fill="#A80036" points="377.5,775.5703,367.5,779.5703,377.5,783.5703,373.5,779.5703" style="stroke:#A80036;stroke-width:1.0;"/><line style="stroke:#A80036;stroke-width:1.0;stroke-dasharray:2.0,2.0;" x1="371.5" x2="1213.5" y1="779.5703" y2="779.5703"/><text fill="#000000" font-family="sans-serif" font-size="13" lengthAdjust="spacingAndGlyphs" textLength="175" x="383.5" y="774.7139">returnByPriority(mediaStream)</text><line style="stroke:#000000;stroke-width:1.0;stroke-dasharray:2.0,2.0;" x1="109" x2="1286" y1="788.5703" y2="788.5703"/><text fill="#000000" font-family="sans-serif" font-size="11" font-weight="bold" lengthAdjust="spacingAndGlyphs" textLength="153" x="114" y="799.9893">[manual-download enabled]</text><polygon fill="#A80036" points="354.5,821.7578,364.5,825.7578,354.5,829.7578,358.5,825.7578" style="stroke:#A80036;stroke-width:1.0;"/><line style="stroke:#A80036;stroke-width:1.0;" x1="142.5" x2="360.5" y1="825.7578" y2="825.7578"/><text fill="#000000" font-family="sans-serif" font-size="13" lengthAdjust="spacingAndGlyphs" textLength="105" x="149.5" y="820.9014">showMedia(token)</text><polygon fill="#A80036" points="1202.5,852.1094,1212.5,856.1094,1202.5,860.1094,1206.5,856.1094" style="stroke:#A80036;stroke-width:1.0;"/><line style="stroke:#A80036;stroke-width:1.0;" x1="366.5" x2="1208.5" y1="856.1094" y2="856.1094"/><text fill="#000000" font-family="sans-serif" font-size="13" lengthAdjust="spacingAndGlyphs" textLength="158" x="373.5" y="851.2529">fetchMedia(token, mediaID)</text><polygon fill="#A80036" points="377.5,882.4609,367.5,886.4609,377.5,890.4609,373.5,886.4609" style="stroke:#A80036;stroke-width:1.0;"/><line style="stroke:#A80036;stroke-width:1.0;stroke-dasharray:2.0,2.0;" x1="371.5" x2="1213.5" y1="886.4609" y2="886.4609"/><text fill="#000000" font-family="sans-serif" font-size="13" lengthAdjust="spacingAndGlyphs" textLength="175" x="383.5" y="881.6045">returnByPriority(mediaStream)</text><!--MD5=[fb68734ded7ed4380157d49f9c72fffd]
@startuml Scheduled Events
title Scheduled Events
actor "Recording Staff" as user
actor "Coach" as coach
collections "IP/Mobile Cams" as cam
collections "Consumer Apps" as ch
ch -> "Security Gateway" as security: authenticate(ID)
security - -> ch: return(token)
control "Control Domain\n(win10/linux)" as ctrl
create "Streaming Service\n(encoder)" as strm
ctrl -> strm: host(sources{endpoints})
cam -> ctrl: register(endpoint)
ch -> ctrl: register(token, priority)
user -> ctrl: createEvent(configuration{description, sources, consumers{priorities}})
ctrl - -> ctrl: create(newEvent)
activate ctrl
user -> ctrl: start(newEvent)
ctrl -> strm: encode()
ctrl - -> ch: notify(recording)
user -> ctrl: stop(newEvent)
deactivate ctrl
ctrl -> strm: saveAs(mediaID)
create entity "Media\n(mediaID)" as media
strm -> media: save(mediaID)
create "Transfer Service" as transfer
ctrl -> transfer: host(mediaID, consumers{token, priority})
ctrl - -> ch: notify(newMediaAvailable, mediaID, transferServiceEndpoint)
alt auto-download enabled
    ch -> transfer: fetchMedia(token, mediaID)
    transfer - -> ch: returnByPriority(mediaStream)
else manual-download enabled 
    coach -> ch: showMedia(token)
    ch -> transfer: fetchMedia(token, mediaID)
    transfer - -> ch: returnByPriority(mediaStream)
end




@enduml

PlantUML version 1.2020.22(Sun Dec 06 15:06:27 IST 2020)
(GPL source distribution)
Java Runtime: OpenJDK Runtime Environment
JVM: OpenJDK 64-Bit Server VM
Default Encoding: Cp1252
Language: en
Country: IN
--></g></svg>