<?xml version="1.0" encoding="UTF-8" standalone="no"?><svg xmlns="http://www.w3.org/2000/svg" xmlns:xlink="http://www.w3.org/1999/xlink" contentScriptType="application/ecmascript" contentStyleType="text/css" height="811px" preserveAspectRatio="none" style="width:824px;height:811px;" version="1.1" viewBox="0 0 824 811" width="824px" zoomAndPan="magnify"><defs><filter height="300%" id="f15oscjxrp39qo" width="300%" x="-1" y="-1"><feGaussianBlur result="blurOut" stdDeviation="2.0"/><feColorMatrix in="blurOut" result="blurOut2" type="matrix" values="0 0 0 0 0 0 0 0 0 0 0 0 0 0 0 0 0 0 .4 0"/><feOffset dx="4.0" dy="4.0" in="blurOut2" result="blurOut3"/><feBlend in="SourceGraphic" in2="blurOut3" mode="normal"/></filter></defs><g><text fill="#000000" font-family="sans-serif" font-size="18" lengthAdjust="spacingAndGlyphs" textLength="129" x="349.75" y="30.6855">Tag and Stream</text><rect fill="#FFFFFF" filter="url(#f15oscjxrp39qo)" height="135.7578" style="stroke: #000000; stroke-width: 2.0;" width="323" x="20" y="143.25"/><rect fill="#FFFFFF" filter="url(#f15oscjxrp39qo)" height="247.8125" style="stroke: #000000; stroke-width: 2.0;" width="762.5" x="10" y="461.2813"/><rect fill="#FFFFFF" height="168.7578" style="stroke: none; stroke-width: 1.0;" width="762.5" x="10" y="540.3359"/><rect fill="#FFFFFF" filter="url(#f15oscjxrp39qo)" height="109.4063" style="stroke: #000000; stroke-width: 2.0;" width="628.5" x="20" y="592.6875"/><line style="stroke: #A80036; stroke-width: 1.0; stroke-dasharray: 5.0,5.0;" x1="47" x2="47" y1="126.25" y2="726.0938"/><line style="stroke: #A80036; stroke-width: 1.0; stroke-dasharray: 5.0,5.0;" x1="112" x2="112" y1="126.25" y2="726.0938"/><line style="stroke: #A80036; stroke-width: 1.0; stroke-dasharray: 5.0,5.0;" x1="188" x2="188" y1="126.25" y2="726.0938"/><line style="stroke: #A80036; stroke-width: 1.0; stroke-dasharray: 5.0,5.0;" x1="287" x2="287" y1="126.25" y2="726.0938"/><line style="stroke: #A80036; stroke-width: 1.0; stroke-dasharray: 5.0,5.0;" x1="584.5" x2="584.5" y1="126.25" y2="726.0938"/><line style="stroke: #A80036; stroke-width: 1.0; stroke-dasharray: 5.0,5.0;" x1="767.5" x2="767.5" y1="334.6172" y2="726.0938"/><text fill="#000000" font-family="sans-serif" font-size="14" lengthAdjust="spacingAndGlyphs" textLength="29" x="30" y="123.1738">User</text><ellipse cx="47.5" cy="51.6406" fill="#FEFECE" filter="url(#f15oscjxrp39qo)" rx="8" ry="8" style="stroke: #A80036; stroke-width: 2.0;"/><path d="M47.5,59.6406 L47.5,86.6406 M34.5,67.6406 L60.5,67.6406 M47.5,86.6406 L34.5,101.6406 M47.5,86.6406 L60.5,101.6406 " fill="none" filter="url(#f15oscjxrp39qo)" style="stroke: #A80036; stroke-width: 2.0;"/><text fill="#000000" font-family="sans-serif" font-size="14" lengthAdjust="spacingAndGlyphs" textLength="29" x="30" y="739.627">User</text><ellipse cx="47.5" cy="752.7031" fill="#FEFECE" filter="url(#f15oscjxrp39qo)" rx="8" ry="8" style="stroke: #A80036; stroke-width: 2.0;"/><path d="M47.5,760.7031 L47.5,787.7031 M34.5,768.7031 L60.5,768.7031 M47.5,787.7031 L34.5,802.7031 M47.5,787.7031 L60.5,802.7031 " fill="none" filter="url(#f15oscjxrp39qo)" style="stroke: #A80036; stroke-width: 2.0;"/><text fill="#000000" font-family="sans-serif" font-size="14" lengthAdjust="spacingAndGlyphs" textLength="68" x="75" y="123.1738">Tagging UI</text><path d="M91.5,80.6406 L91.5,104.6406 M91.5,92.6406 L108.5,92.6406 " fill="none" filter="url(#f15oscjxrp39qo)" style="stroke: #A80036; stroke-width: 2.0;"/><ellipse cx="120.5" cy="92.6406" fill="#FEFECE" filter="url(#f15oscjxrp39qo)" rx="12" ry="12" style="stroke: #A80036; stroke-width: 2.0;"/><text fill="#000000" font-family="sans-serif" font-size="14" lengthAdjust="spacingAndGlyphs" textLength="68" x="75" y="739.627">Tagging UI</text><path d="M91.5,746.7031 L91.5,770.7031 M91.5,758.7031 L108.5,758.7031 " fill="none" filter="url(#f15oscjxrp39qo)" style="stroke: #A80036; stroke-width: 2.0;"/><ellipse cx="120.5" cy="758.7031" fill="#FEFECE" filter="url(#f15oscjxrp39qo)" rx="12" ry="12" style="stroke: #A80036; stroke-width: 2.0;"/><text fill="#000000" font-family="sans-serif" font-size="14" lengthAdjust="spacingAndGlyphs" textLength="52" x="159" y="123.1738">IP Cams</text><path d="M167.5,80.6406 L167.5,104.6406 M167.5,92.6406 L184.5,92.6406 " fill="none" filter="url(#f15oscjxrp39qo)" style="stroke: #A80036; stroke-width: 2.0;"/><ellipse cx="196.5" cy="92.6406" fill="#FEFECE" filter="url(#f15oscjxrp39qo)" rx="12" ry="12" style="stroke: #A80036; stroke-width: 2.0;"/><text fill="#000000" font-family="sans-serif" font-size="14" lengthAdjust="spacingAndGlyphs" textLength="52" x="159" y="739.627">IP Cams</text><path d="M167.5,746.7031 L167.5,770.7031 M167.5,758.7031 L184.5,758.7031 " fill="none" filter="url(#f15oscjxrp39qo)" style="stroke: #A80036; stroke-width: 2.0;"/><ellipse cx="196.5" cy="758.7031" fill="#FEFECE" filter="url(#f15oscjxrp39qo)" rx="12" ry="12" style="stroke: #A80036; stroke-width: 2.0;"/><text fill="#000000" font-family="sans-serif" font-size="14" lengthAdjust="spacingAndGlyphs" textLength="115" x="227" y="123.1738">Streaming Service</text><ellipse cx="287.5" cy="92.6406" fill="#FEFECE" filter="url(#f15oscjxrp39qo)" rx="12" ry="12" style="stroke: #A80036; stroke-width: 2.0;"/><polygon fill="#A80036" points="283.5,80.6406,289.5,75.6406,287.5,80.6406,289.5,85.6406,283.5,80.6406" style="stroke: #A80036; stroke-width: 1.0;"/><text fill="#000000" font-family="sans-serif" font-size="14" lengthAdjust="spacingAndGlyphs" textLength="115" x="227" y="739.627">Streaming Service</text><ellipse cx="287.5" cy="758.7031" fill="#FEFECE" filter="url(#f15oscjxrp39qo)" rx="12" ry="12" style="stroke: #A80036; stroke-width: 2.0;"/><polygon fill="#A80036" points="283.5,746.7031,289.5,741.7031,287.5,746.7031,289.5,751.7031,283.5,746.7031" style="stroke: #A80036; stroke-width: 1.0;"/><text fill="#000000" font-family="sans-serif" font-size="14" lengthAdjust="spacingAndGlyphs" textLength="59" x="552" y="105.5645">Coaches'</text><text fill="#000000" font-family="sans-serif" font-size="14" lengthAdjust="spacingAndGlyphs" textLength="102" x="530.5" y="123.1738">Tablets\Laptops</text><path d="M564,63.0313 L564,87.0313 M564,75.0313 L581,75.0313 " fill="none" filter="url(#f15oscjxrp39qo)" style="stroke: #A80036; stroke-width: 2.0;"/><ellipse cx="593" cy="75.0313" fill="#FEFECE" filter="url(#f15oscjxrp39qo)" rx="12" ry="12" style="stroke: #A80036; stroke-width: 2.0;"/><text fill="#000000" font-family="sans-serif" font-size="14" lengthAdjust="spacingAndGlyphs" textLength="59" x="552" y="739.627">Coaches'</text><text fill="#000000" font-family="sans-serif" font-size="14" lengthAdjust="spacingAndGlyphs" textLength="102" x="530.5" y="757.2363">Tablets\Laptops</text><path d="M564,764.3125 L564,788.3125 M564,776.3125 L581,776.3125 " fill="none" filter="url(#f15oscjxrp39qo)" style="stroke: #A80036; stroke-width: 2.0;"/><ellipse cx="593" cy="776.3125" fill="#FEFECE" filter="url(#f15oscjxrp39qo)" rx="12" ry="12" style="stroke: #A80036; stroke-width: 2.0;"/><text fill="#000000" font-family="sans-serif" font-size="14" lengthAdjust="spacingAndGlyphs" textLength="51" x="739" y="739.627">Settings</text><text fill="#000000" font-family="sans-serif" font-size="14" lengthAdjust="spacingAndGlyphs" textLength="106" x="711.5" y="757.2363">(Media Transfer)</text><ellipse cx="767.5" cy="776.3125" fill="#FEFECE" filter="url(#f15oscjxrp39qo)" rx="12" ry="12" style="stroke: #A80036; stroke-width: 2.0;"/><line style="stroke: #A80036; stroke-width: 2.0;" x1="755.5" x2="779.5" y1="790.3125" y2="790.3125"/><path d="M20,143.25 L194,143.25 L194,151.25 L184,161.25 L20,161.25 L20,143.25 " fill="#EEEEEE" style="stroke: #000000; stroke-width: 1.0;"/><rect fill="none" height="135.7578" style="stroke: #000000; stroke-width: 2.0;" width="323" x="20" y="143.25"/><text fill="#000000" font-family="sans-serif" font-size="13" font-weight="bold" lengthAdjust="spacingAndGlyphs" textLength="129" x="35" y="157.7451">Record and Transfer</text><polygon fill="#A80036" points="176,179.9531,186,183.9531,176,187.9531,180,183.9531" style="stroke: #A80036; stroke-width: 1.0;"/><line style="stroke: #A80036; stroke-width: 1.0;" x1="47.5" x2="182" y1="183.9531" y2="183.9531"/><text fill="#000000" font-family="sans-serif" font-size="13" lengthAdjust="spacingAndGlyphs" textLength="34" x="54.5" y="179.0967">start()</text><path d="M65,196.9531 L65,238.9531 L333,238.9531 L333,206.9531 L323,196.9531 L65,196.9531 " fill="#FBFB77" filter="url(#f15oscjxrp39qo)" style="stroke: #A80036; stroke-width: 1.0;"/><path d="M323,196.9531 L323,206.9531 L333,206.9531 L323,196.9531 " fill="#FBFB77" style="stroke: #A80036; stroke-width: 1.0;"/><text fill="#000000" font-family="sans-serif" font-size="13" lengthAdjust="spacingAndGlyphs" textLength="215" x="83" y="215.4482">The process till the streaming service</text><text fill="#000000" font-family="sans-serif" font-size="13" lengthAdjust="spacingAndGlyphs" textLength="202" x="95" y="231.7998">is ready to send media to Coaches</text><polygon fill="#A80036" points="176,267.0078,186,271.0078,176,275.0078,180,271.0078" style="stroke: #A80036; stroke-width: 1.0;"/><line style="stroke: #A80036; stroke-width: 1.0;" x1="47.5" x2="182" y1="271.0078" y2="271.0078"/><text fill="#000000" font-family="sans-serif" font-size="13" lengthAdjust="spacingAndGlyphs" textLength="33" x="54.5" y="266.1514">stop()</text><polygon fill="#A80036" points="699.5,288.0078,709.5,292.0078,699.5,296.0078,703.5,292.0078" style="stroke: #A80036; stroke-width: 1.0;"/><line style="stroke: #A80036; stroke-width: 1.0;" x1="584.5" x2="705.5" y1="292.0078" y2="292.0078"/><text fill="#000000" font-family="sans-serif" font-size="14" lengthAdjust="spacingAndGlyphs" textLength="51" x="739" y="332.541">Settings</text><text fill="#000000" font-family="sans-serif" font-size="14" lengthAdjust="spacingAndGlyphs" textLength="106" x="711.5" y="350.1504">(Media Transfer)</text><ellipse cx="767.5" cy="302.0078" fill="#FEFECE" filter="url(#f15oscjxrp39qo)" rx="12" ry="12" style="stroke: #A80036; stroke-width: 2.0;"/><line style="stroke: #A80036; stroke-width: 2.0;" x1="755.5" x2="779.5" y1="316.0078" y2="316.0078"/><polygon fill="#A80036" points="572.5,381.5781,582.5,385.5781,572.5,389.5781,576.5,385.5781" style="stroke: #A80036; stroke-width: 1.0;"/><line style="stroke: #A80036; stroke-width: 1.0;" x1="287.5" x2="578.5" y1="385.5781" y2="385.5781"/><text fill="#000000" font-family="sans-serif" font-size="13" lengthAdjust="spacingAndGlyphs" textLength="273" x="294.5" y="380.7217">transfer(metadata, thumbnail, mediaFileHandle)</text><polygon fill="#A80036" points="755.5,411.9297,765.5,415.9297,755.5,419.9297,759.5,415.9297" style="stroke: #A80036; stroke-width: 1.0;"/><line style="stroke: #A80036; stroke-width: 1.0;" x1="584.5" x2="761.5" y1="415.9297" y2="415.9297"/><text fill="#000000" font-family="sans-serif" font-size="13" lengthAdjust="spacingAndGlyphs" textLength="91" x="591.5" y="411.0732">checkSettings()</text><polygon fill="#A80036" points="595.5,442.2813,585.5,446.2813,595.5,450.2813,591.5,446.2813" style="stroke: #A80036; stroke-width: 1.0;"/><line style="stroke: #A80036; stroke-width: 1.0; stroke-dasharray: 2.0,2.0;" x1="589.5" x2="766.5" y1="446.2813" y2="446.2813"/><text fill="#000000" font-family="sans-serif" font-size="13" lengthAdjust="spacingAndGlyphs" textLength="89" x="601.5" y="441.4248">return(decision)</text><path d="M10,461.2813 L71,461.2813 L71,469.2813 L61,479.2813 L10,479.2813 L10,461.2813 " fill="#EEEEEE" style="stroke: #000000; stroke-width: 1.0;"/><rect fill="none" height="247.8125" style="stroke: #000000; stroke-width: 2.0;" width="762.5" x="10" y="461.2813"/><text fill="#000000" font-family="sans-serif" font-size="13" font-weight="bold" lengthAdjust="spacingAndGlyphs" textLength="16" x="25" y="475.7764">alt</text><text fill="#000000" font-family="sans-serif" font-size="11" font-weight="bold" lengthAdjust="spacingAndGlyphs" textLength="157" x="86" y="474.7002">[Is auto-download enabled?]</text><polygon fill="#A80036" points="298.5,497.9844,288.5,501.9844,298.5,505.9844,294.5,501.9844" style="stroke: #A80036; stroke-width: 1.0;"/><line style="stroke: #A80036; stroke-width: 1.0;" x1="292.5" x2="583.5" y1="501.9844" y2="501.9844"/><text fill="#000000" font-family="sans-serif" font-size="13" lengthAdjust="spacingAndGlyphs" textLength="132" x="304.5" y="497.1279">fetch(mediaFileHandle)</text><polygon fill="#A80036" points="572.5,528.3359,582.5,532.3359,572.5,536.3359,576.5,532.3359" style="stroke: #A80036; stroke-width: 1.0;"/><line style="stroke: #A80036; stroke-width: 1.0; stroke-dasharray: 2.0,2.0;" x1="287.5" x2="578.5" y1="532.3359" y2="532.3359"/><text fill="#000000" font-family="sans-serif" font-size="13" lengthAdjust="spacingAndGlyphs" textLength="137" x="294.5" y="527.4795">return(mediaFileBlocks)</text><line style="stroke: #000000; stroke-width: 1.0; stroke-dasharray: 2.0,2.0;" x1="10" x2="772.5" y1="541.3359" y2="541.3359"/><line style="stroke: #A80036; stroke-width: 1.0;" x1="584.5" x2="626.5" y1="564.6875" y2="564.6875"/><line style="stroke: #A80036; stroke-width: 1.0;" x1="626.5" x2="626.5" y1="564.6875" y2="577.6875"/><line style="stroke: #A80036; stroke-width: 1.0;" x1="585.5" x2="626.5" y1="577.6875" y2="577.6875"/><polygon fill="#A80036" points="595.5,573.6875,585.5,577.6875,595.5,581.6875,591.5,577.6875" style="stroke: #A80036; stroke-width: 1.0;"/><text fill="#000000" font-family="sans-serif" font-size="13" lengthAdjust="spacingAndGlyphs" textLength="169" x="591.5" y="559.8311">Display(metadata, thumbnail)</text><path d="M20,592.6875 L85,592.6875 L85,600.6875 L75,610.6875 L20,610.6875 L20,592.6875 " fill="#EEEEEE" style="stroke: #000000; stroke-width: 1.0;"/><rect fill="none" height="109.4063" style="stroke: #000000; stroke-width: 2.0;" width="628.5" x="20" y="592.6875"/><text fill="#000000" font-family="sans-serif" font-size="13" font-weight="bold" lengthAdjust="spacingAndGlyphs" textLength="20" x="35" y="607.1826">opt</text><text fill="#000000" font-family="sans-serif" font-size="11" font-weight="bold" lengthAdjust="spacingAndGlyphs" textLength="218" x="100" y="606.1064">[User chooses to fetch video (optional)]</text><polygon fill="#A80036" points="572.5,629.3906,582.5,633.3906,572.5,637.3906,576.5,633.3906" style="stroke: #A80036; stroke-width: 1.0;"/><line style="stroke: #A80036; stroke-width: 1.0;" x1="47.5" x2="578.5" y1="633.3906" y2="633.3906"/><text fill="#000000" font-family="sans-serif" font-size="13" lengthAdjust="spacingAndGlyphs" textLength="73" x="54.5" y="628.5342">ShowVideo()</text><polygon fill="#A80036" points="298.5,659.7422,288.5,663.7422,298.5,667.7422,294.5,663.7422" style="stroke: #A80036; stroke-width: 1.0;"/><line style="stroke: #A80036; stroke-width: 1.0;" x1="292.5" x2="583.5" y1="663.7422" y2="663.7422"/><text fill="#000000" font-family="sans-serif" font-size="13" lengthAdjust="spacingAndGlyphs" textLength="132" x="304.5" y="658.8857">fetch(mediaFileHandle)</text><polygon fill="#A80036" points="572.5,690.0938,582.5,694.0938,572.5,698.0938,576.5,694.0938" style="stroke: #A80036; stroke-width: 1.0;"/><line style="stroke: #A80036; stroke-width: 1.0; stroke-dasharray: 2.0,2.0;" x1="287.5" x2="578.5" y1="694.0938" y2="694.0938"/><text fill="#000000" font-family="sans-serif" font-size="13" lengthAdjust="spacingAndGlyphs" textLength="137" x="294.5" y="689.2373">return(mediaFileBlocks)</text><!--MD5=[20ae78b5281a4b59197b2dbf3c5eef80]
@startuml Tag and Stream 
title Tag and Stream 

actor "User" as usr
boundary "Tagging UI" as tag
boundary "IP Cams" as ip
control "Streaming Service" as strm
group Record and Transfer
    usr -> ip: start()
    note over tag,strm
    	The process till the streaming service 
        is ready to send media to Coaches
    end note
    usr -> ip: stop()
end
boundary "Coaches'\nTablets\Laptops" as coach
create entity "Settings\n(Media Transfer)" as sett
coach -> sett
strm -> coach: transfer(metadata, thumbnail, mediaFileHandle)
coach -> sett: checkSettings()
sett - -> coach: return(decision)
alt Is auto-download enabled?
    coach -> strm: fetch(mediaFileHandle)
    strm - -> coach: return(mediaFileBlocks)
else
    coach -> coach: Display(metadata, thumbnail)
    opt User chooses to fetch video (optional)
        usr -> coach: ShowVideo()
        coach -> strm: fetch(mediaFileHandle)
        strm - -> coach: return(mediaFileBlocks)
    end
end

@enduml

PlantUML version 1.2020.18(Thu Oct 01 01:10:44 IST 2020)
(GPL source distribution)
Java Runtime: OpenJDK Runtime Environment
JVM: OpenJDK 64-Bit Server VM
Default Encoding: Cp1252
Language: en
Country: IN
--></g></svg>