<?xml version="1.0" encoding="UTF-8" standalone="no"?><svg xmlns="http://www.w3.org/2000/svg" xmlns:xlink="http://www.w3.org/1999/xlink" contentScriptType="application/ecmascript" contentStyleType="text/css" height="1069px" preserveAspectRatio="none" style="width:1113px;height:1069px;" version="1.1" viewBox="0 0 1113 1069" width="1113px" zoomAndPan="magnify"><defs><filter height="300%" id="f1kvrydij92wd3" width="300%" x="-1" y="-1"><feGaussianBlur result="blurOut" stdDeviation="2.0"/><feColorMatrix in="blurOut" result="blurOut2" type="matrix" values="0 0 0 0 0 0 0 0 0 0 0 0 0 0 0 0 0 0 .4 0"/><feOffset dx="4.0" dy="4.0" in="blurOut2" result="blurOut3"/><feBlend in="SourceGraphic" in2="blurOut3" mode="normal"/></filter></defs><g><rect fill="#FFFFFF" filter="url(#f1kvrydij92wd3)" height="852.6563" style="stroke: #A80036; stroke-width: 1.0;" width="10" x="106.5" y="121.9609"/><rect fill="#FFFFFF" filter="url(#f1kvrydij92wd3)" height="852.6563" style="stroke: #A80036; stroke-width: 1.0;" width="10" x="277.5" y="121.9609"/><rect fill="#FFFFFF" filter="url(#f1kvrydij92wd3)" height="691.9922" style="stroke: #A80036; stroke-width: 1.0;" width="10" x="793" y="282.625"/><rect fill="#FFFFFF" filter="url(#f1kvrydij92wd3)" height="113.4063" style="stroke: #A80036; stroke-width: 1.0;" width="10" x="1027.5" y="625.75"/><rect fill="#FFFFFF" filter="url(#f1kvrydij92wd3)" height="447.2734" style="stroke: #000000; stroke-width: 2.0;" width="779.5" x="320" y="428.2891"/><rect fill="#FFFFFF" filter="url(#f1kvrydij92wd3)" height="232.8125" style="stroke: #000000; stroke-width: 2.0;" width="643.5" x="446" y="514.3438"/><rect fill="#FFFFFF" height="76.5391" style="stroke: none; stroke-width: 1.0;" width="643.5" x="446" y="670.6172"/><line style="stroke: #A80036; stroke-width: 1.0; stroke-dasharray: 5.0,5.0;" x1="22" x2="22" y1="89.6094" y2="983.6172"/><line style="stroke: #A80036; stroke-width: 1.0; stroke-dasharray: 5.0,5.0;" x1="111" x2="111" y1="89.6094" y2="983.6172"/><line style="stroke: #A80036; stroke-width: 1.0; stroke-dasharray: 5.0,5.0;" x1="282" x2="282" y1="89.6094" y2="983.6172"/><line style="stroke: #A80036; stroke-width: 1.0; stroke-dasharray: 5.0,5.0;" x1="388" x2="388" y1="89.6094" y2="983.6172"/><line style="stroke: #A80036; stroke-width: 1.0; stroke-dasharray: 5.0,5.0;" x1="514" x2="514" y1="169.7656" y2="983.6172"/><line style="stroke: #A80036; stroke-width: 1.0; stroke-dasharray: 5.0,5.0;" x1="719.5" x2="719.5" y1="89.6094" y2="983.6172"/><line style="stroke: #A80036; stroke-width: 1.0; stroke-dasharray: 5.0,5.0;" x1="797.5" x2="797.5" y1="290.0781" y2="983.6172"/><line style="stroke: #A80036; stroke-width: 1.0; stroke-dasharray: 5.0,5.0;" x1="903.5" x2="903.5" y1="89.6094" y2="983.6172"/><line style="stroke: #A80036; stroke-width: 1.0; stroke-dasharray: 5.0,5.0;" x1="1032.5" x2="1032.5" y1="642.0078" y2="983.6172"/><text fill="#000000" font-family="sans-serif" font-size="14" lengthAdjust="spacingAndGlyphs" textLength="29" x="5" y="86.5332">User</text><ellipse cx="22.5" cy="15" fill="#FEFECE" filter="url(#f1kvrydij92wd3)" rx="8" ry="8" style="stroke: #A80036; stroke-width: 2.0;"/><path d="M22.5,23 L22.5,50 M9.5,31 L35.5,31 M22.5,50 L9.5,65 M22.5,50 L35.5,65 " fill="none" filter="url(#f1kvrydij92wd3)" style="stroke: #A80036; stroke-width: 2.0;"/><text fill="#000000" font-family="sans-serif" font-size="14" lengthAdjust="spacingAndGlyphs" textLength="29" x="5" y="997.1504">User</text><ellipse cx="22.5" cy="1010.2266" fill="#FEFECE" filter="url(#f1kvrydij92wd3)" rx="8" ry="8" style="stroke: #A80036; stroke-width: 2.0;"/><path d="M22.5,1018.2266 L22.5,1045.2266 M9.5,1026.2266 L35.5,1026.2266 M22.5,1045.2266 L9.5,1060.2266 M22.5,1045.2266 L35.5,1060.2266 " fill="none" filter="url(#f1kvrydij92wd3)" style="stroke: #A80036; stroke-width: 2.0;"/><rect fill="#FEFECE" filter="url(#f1kvrydij92wd3)" height="49.2188" style="stroke: #A80036; stroke-width: 1.5;" width="119" x="50" y="35.3906"/><text fill="#000000" font-family="sans-serif" font-size="14" lengthAdjust="spacingAndGlyphs" textLength="105" x="57" y="56.9238">Event Generator</text><text fill="#000000" font-family="sans-serif" font-size="14" lengthAdjust="spacingAndGlyphs" textLength="67" x="76" y="74.5332">(simulator)</text><rect fill="#FEFECE" filter="url(#f1kvrydij92wd3)" height="49.2188" style="stroke: #A80036; stroke-width: 1.5;" width="119" x="50" y="982.6172"/><text fill="#000000" font-family="sans-serif" font-size="14" lengthAdjust="spacingAndGlyphs" textLength="105" x="57" y="1004.1504">Event Generator</text><text fill="#000000" font-family="sans-serif" font-size="14" lengthAdjust="spacingAndGlyphs" textLength="67" x="76" y="1021.7598">(simulator)</text><text fill="#000000" font-family="sans-serif" font-size="14" lengthAdjust="spacingAndGlyphs" textLength="69" x="245" y="86.5332">NT Service</text><ellipse cx="282.5" cy="56" fill="#FEFECE" filter="url(#f1kvrydij92wd3)" rx="12" ry="12" style="stroke: #A80036; stroke-width: 2.0;"/><polygon fill="#A80036" points="278.5,44,284.5,39,282.5,44,284.5,49,278.5,44" style="stroke: #A80036; stroke-width: 1.0;"/><text fill="#000000" font-family="sans-serif" font-size="14" lengthAdjust="spacingAndGlyphs" textLength="69" x="245" y="997.1504">NT Service</text><ellipse cx="282.5" cy="1016.2266" fill="#FEFECE" filter="url(#f1kvrydij92wd3)" rx="12" ry="12" style="stroke: #A80036; stroke-width: 2.0;"/><polygon fill="#A80036" points="278.5,1004.2266,284.5,999.2266,282.5,1004.2266,284.5,1009.2266,278.5,1004.2266" style="stroke: #A80036; stroke-width: 1.0;"/><text fill="#000000" font-family="sans-serif" font-size="14" lengthAdjust="spacingAndGlyphs" textLength="110" x="330" y="86.5332">Media Repository</text><path d="M370,36 C370,26 388,26 388,26 C388,26 406,26 406,36 L406,62 C406,72 388,72 388,72 C388,72 370,72 370,62 L370,36 " fill="#FEFECE" filter="url(#f1kvrydij92wd3)" style="stroke: #000000; stroke-width: 1.5;"/><path d="M370,36 C370,46 388,46 388,46 C388,46 406,46 406,36 " fill="none" style="stroke: #000000; stroke-width: 1.5;"/><text fill="#000000" font-family="sans-serif" font-size="14" lengthAdjust="spacingAndGlyphs" textLength="110" x="330" y="997.1504">Media Repository</text><path d="M370,1010.2266 C370,1000.2266 388,1000.2266 388,1000.2266 C388,1000.2266 406,1000.2266 406,1010.2266 L406,1036.2266 C406,1046.2266 388,1046.2266 388,1046.2266 C388,1046.2266 370,1046.2266 370,1036.2266 L370,1010.2266 " fill="#FEFECE" filter="url(#f1kvrydij92wd3)" style="stroke: #000000; stroke-width: 1.5;"/><path d="M370,1010.2266 C370,1020.2266 388,1020.2266 388,1020.2266 C388,1020.2266 406,1020.2266 406,1010.2266 " fill="none" style="stroke: #000000; stroke-width: 1.5;"/><text fill="#000000" font-family="sans-serif" font-size="14" lengthAdjust="spacingAndGlyphs" textLength="111" x="456" y="997.1504">Queue Processor</text><ellipse cx="514.5" cy="1016.2266" fill="#FEFECE" filter="url(#f1kvrydij92wd3)" rx="12" ry="12" style="stroke: #A80036; stroke-width: 2.0;"/><polygon fill="#A80036" points="510.5,1004.2266,516.5,999.2266,514.5,1004.2266,516.5,1009.2266,510.5,1004.2266" style="stroke: #A80036; stroke-width: 1.0;"/><text fill="#000000" font-family="sans-serif" font-size="14" lengthAdjust="spacingAndGlyphs" textLength="76" x="678.5" y="68.9238">Laptop/iPad</text><text fill="#000000" font-family="sans-serif" font-size="14" lengthAdjust="spacingAndGlyphs" textLength="82" x="675.5" y="86.5332">(Consumers)</text><path d="M699,26.3906 L699,50.3906 M699,38.3906 L716,38.3906 " fill="none" filter="url(#f1kvrydij92wd3)" style="stroke: #A80036; stroke-width: 2.0;"/><ellipse cx="728" cy="38.3906" fill="#FEFECE" filter="url(#f1kvrydij92wd3)" rx="12" ry="12" style="stroke: #A80036; stroke-width: 2.0;"/><text fill="#000000" font-family="sans-serif" font-size="14" lengthAdjust="spacingAndGlyphs" textLength="76" x="678.5" y="997.1504">Laptop/iPad</text><text fill="#000000" font-family="sans-serif" font-size="14" lengthAdjust="spacingAndGlyphs" textLength="82" x="675.5" y="1014.7598">(Consumers)</text><path d="M699,1021.8359 L699,1045.8359 M699,1033.8359 L716,1033.8359 " fill="none" filter="url(#f1kvrydij92wd3)" style="stroke: #A80036; stroke-width: 2.0;"/><ellipse cx="728" cy="1033.8359" fill="#FEFECE" filter="url(#f1kvrydij92wd3)" rx="12" ry="12" style="stroke: #A80036; stroke-width: 2.0;"/><text fill="#000000" font-family="sans-serif" font-size="14" lengthAdjust="spacingAndGlyphs" textLength="43" x="773.5" y="997.1504">Queue</text><ellipse cx="798" cy="1016.2266" fill="#FEFECE" filter="url(#f1kvrydij92wd3)" rx="12" ry="12" style="stroke: #A80036; stroke-width: 2.0;"/><polygon fill="#A80036" points="794,1004.2266,800,999.2266,798,1004.2266,800,1009.2266,794,1004.2266" style="stroke: #A80036; stroke-width: 1.0;"/><rect fill="#FEFECE" filter="url(#f1kvrydij92wd3)" height="49.2188" style="stroke: #A80036; stroke-width: 1.5;" width="135" x="836.5" y="31.3906"/><rect fill="#FEFECE" filter="url(#f1kvrydij92wd3)" height="49.2188" style="stroke: #A80036; stroke-width: 1.5;" width="135" x="832.5" y="35.3906"/><text fill="#000000" font-family="sans-serif" font-size="14" lengthAdjust="spacingAndGlyphs" textLength="52" x="874" y="56.9238">Sources</text><text fill="#000000" font-family="sans-serif" font-size="14" lengthAdjust="spacingAndGlyphs" textLength="121" x="839.5" y="74.5332">(iPhones/Androids)</text><rect fill="#FEFECE" filter="url(#f1kvrydij92wd3)" height="49.2188" style="stroke: #A80036; stroke-width: 1.5;" width="135" x="836.5" y="982.6172"/><rect fill="#FEFECE" filter="url(#f1kvrydij92wd3)" height="49.2188" style="stroke: #A80036; stroke-width: 1.5;" width="135" x="832.5" y="986.6172"/><text fill="#000000" font-family="sans-serif" font-size="14" lengthAdjust="spacingAndGlyphs" textLength="52" x="874" y="1008.1504">Sources</text><text fill="#000000" font-family="sans-serif" font-size="14" lengthAdjust="spacingAndGlyphs" textLength="121" x="839.5" y="1025.7598">(iPhones/Androids)</text><text fill="#000000" font-family="sans-serif" font-size="14" lengthAdjust="spacingAndGlyphs" textLength="63" x="998" y="997.1504">Video File</text><text fill="#000000" font-family="sans-serif" font-size="14" lengthAdjust="spacingAndGlyphs" textLength="88" x="985.5" y="1014.7598">(H.264/H.265)</text><ellipse cx="1032.5" cy="1033.8359" fill="#FEFECE" filter="url(#f1kvrydij92wd3)" rx="12" ry="12" style="stroke: #A80036; stroke-width: 2.0;"/><line style="stroke: #A80036; stroke-width: 2.0;" x1="1020.5" x2="1044.5" y1="1047.8359" y2="1047.8359"/><rect fill="#FFFFFF" filter="url(#f1kvrydij92wd3)" height="852.6563" style="stroke: #A80036; stroke-width: 1.0;" width="10" x="106.5" y="121.9609"/><rect fill="#FFFFFF" filter="url(#f1kvrydij92wd3)" height="852.6563" style="stroke: #A80036; stroke-width: 1.0;" width="10" x="277.5" y="121.9609"/><rect fill="#FFFFFF" filter="url(#f1kvrydij92wd3)" height="691.9922" style="stroke: #A80036; stroke-width: 1.0;" width="10" x="793" y="282.625"/><rect fill="#FFFFFF" filter="url(#f1kvrydij92wd3)" height="113.4063" style="stroke: #A80036; stroke-width: 1.0;" width="10" x="1027.5" y="625.75"/><polygon fill="#A80036" points="94.5,117.9609,104.5,121.9609,94.5,125.9609,98.5,121.9609" style="stroke: #A80036; stroke-width: 1.0;"/><line style="stroke: #A80036; stroke-width: 1.0;" x1="22.5" x2="100.5" y1="121.9609" y2="121.9609"/><text fill="#000000" font-family="sans-serif" font-size="13" lengthAdjust="spacingAndGlyphs" textLength="36" x="29.5" y="117.1045">uses()</text><polygon fill="#A80036" points="444,148.3125,454,152.3125,444,156.3125,448,152.3125" style="stroke: #A80036; stroke-width: 1.0;"/><line style="stroke: #A80036; stroke-width: 1.0;" x1="287.5" x2="450" y1="152.3125" y2="152.3125"/><text fill="#000000" font-family="sans-serif" font-size="13" lengthAdjust="spacingAndGlyphs" textLength="25" x="294.5" y="147.4561">Init()</text><text fill="#000000" font-family="sans-serif" font-size="14" lengthAdjust="spacingAndGlyphs" textLength="111" x="456" y="176.4941">Queue Processor</text><ellipse cx="514.5" cy="145.9609" fill="#FEFECE" filter="url(#f1kvrydij92wd3)" rx="12" ry="12" style="stroke: #A80036; stroke-width: 2.0;"/><polygon fill="#A80036" points="510.5,133.9609,516.5,128.9609,514.5,133.9609,516.5,138.9609,510.5,133.9609" style="stroke: #A80036; stroke-width: 1.0;"/><polygon fill="#A80036" points="525.5,207.9219,515.5,211.9219,525.5,215.9219,521.5,211.9219" style="stroke: #A80036; stroke-width: 1.0;"/><line style="stroke: #A80036; stroke-width: 1.0;" x1="519.5" x2="718.5" y1="211.9219" y2="211.9219"/><text fill="#000000" font-family="sans-serif" font-size="13" lengthAdjust="spacingAndGlyphs" textLength="66" x="531.5" y="207.0654">Subscribe()</text><polygon fill="#A80036" points="265.5,238.2734,275.5,242.2734,265.5,246.2734,269.5,242.2734" style="stroke: #A80036; stroke-width: 1.0;"/><line style="stroke: #A80036; stroke-width: 1.0;" x1="116.5" x2="271.5" y1="242.2734" y2="242.2734"/><text fill="#000000" font-family="sans-serif" font-size="13" lengthAdjust="spacingAndGlyphs" textLength="137" x="123.5" y="237.417">StartEvent(taggingData)</text><polygon fill="#A80036" points="761.5,268.625,771.5,272.625,761.5,276.625,765.5,272.625" style="stroke: #A80036; stroke-width: 1.0;"/><line style="stroke: #A80036; stroke-width: 1.0;" x1="287.5" x2="767.5" y1="272.625" y2="272.625"/><text fill="#000000" font-family="sans-serif" font-size="13" lengthAdjust="spacingAndGlyphs" textLength="161" x="294.5" y="267.7686">Add(startEventTaggingData)</text><text fill="#000000" font-family="sans-serif" font-size="14" lengthAdjust="spacingAndGlyphs" textLength="43" x="773.5" y="296.8066">Queue</text><ellipse cx="798" cy="266.2734" fill="#FEFECE" filter="url(#f1kvrydij92wd3)" rx="12" ry="12" style="stroke: #A80036; stroke-width: 2.0;"/><polygon fill="#A80036" points="794,254.2734,800,249.2734,798,254.2734,800,259.2734,794,254.2734" style="stroke: #A80036; stroke-width: 1.0;"/><polygon fill="#FBFB77" filter="url(#f1kvrydij92wd3)" points="73,314.8828,149,314.8828,159,334.8828,149,354.8828,73,354.8828,63,334.8828,73,314.8828" style="stroke: #A80036; stroke-width: 1.0;"/><text fill="#000000" font-family="sans-serif" font-size="13" lengthAdjust="spacingAndGlyphs" textLength="72" x="75" y="332.3779">after 5/10/20</text><text fill="#000000" font-family="sans-serif" font-size="13" lengthAdjust="spacingAndGlyphs" textLength="46" x="75" y="348.7295">minutes</text><polygon fill="#A80036" points="265.5,378.9375,275.5,382.9375,265.5,386.9375,269.5,382.9375" style="stroke: #A80036; stroke-width: 1.0;"/><line style="stroke: #A80036; stroke-width: 1.0;" x1="116.5" x2="271.5" y1="382.9375" y2="382.9375"/><text fill="#000000" font-family="sans-serif" font-size="13" lengthAdjust="spacingAndGlyphs" textLength="136" x="123.5" y="378.0811">StopEvent(taggingData)</text><polygon fill="#A80036" points="781,409.2891,791,413.2891,781,417.2891,785,413.2891" style="stroke: #A80036; stroke-width: 1.0;"/><line style="stroke: #A80036; stroke-width: 1.0;" x1="287.5" x2="787" y1="413.2891" y2="413.2891"/><text fill="#000000" font-family="sans-serif" font-size="13" lengthAdjust="spacingAndGlyphs" textLength="160" x="294.5" y="408.4326">Add(stopEventTaggingData)</text><path d="M320,428.2891 L393,428.2891 L393,436.2891 L383,446.2891 L320,446.2891 L320,428.2891 " fill="#EEEEEE" style="stroke: #000000; stroke-width: 1.0;"/><rect fill="none" height="447.2734" style="stroke: #000000; stroke-width: 2.0;" width="779.5" x="320" y="428.2891"/><text fill="#000000" font-family="sans-serif" font-size="13" font-weight="bold" lengthAdjust="spacingAndGlyphs" textLength="28" x="335" y="442.7842">loop</text><text fill="#000000" font-family="sans-serif" font-size="11" font-weight="bold" lengthAdjust="spacingAndGlyphs" textLength="47" x="408" y="441.708">[till true]</text><polygon fill="#A80036" points="781,464.9922,791,468.9922,781,472.9922,785,468.9922" style="stroke: #A80036; stroke-width: 1.0;"/><line style="stroke: #A80036; stroke-width: 1.0;" x1="514.5" x2="787" y1="468.9922" y2="468.9922"/><text fill="#000000" font-family="sans-serif" font-size="13" lengthAdjust="spacingAndGlyphs" textLength="77" x="521.5" y="464.1357">ReadEvents()</text><polygon fill="#A80036" points="525.5,495.3438,515.5,499.3438,525.5,503.3438,521.5,499.3438" style="stroke: #A80036; stroke-width: 1.0;"/><line style="stroke: #A80036; stroke-width: 1.0; stroke-dasharray: 2.0,2.0;" x1="519.5" x2="792" y1="499.3438" y2="499.3438"/><text fill="#000000" font-family="sans-serif" font-size="13" lengthAdjust="spacingAndGlyphs" textLength="98" x="531.5" y="494.4873">return(eventData)</text><path d="M446,514.3438 L507,514.3438 L507,522.3438 L497,532.3438 L446,532.3438 L446,514.3438 " fill="#EEEEEE" style="stroke: #000000; stroke-width: 1.0;"/><rect fill="none" height="232.8125" style="stroke: #000000; stroke-width: 2.0;" width="643.5" x="446" y="514.3438"/><text fill="#000000" font-family="sans-serif" font-size="13" font-weight="bold" lengthAdjust="spacingAndGlyphs" textLength="16" x="461" y="528.8389">alt</text><text fill="#000000" font-family="sans-serif" font-size="11" font-weight="bold" lengthAdjust="spacingAndGlyphs" textLength="83" x="522" y="527.7627">[Event = Start?]</text><polygon fill="#A80036" points="892,551.0469,902,555.0469,892,559.0469,896,555.0469" style="stroke: #A80036; stroke-width: 1.0;"/><line style="stroke: #A80036; stroke-width: 1.0;" x1="514.5" x2="898" y1="555.0469" y2="555.0469"/><text fill="#000000" font-family="sans-serif" font-size="13" lengthAdjust="spacingAndGlyphs" textLength="68" x="521.5" y="550.1904">StartEvent()</text><polygon fill="#A80036" points="707.5,581.3984,717.5,585.3984,707.5,589.3984,711.5,585.3984" style="stroke: #A80036; stroke-width: 1.0;"/><line style="stroke: #A80036; stroke-width: 1.0; stroke-dasharray: 2.0,2.0;" x1="514.5" x2="713.5" y1="585.3984" y2="585.3984"/><text fill="#000000" font-family="sans-serif" font-size="13" lengthAdjust="spacingAndGlyphs" textLength="181" x="521.5" y="580.542">Publish(startEventTaggingData)</text><polygon fill="#A80036" points="973.5,611.75,983.5,615.75,973.5,619.75,977.5,615.75" style="stroke: #A80036; stroke-width: 1.0;"/><line style="stroke: #A80036; stroke-width: 1.0;" x1="904" x2="979.5" y1="615.75" y2="615.75"/><text fill="#000000" font-family="sans-serif" font-size="13" lengthAdjust="spacingAndGlyphs" textLength="52" x="911" y="610.8936">Encode()</text><text fill="#000000" font-family="sans-serif" font-size="14" lengthAdjust="spacingAndGlyphs" textLength="63" x="998" y="639.9316">Video File</text><text fill="#000000" font-family="sans-serif" font-size="14" lengthAdjust="spacingAndGlyphs" textLength="88" x="985.5" y="657.541">(H.264/H.265)</text><ellipse cx="1032.5" cy="609.3984" fill="#FEFECE" filter="url(#f1kvrydij92wd3)" rx="12" ry="12" style="stroke: #A80036; stroke-width: 2.0;"/><line style="stroke: #A80036; stroke-width: 2.0;" x1="1020.5" x2="1044.5" y1="623.3984" y2="623.3984"/><line style="stroke: #000000; stroke-width: 1.0; stroke-dasharray: 2.0,2.0;" x1="446" x2="1089.5" y1="671.6172" y2="671.6172"/><text fill="#000000" font-family="sans-serif" font-size="11" font-weight="bold" lengthAdjust="spacingAndGlyphs" textLength="82" x="451" y="683.0361">[Event = Stop?]</text><polygon fill="#A80036" points="892,704.8047,902,708.8047,892,712.8047,896,708.8047" style="stroke: #A80036; stroke-width: 1.0;"/><line style="stroke: #A80036; stroke-width: 1.0;" x1="514.5" x2="898" y1="708.8047" y2="708.8047"/><text fill="#000000" font-family="sans-serif" font-size="13" lengthAdjust="spacingAndGlyphs" textLength="67" x="521.5" y="703.9482">StopEvent()</text><polygon fill="#A80036" points="1020.5,735.1563,1030.5,739.1563,1020.5,743.1563,1024.5,739.1563" style="stroke: #A80036; stroke-width: 1.0;"/><line style="stroke: #A80036; stroke-width: 1.0;" x1="904" x2="1026.5" y1="739.1563" y2="739.1563"/><text fill="#000000" font-family="sans-serif" font-size="13" lengthAdjust="spacingAndGlyphs" textLength="36" x="911" y="734.2998">Save()</text><polygon fill="#A80036" points="525.5,772.5078,515.5,776.5078,525.5,780.5078,521.5,776.5078" style="stroke: #A80036; stroke-width: 1.0;"/><line style="stroke: #A80036; stroke-width: 1.0; stroke-dasharray: 2.0,2.0;" x1="519.5" x2="903" y1="776.5078" y2="776.5078"/><text fill="#000000" font-family="sans-serif" font-size="13" lengthAdjust="spacingAndGlyphs" textLength="281" x="531.5" y="771.6514">eventCompleted(eventMetadata, mediaMetadata)</text><polygon fill="#A80036" points="892,802.8594,902,806.8594,892,810.8594,896,806.8594" style="stroke: #A80036; stroke-width: 1.0;"/><line style="stroke: #A80036; stroke-width: 1.0;" x1="514.5" x2="898" y1="806.8594" y2="806.8594"/><text fill="#000000" font-family="sans-serif" font-size="13" lengthAdjust="spacingAndGlyphs" textLength="71" x="521.5" y="802.0029">fetchMedia()</text><polygon fill="#A80036" points="399,833.2109,389,837.2109,399,841.2109,395,837.2109" style="stroke: #A80036; stroke-width: 1.0;"/><line style="stroke: #A80036; stroke-width: 1.0; stroke-dasharray: 2.0,2.0;" x1="393" x2="903" y1="837.2109" y2="837.2109"/><text fill="#000000" font-family="sans-serif" font-size="13" lengthAdjust="spacingAndGlyphs" textLength="177" x="405" y="832.3545">return(mediaFile, TaggingData)</text><polygon fill="#A80036" points="707.5,863.5625,717.5,867.5625,707.5,871.5625,711.5,867.5625" style="stroke: #A80036; stroke-width: 1.0;"/><line style="stroke: #A80036; stroke-width: 1.0; stroke-dasharray: 2.0,2.0;" x1="514.5" x2="713.5" y1="867.5625" y2="867.5625"/><text fill="#000000" font-family="sans-serif" font-size="13" lengthAdjust="spacingAndGlyphs" textLength="181" x="521.5" y="862.7061">Publish(saveEventTaggingData)</text><polygon fill="#A80036" points="298.5,900.9141,288.5,904.9141,298.5,908.9141,294.5,904.9141" style="stroke: #A80036; stroke-width: 1.0;"/><line style="stroke: #A80036; stroke-width: 1.0;" x1="292.5" x2="718.5" y1="904.9141" y2="904.9141"/><text fill="#000000" font-family="sans-serif" font-size="13" lengthAdjust="spacingAndGlyphs" textLength="123" x="304.5" y="900.0576">fetchVideo(metadata)</text><polygon fill="#A80036" points="707.5,931.2656,717.5,935.2656,707.5,939.2656,711.5,935.2656" style="stroke: #A80036; stroke-width: 1.0;"/><line style="stroke: #A80036; stroke-width: 1.0; stroke-dasharray: 2.0,2.0;" x1="388" x2="713.5" y1="935.2656" y2="935.2656"/><text fill="#000000" font-family="sans-serif" font-size="13" lengthAdjust="spacingAndGlyphs" textLength="70" x="395" y="930.4092">return(video)</text><polygon fill="#A80036" points="707.5,961.6172,717.5,965.6172,707.5,969.6172,711.5,965.6172" style="stroke: #A80036; stroke-width: 1.0;"/><line style="stroke: #A80036; stroke-width: 1.0;" x1="22.5" x2="713.5" y1="965.6172" y2="965.6172"/><text fill="#000000" font-family="sans-serif" font-size="13" lengthAdjust="spacingAndGlyphs" textLength="95" x="29.5" y="960.7607">view(newVideo?)</text><!--MD5=[ad69fa6e2bb19c496ed742a260ee4d4c]
@startuml Spike SP4420
actor "User" as user
user -> "Event Generator\n(simulator)" as evgen: uses()
activate evgen
control "NT Service" as nt
activate nt
database "Media Repository" as repo
create control "Queue Processor" as qp
nt -> qp: Init()
boundary "Laptop/iPad\n(Consumers)" as cns
cns -> qp: Subscribe()
evgen -> nt: StartEvent(taggingData)
create control "Queue" as q
nt -> q: Add(startEventTaggingData)
activate q
hnote over evgen: after 5/10/20\nminutes
evgen -> nt: StopEvent(taggingData)
nt -> q: Add(stopEventTaggingData)
loop till true
    qp -> q: ReadEvents()
    q - -> qp: return(eventData)
    collections "Sources\n(iPhones/Androids)" as src
    alt Event = Start?
        qp -> src: StartEvent()
        qp - -> cns: Publish(startEventTaggingData)
        create entity "Video File\n(H.264/H.265)" as video
        src -> video: Encode()
        activate video
    else Event = Stop?
        qp -> src: StopEvent()
        src -> video: Save()
        deactivate video
    end
    src - -> qp: eventCompleted(eventMetadata, mediaMetadata)
    qp -> src: fetchMedia()
    src - -> repo: return(mediaFile, TaggingData)
    qp - -> cns: Publish(saveEventTaggingData)
end
cns -> nt: fetchVideo(metadata)
repo - -> cns: return(video)
user -> cns: view(newVideo?)

@enduml

PlantUML version 1.2020.18(Thu Oct 01 01:10:44 IST 2020)
(GPL source distribution)
Java Runtime: OpenJDK Runtime Environment
JVM: OpenJDK 64-Bit Server VM
Default Encoding: Cp1252
Language: en
Country: IN
--></g></svg>