<?xml version="1.0" encoding="UTF-8" standalone="no"?><svg xmlns="http://www.w3.org/2000/svg" xmlns:xlink="http://www.w3.org/1999/xlink" contentScriptType="application/ecmascript" contentStyleType="text/css" height="1260px" preserveAspectRatio="none" style="width:2048px;height:1260px;" version="1.1" viewBox="0 0 2048 1260" width="2048px" zoomAndPan="magnify"><defs><filter height="300%" id="f3sfalm0503uw" width="300%" x="-1" y="-1"><feGaussianBlur result="blurOut" stdDeviation="2.0"/><feColorMatrix in="blurOut" result="blurOut2" type="matrix" values="0 0 0 0 0 0 0 0 0 0 0 0 0 0 0 0 0 0 .4 0"/><feOffset dx="4.0" dy="4.0" in="blurOut2" result="blurOut3"/><feBlend in="SourceGraphic" in2="blurOut3" mode="normal"/></filter></defs><g><line style="stroke:#A80036;stroke-width:1.0;stroke-dasharray:5.0,5.0;" x1="27" x2="27" y1="89.8281" y2="1166.6563"/><line style="stroke:#A80036;stroke-width:1.0;stroke-dasharray:5.0,5.0;" x1="83" x2="83" y1="89.8281" y2="1166.6563"/><line style="stroke:#A80036;stroke-width:1.0;stroke-dasharray:5.0,5.0;" x1="203" x2="203" y1="89.8281" y2="1166.6563"/><line style="stroke:#A80036;stroke-width:1.0;stroke-dasharray:5.0,5.0;" x1="380.5" x2="380.5" y1="141.9375" y2="1166.6563"/><line style="stroke:#A80036;stroke-width:1.0;stroke-dasharray:5.0,5.0;" x1="473.5" x2="473.5" y1="89.8281" y2="1166.6563"/><line style="stroke:#A80036;stroke-width:1.0;stroke-dasharray:5.0,5.0;" x1="876" x2="876" y1="206.1563" y2="1166.6563"/><line style="stroke:#A80036;stroke-width:1.0;stroke-dasharray:5.0,5.0;" x1="992" x2="992" y1="89.8281" y2="1166.6563"/><line style="stroke:#A80036;stroke-width:1.0;stroke-dasharray:5.0,5.0;" x1="1386.5" x2="1386.5" y1="270.375" y2="1166.6563"/><line style="stroke:#A80036;stroke-width:1.0;stroke-dasharray:5.0,5.0;" x1="1489.5" x2="1489.5" y1="89.8281" y2="1166.6563"/><line style="stroke:#A80036;stroke-width:1.0;stroke-dasharray:5.0,5.0;" x1="1797.5" x2="1797.5" y1="364.9453" y2="1166.6563"/><line style="stroke:#A80036;stroke-width:1.0;stroke-dasharray:5.0,5.0;" x1="1885.5" x2="1885.5" y1="548.2656" y2="1166.6563"/><line style="stroke:#A80036;stroke-width:1.0;stroke-dasharray:5.0,5.0;" x1="1989.5" x2="1989.5" y1="1045.7969" y2="1166.6563"/><text fill="#000000" font-family="sans-serif" font-size="14" lengthAdjust="spacingAndGlyphs" textLength="39" x="5" y="86.752">Admin</text><ellipse cx="27.5" cy="15.2188" fill="#FEFECE" filter="url(#f3sfalm0503uw)" rx="8" ry="8" style="stroke:#A80036;stroke-width:2.0;"/><path d="M27.5,23.2188 L27.5,50.2188 M14.5,31.2188 L40.5,31.2188 M27.5,50.2188 L14.5,65.2188 M27.5,50.2188 L40.5,65.2188 " fill="none" filter="url(#f3sfalm0503uw)" style="stroke:#A80036;stroke-width:2.0;"/><text fill="#000000" font-family="sans-serif" font-size="14" lengthAdjust="spacingAndGlyphs" textLength="39" x="5" y="1180.1895">Admin</text><ellipse cx="27.5" cy="1193.2656" fill="#FEFECE" filter="url(#f3sfalm0503uw)" rx="8" ry="8" style="stroke:#A80036;stroke-width:2.0;"/><path d="M27.5,1201.2656 L27.5,1228.2656 M14.5,1209.2656 L40.5,1209.2656 M27.5,1228.2656 L14.5,1243.2656 M27.5,1228.2656 L40.5,1243.2656 " fill="none" filter="url(#f3sfalm0503uw)" style="stroke:#A80036;stroke-width:2.0;"/><text fill="#000000" font-family="sans-serif" font-size="14" lengthAdjust="spacingAndGlyphs" textLength="41" x="60" y="86.752">Coach</text><ellipse cx="83.5" cy="15.2188" fill="#FEFECE" filter="url(#f3sfalm0503uw)" rx="8" ry="8" style="stroke:#A80036;stroke-width:2.0;"/><path d="M83.5,23.2188 L83.5,50.2188 M70.5,31.2188 L96.5,31.2188 M83.5,50.2188 L70.5,65.2188 M83.5,50.2188 L96.5,65.2188 " fill="none" filter="url(#f3sfalm0503uw)" style="stroke:#A80036;stroke-width:2.0;"/><text fill="#000000" font-family="sans-serif" font-size="14" lengthAdjust="spacingAndGlyphs" textLength="41" x="60" y="1180.1895">Coach</text><ellipse cx="83.5" cy="1193.2656" fill="#FEFECE" filter="url(#f3sfalm0503uw)" rx="8" ry="8" style="stroke:#A80036;stroke-width:2.0;"/><path d="M83.5,1201.2656 L83.5,1228.2656 M70.5,1209.2656 L96.5,1209.2656 M83.5,1228.2656 L70.5,1243.2656 M83.5,1228.2656 L96.5,1243.2656 " fill="none" filter="url(#f3sfalm0503uw)" style="stroke:#A80036;stroke-width:2.0;"/><text fill="#000000" font-family="sans-serif" font-size="14" lengthAdjust="spacingAndGlyphs" textLength="62" x="169.5" y="69.1426">Controller</text><text fill="#000000" font-family="sans-serif" font-size="14" lengthAdjust="spacingAndGlyphs" textLength="167" x="117" y="86.752">(emmulating Stream Deck)</text><path d="M183,26.6094 L183,50.6094 M183,38.6094 L200,38.6094 " fill="none" filter="url(#f3sfalm0503uw)" style="stroke:#A80036;stroke-width:2.0;"/><ellipse cx="212" cy="38.6094" fill="#FEFECE" filter="url(#f3sfalm0503uw)" rx="12" ry="12" style="stroke:#A80036;stroke-width:2.0;"/><text fill="#000000" font-family="sans-serif" font-size="14" lengthAdjust="spacingAndGlyphs" textLength="62" x="169.5" y="1180.1895">Controller</text><text fill="#000000" font-family="sans-serif" font-size="14" lengthAdjust="spacingAndGlyphs" textLength="167" x="117" y="1197.7988">(emmulating Stream Deck)</text><path d="M183,1204.875 L183,1228.875 M183,1216.875 L200,1216.875 " fill="none" filter="url(#f3sfalm0503uw)" style="stroke:#A80036;stroke-width:2.0;"/><ellipse cx="212" cy="1216.875" fill="#FEFECE" filter="url(#f3sfalm0503uw)" rx="12" ry="12" style="stroke:#A80036;stroke-width:2.0;"/><rect fill="#FEFECE" filter="url(#f3sfalm0503uw)" height="49.2188" style="stroke:#A80036;stroke-width:1.5;" width="86" x="335.5" y="1165.6563"/><text fill="#000000" font-family="sans-serif" font-size="14" lengthAdjust="spacingAndGlyphs" textLength="68" x="344.5" y="1187.1895">Dispatcher</text><text fill="#000000" font-family="sans-serif" font-size="14" lengthAdjust="spacingAndGlyphs" textLength="72" x="342.5" y="1204.7988">(Controller)</text><text fill="#000000" font-family="sans-serif" font-size="14" lengthAdjust="spacingAndGlyphs" textLength="47" x="447.5" y="69.1426">Service</text><text fill="#000000" font-family="sans-serif" font-size="14" lengthAdjust="spacingAndGlyphs" textLength="71" x="435.5" y="86.752">(Win/Linux)</text><ellipse cx="474" cy="38.6094" fill="#FEFECE" filter="url(#f3sfalm0503uw)" rx="12" ry="12" style="stroke:#A80036;stroke-width:2.0;"/><polygon fill="#A80036" points="470,26.6094,476,21.6094,474,26.6094,476,31.6094,470,26.6094" style="stroke:#A80036;stroke-width:1.0;"/><text fill="#000000" font-family="sans-serif" font-size="14" lengthAdjust="spacingAndGlyphs" textLength="47" x="447.5" y="1180.1895">Service</text><text fill="#000000" font-family="sans-serif" font-size="14" lengthAdjust="spacingAndGlyphs" textLength="71" x="435.5" y="1197.7988">(Win/Linux)</text><ellipse cx="474" cy="1216.875" fill="#FEFECE" filter="url(#f3sfalm0503uw)" rx="12" ry="12" style="stroke:#A80036;stroke-width:2.0;"/><polygon fill="#A80036" points="470,1204.875,476,1199.875,474,1204.875,476,1209.875,470,1204.875" style="stroke:#A80036;stroke-width:1.0;"/><rect fill="#FEFECE" filter="url(#f3sfalm0503uw)" height="49.2188" style="stroke:#A80036;stroke-width:1.5;" width="82" x="833" y="1165.6563"/><text fill="#000000" font-family="sans-serif" font-size="14" lengthAdjust="spacingAndGlyphs" textLength="68" x="840" y="1187.1895">Dispatcher</text><text fill="#000000" font-family="sans-serif" font-size="14" lengthAdjust="spacingAndGlyphs" textLength="57" x="845.5" y="1204.7988">(Service)</text><text fill="#000000" font-family="sans-serif" font-size="14" lengthAdjust="spacingAndGlyphs" textLength="72" x="953" y="51.5332">Consumers</text><text fill="#000000" font-family="sans-serif" font-size="14" lengthAdjust="spacingAndGlyphs" textLength="82" x="948" y="69.1426">(iPad/Mobile/</text><text fill="#000000" font-family="sans-serif" font-size="14" lengthAdjust="spacingAndGlyphs" textLength="120" x="929" y="86.752">Win10 Editing app)</text><path d="M971.5,9 L971.5,33 M971.5,21 L988.5,21 " fill="none" filter="url(#f3sfalm0503uw)" style="stroke:#A80036;stroke-width:2.0;"/><ellipse cx="1000.5" cy="21" fill="#FEFECE" filter="url(#f3sfalm0503uw)" rx="12" ry="12" style="stroke:#A80036;stroke-width:2.0;"/><text fill="#000000" font-family="sans-serif" font-size="14" lengthAdjust="spacingAndGlyphs" textLength="72" x="953" y="1180.1895">Consumers</text><text fill="#000000" font-family="sans-serif" font-size="14" lengthAdjust="spacingAndGlyphs" textLength="82" x="948" y="1197.7988">(iPad/Mobile/</text><text fill="#000000" font-family="sans-serif" font-size="14" lengthAdjust="spacingAndGlyphs" textLength="120" x="929" y="1215.4082">Win10 Editing app)</text><path d="M971.5,1222.4844 L971.5,1246.4844 M971.5,1234.4844 L988.5,1234.4844 " fill="none" filter="url(#f3sfalm0503uw)" style="stroke:#A80036;stroke-width:2.0;"/><ellipse cx="1000.5" cy="1234.4844" fill="#FEFECE" filter="url(#f3sfalm0503uw)" rx="12" ry="12" style="stroke:#A80036;stroke-width:2.0;"/><rect fill="#FEFECE" filter="url(#f3sfalm0503uw)" height="49.2188" style="stroke:#A80036;stroke-width:1.5;" width="89" x="1340.5" y="1165.6563"/><text fill="#000000" font-family="sans-serif" font-size="14" lengthAdjust="spacingAndGlyphs" textLength="68" x="1351" y="1187.1895">Dispatcher</text><text fill="#000000" font-family="sans-serif" font-size="14" lengthAdjust="spacingAndGlyphs" textLength="75" x="1347.5" y="1204.7988">(Consumer)</text><text fill="#000000" font-family="sans-serif" font-size="14" lengthAdjust="spacingAndGlyphs" textLength="52" x="1460.5" y="69.1426">Sources</text><text fill="#000000" font-family="sans-serif" font-size="14" lengthAdjust="spacingAndGlyphs" textLength="86" x="1443.5" y="86.752">(Android/iOS)</text><path d="M1469,26.6094 L1469,50.6094 M1469,38.6094 L1486,38.6094 " fill="none" filter="url(#f3sfalm0503uw)" style="stroke:#A80036;stroke-width:2.0;"/><ellipse cx="1498" cy="38.6094" fill="#FEFECE" filter="url(#f3sfalm0503uw)" rx="12" ry="12" style="stroke:#A80036;stroke-width:2.0;"/><text fill="#000000" font-family="sans-serif" font-size="14" lengthAdjust="spacingAndGlyphs" textLength="52" x="1460.5" y="1180.1895">Sources</text><text fill="#000000" font-family="sans-serif" font-size="14" lengthAdjust="spacingAndGlyphs" textLength="86" x="1443.5" y="1197.7988">(Android/iOS)</text><path d="M1469,1204.875 L1469,1228.875 M1469,1216.875 L1486,1216.875 " fill="none" filter="url(#f3sfalm0503uw)" style="stroke:#A80036;stroke-width:2.0;"/><ellipse cx="1498" cy="1216.875" fill="#FEFECE" filter="url(#f3sfalm0503uw)" rx="12" ry="12" style="stroke:#A80036;stroke-width:2.0;"/><rect fill="#FEFECE" filter="url(#f3sfalm0503uw)" height="49.2188" style="stroke:#A80036;stroke-width:1.5;" width="82" x="1754.5" y="1165.6563"/><text fill="#000000" font-family="sans-serif" font-size="14" lengthAdjust="spacingAndGlyphs" textLength="68" x="1761.5" y="1187.1895">Dispatcher</text><text fill="#000000" font-family="sans-serif" font-size="14" lengthAdjust="spacingAndGlyphs" textLength="55" x="1768" y="1204.7988">(Source)</text><text fill="#000000" font-family="sans-serif" font-size="14" lengthAdjust="spacingAndGlyphs" textLength="65" x="1850.5" y="1180.1895">Media File</text><ellipse cx="1886" cy="1199.2656" fill="#FEFECE" filter="url(#f3sfalm0503uw)" rx="12" ry="12" style="stroke:#A80036;stroke-width:2.0;"/><line style="stroke:#A80036;stroke-width:2.0;" x1="1874" x2="1898" y1="1213.2656" y2="1213.2656"/><text fill="#000000" font-family="sans-serif" font-size="14" lengthAdjust="spacingAndGlyphs" textLength="110" x="1931.5" y="1180.1895">Streaming Server</text><ellipse cx="1989.5" cy="1199.2656" fill="#FEFECE" filter="url(#f3sfalm0503uw)" rx="12" ry="12" style="stroke:#A80036;stroke-width:2.0;"/><line style="stroke:#A80036;stroke-width:2.0;" x1="1977.5" x2="2001.5" y1="1213.2656" y2="1213.2656"/><polygon fill="#A80036" points="323.5,118.1797,333.5,122.1797,323.5,126.1797,327.5,122.1797" style="stroke:#A80036;stroke-width:1.0;"/><line style="stroke:#A80036;stroke-width:1.0;" x1="203.5" x2="329.5" y1="122.1797" y2="122.1797"/><text fill="#000000" font-family="sans-serif" font-size="13" lengthAdjust="spacingAndGlyphs" textLength="93" x="210.5" y="117.3232">listen(port:8880)</text><rect fill="#FEFECE" filter="url(#f3sfalm0503uw)" height="49.2188" style="stroke:#A80036;stroke-width:1.5;" width="86" x="335.5" y="99.8281"/><text fill="#000000" font-family="sans-serif" font-size="14" lengthAdjust="spacingAndGlyphs" textLength="68" x="344.5" y="121.3613">Dispatcher</text><text fill="#000000" font-family="sans-serif" font-size="14" lengthAdjust="spacingAndGlyphs" textLength="72" x="342.5" y="138.9707">(Controller)</text><polygon fill="#A80036" points="821,182.3984,831,186.3984,821,190.3984,825,186.3984" style="stroke:#A80036;stroke-width:1.0;"/><line style="stroke:#A80036;stroke-width:1.0;" x1="474" x2="827" y1="186.3984" y2="186.3984"/><text fill="#000000" font-family="sans-serif" font-size="13" lengthAdjust="spacingAndGlyphs" textLength="93" x="481" y="181.542">listen(port:8880)</text><rect fill="#FEFECE" filter="url(#f3sfalm0503uw)" height="49.2188" style="stroke:#A80036;stroke-width:1.5;" width="82" x="833" y="164.0469"/><text fill="#000000" font-family="sans-serif" font-size="14" lengthAdjust="spacingAndGlyphs" textLength="68" x="840" y="185.5801">Dispatcher</text><text fill="#000000" font-family="sans-serif" font-size="14" lengthAdjust="spacingAndGlyphs" textLength="57" x="845.5" y="203.1895">(Service)</text><polygon fill="#A80036" points="1328.5,246.6172,1338.5,250.6172,1328.5,254.6172,1332.5,250.6172" style="stroke:#A80036;stroke-width:1.0;"/><line style="stroke:#A80036;stroke-width:1.0;" x1="992" x2="1334.5" y1="250.6172" y2="250.6172"/><text fill="#000000" font-family="sans-serif" font-size="13" lengthAdjust="spacingAndGlyphs" textLength="93" x="999" y="245.7607">listen(port:8880)</text><rect fill="#FEFECE" filter="url(#f3sfalm0503uw)" height="49.2188" style="stroke:#A80036;stroke-width:1.5;" width="89" x="1340.5" y="228.2656"/><text fill="#000000" font-family="sans-serif" font-size="14" lengthAdjust="spacingAndGlyphs" textLength="68" x="1351" y="249.7988">Dispatcher</text><text fill="#000000" font-family="sans-serif" font-size="14" lengthAdjust="spacingAndGlyphs" textLength="75" x="1347.5" y="267.4082">(Consumer)</text><polygon fill="#A80036" points="887,310.8359,877,314.8359,887,318.8359,883,314.8359" style="stroke:#A80036;stroke-width:1.0;"/><line style="stroke:#A80036;stroke-width:1.0;" x1="881" x2="1386" y1="314.8359" y2="314.8359"/><text fill="#000000" font-family="sans-serif" font-size="13" lengthAdjust="spacingAndGlyphs" textLength="222" x="893" y="309.9795">zmq(subscribe, {event, priority, token})</text><polygon fill="#A80036" points="1742.5,341.1875,1752.5,345.1875,1742.5,349.1875,1746.5,345.1875" style="stroke:#A80036;stroke-width:1.0;"/><line style="stroke:#A80036;stroke-width:1.0;" x1="1489.5" x2="1748.5" y1="345.1875" y2="345.1875"/><text fill="#000000" font-family="sans-serif" font-size="13" lengthAdjust="spacingAndGlyphs" textLength="93" x="1496.5" y="340.3311">listen(port:8880)</text><rect fill="#FEFECE" filter="url(#f3sfalm0503uw)" height="49.2188" style="stroke:#A80036;stroke-width:1.5;" width="82" x="1754.5" y="322.8359"/><text fill="#000000" font-family="sans-serif" font-size="14" lengthAdjust="spacingAndGlyphs" textLength="68" x="1761.5" y="344.3691">Dispatcher</text><text fill="#000000" font-family="sans-serif" font-size="14" lengthAdjust="spacingAndGlyphs" textLength="55" x="1768" y="361.9785">(Source)</text><polygon fill="#A80036" points="191.5,405.4063,201.5,409.4063,191.5,413.4063,195.5,409.4063" style="stroke:#A80036;stroke-width:1.0;"/><line style="stroke:#A80036;stroke-width:1.0;" x1="27.5" x2="197.5" y1="409.4063" y2="409.4063"/><text fill="#000000" font-family="sans-serif" font-size="13" lengthAdjust="spacingAndGlyphs" textLength="88" x="34.5" y="404.5498">startRecording)</text><polygon fill="#A80036" points="368.5,435.7578,378.5,439.7578,368.5,443.7578,372.5,439.7578" style="stroke:#A80036;stroke-width:1.0;"/><line style="stroke:#A80036;stroke-width:1.0;stroke-dasharray:2.0,2.0;" x1="203.5" x2="374.5" y1="439.7578" y2="439.7578"/><text fill="#000000" font-family="sans-serif" font-size="13" lengthAdjust="spacingAndGlyphs" textLength="153" x="210.5" y="434.9014">send(to:source, msg:start)</text><polygon fill="#A80036" points="1785.5,466.1094,1795.5,470.1094,1785.5,474.1094,1789.5,470.1094" style="stroke:#A80036;stroke-width:1.0;"/><line style="stroke:#A80036;stroke-width:1.0;stroke-dasharray:2.0,2.0;" x1="380.5" x2="1791.5" y1="470.1094" y2="470.1094"/><text fill="#000000" font-family="sans-serif" font-size="13" lengthAdjust="spacingAndGlyphs" textLength="88" x="387.5" y="465.2529">zmq(msg:start)</text><polygon fill="#A80036" points="1500.5,496.4609,1490.5,500.4609,1500.5,504.4609,1496.5,500.4609" style="stroke:#A80036;stroke-width:1.0;"/><line style="stroke:#A80036;stroke-width:1.0;stroke-dasharray:2.0,2.0;" x1="1494.5" x2="1796.5" y1="500.4609" y2="500.4609"/><text fill="#000000" font-family="sans-serif" font-size="13" lengthAdjust="spacingAndGlyphs" textLength="122" x="1506.5" y="495.6045">dispatch(action:start)</text><polygon fill="#A80036" points="1838.5,526.8125,1848.5,530.8125,1838.5,534.8125,1842.5,530.8125" style="stroke:#A80036;stroke-width:1.0;"/><line style="stroke:#A80036;stroke-width:1.0;" x1="1489.5" x2="1844.5" y1="530.8125" y2="530.8125"/><text fill="#000000" font-family="sans-serif" font-size="13" lengthAdjust="spacingAndGlyphs" textLength="98" x="1496.5" y="525.9561">create(metadata)</text><text fill="#000000" font-family="sans-serif" font-size="14" lengthAdjust="spacingAndGlyphs" textLength="65" x="1850.5" y="554.9941">Media File</text><ellipse cx="1886" cy="524.4609" fill="#FEFECE" filter="url(#f3sfalm0503uw)" rx="12" ry="12" style="stroke:#A80036;stroke-width:2.0;"/><line style="stroke:#A80036;stroke-width:2.0;" x1="1874" x2="1898" y1="538.4609" y2="538.4609"/><polygon fill="#A80036" points="1785.5,586.4219,1795.5,590.4219,1785.5,594.4219,1789.5,590.4219" style="stroke:#A80036;stroke-width:1.0;"/><line style="stroke:#A80036;stroke-width:1.0;" x1="1489.5" x2="1791.5" y1="590.4219" y2="590.4219"/><text fill="#000000" font-family="sans-serif" font-size="13" lengthAdjust="spacingAndGlyphs" textLength="284" x="1496.5" y="585.5654">send(to:service, msg:{mediaAvailable, metadata})</text><polygon fill="#A80036" points="887,616.7734,877,620.7734,887,624.7734,883,620.7734" style="stroke:#A80036;stroke-width:1.0;"/><line style="stroke:#A80036;stroke-width:1.0;stroke-dasharray:2.0,2.0;" x1="881" x2="1796.5" y1="620.7734" y2="620.7734"/><text fill="#000000" font-family="sans-serif" font-size="13" lengthAdjust="spacingAndGlyphs" textLength="218" x="893" y="615.917">zmq(msg:{mediaAvailable, metadata})</text><polygon fill="#A80036" points="485,647.125,475,651.125,485,655.125,481,651.125" style="stroke:#A80036;stroke-width:1.0;"/><line style="stroke:#A80036;stroke-width:1.0;stroke-dasharray:2.0,2.0;" x1="479" x2="875" y1="651.125" y2="651.125"/><text fill="#000000" font-family="sans-serif" font-size="13" lengthAdjust="spacingAndGlyphs" textLength="221" x="491" y="646.2686">dispatch(action:fetchMedia, metadata)</text><polygon fill="#A80036" points="1477.5,677.4766,1487.5,681.4766,1477.5,685.4766,1481.5,681.4766" style="stroke:#A80036;stroke-width:1.0;"/><line style="stroke:#A80036;stroke-width:1.0;" x1="474" x2="1483.5" y1="681.4766" y2="681.4766"/><text fill="#000000" font-family="sans-serif" font-size="13" lengthAdjust="spacingAndGlyphs" textLength="125" x="481" y="676.6201">fetchMedia(metadata)</text><polygon fill="#A80036" points="485,707.8281,475,711.8281,485,715.8281,481,711.8281" style="stroke:#A80036;stroke-width:1.0;"/><line style="stroke:#A80036;stroke-width:1.0;stroke-dasharray:2.0,2.0;" x1="479" x2="1488.5" y1="711.8281" y2="711.8281"/><text fill="#000000" font-family="sans-serif" font-size="13" lengthAdjust="spacingAndGlyphs" textLength="81" x="491" y="706.9717">return(stream)</text><polygon fill="#A80036" points="864,738.1797,874,742.1797,864,746.1797,868,742.1797" style="stroke:#A80036;stroke-width:1.0;"/><line style="stroke:#A80036;stroke-width:1.0;" x1="474" x2="870" y1="742.1797" y2="742.1797"/><text fill="#000000" font-family="sans-serif" font-size="13" lengthAdjust="spacingAndGlyphs" textLength="327" x="481" y="737.3232">send(to:&lt;subscribers&gt;, msg:{mediaAvailable}, metadata)</text><polygon fill="#A80036" points="1375,768.5313,1385,772.5313,1375,776.5313,1379,772.5313" style="stroke:#A80036;stroke-width:1.0;"/><line style="stroke:#A80036;stroke-width:1.0;stroke-dasharray:2.0,2.0;" x1="876" x2="1381" y1="772.5313" y2="772.5313"/><text fill="#000000" font-family="sans-serif" font-size="13" lengthAdjust="spacingAndGlyphs" textLength="181" x="883" y="767.6748">zmq(mediaAvailable, metadata)</text><polygon fill="#A80036" points="1003,798.8828,993,802.8828,1003,806.8828,999,802.8828" style="stroke:#A80036;stroke-width:1.0;"/><line style="stroke:#A80036;stroke-width:1.0;" x1="997" x2="1386" y1="802.8828" y2="802.8828"/><text fill="#000000" font-family="sans-serif" font-size="13" lengthAdjust="spacingAndGlyphs" textLength="147" x="1009" y="798.0264">dispatch(showNewMedia)</text><polygon fill="#A80036" points="980,829.2344,990,833.2344,980,837.2344,984,833.2344" style="stroke:#A80036;stroke-width:1.0;"/><line style="stroke:#A80036;stroke-width:1.0;" x1="83.5" x2="986" y1="833.2344" y2="833.2344"/><text fill="#000000" font-family="sans-serif" font-size="13" lengthAdjust="spacingAndGlyphs" textLength="104" x="90.5" y="828.3779">open(mediaDetail)</text><line style="stroke:#A80036;stroke-width:1.0;" x1="992" x2="1034" y1="863.5859" y2="863.5859"/><line style="stroke:#A80036;stroke-width:1.0;" x1="1034" x2="1034" y1="863.5859" y2="876.5859"/><line style="stroke:#A80036;stroke-width:1.0;" x1="993" x2="1034" y1="876.5859" y2="876.5859"/><polygon fill="#A80036" points="1003,872.5859,993,876.5859,1003,880.5859,999,876.5859" style="stroke:#A80036;stroke-width:1.0;"/><text fill="#000000" font-family="sans-serif" font-size="13" lengthAdjust="spacingAndGlyphs" textLength="231" x="999" y="858.7295">showMediaDetail(metadata, thumbnails)</text><polygon fill="#A80036" points="980,902.9375,990,906.9375,980,910.9375,984,906.9375" style="stroke:#A80036;stroke-width:1.0;"/><line style="stroke:#A80036;stroke-width:1.0;" x1="83.5" x2="986" y1="906.9375" y2="906.9375"/><text fill="#000000" font-family="sans-serif" font-size="13" lengthAdjust="spacingAndGlyphs" textLength="235" x="90.5" y="902.0811">peek(atTime:[02:55:80], duration:[02:00])</text><polygon fill="#A80036" points="1375,933.2891,1385,937.2891,1375,941.2891,1379,937.2891" style="stroke:#A80036;stroke-width:1.0;"/><line style="stroke:#A80036;stroke-width:1.0;stroke-dasharray:2.0,2.0;" x1="992" x2="1381" y1="937.2891" y2="937.2891"/><text fill="#000000" font-family="sans-serif" font-size="13" lengthAdjust="spacingAndGlyphs" textLength="371" x="999" y="932.4326">send(to:service, msg:{peek, atTime:[02:55:80], duration:[02:00]})</text><polygon fill="#A80036" points="887,963.6406,877,967.6406,887,971.6406,883,967.6406" style="stroke:#A80036;stroke-width:1.0;"/><line style="stroke:#A80036;stroke-width:1.0;stroke-dasharray:2.0,2.0;" x1="881" x2="1386" y1="967.6406" y2="967.6406"/><text fill="#000000" font-family="sans-serif" font-size="13" lengthAdjust="spacingAndGlyphs" textLength="268" x="893" y="962.7842">zmq(peek, atTime:[02:55:80], duration:[02:00])</text><polygon fill="#A80036" points="485,993.9922,475,997.9922,485,1001.9922,481,997.9922" style="stroke:#A80036;stroke-width:1.0;"/><line style="stroke:#A80036;stroke-width:1.0;" x1="479" x2="875" y1="997.9922" y2="997.9922"/><text fill="#000000" font-family="sans-serif" font-size="13" lengthAdjust="spacingAndGlyphs" textLength="378" x="491" y="993.1357">dispatch(createStreamServer, atTime:[02:55:80], duration:[02:00])</text><polygon fill="#A80036" points="1919.5,1024.3438,1929.5,1028.3438,1919.5,1032.3438,1923.5,1028.3438" style="stroke:#A80036;stroke-width:1.0;"/><line style="stroke:#A80036;stroke-width:1.0;" x1="474" x2="1925.5" y1="1028.3438" y2="1028.3438"/><text fill="#000000" font-family="sans-serif" font-size="13" lengthAdjust="spacingAndGlyphs" textLength="232" x="481" y="1023.4873">host(atTime:[02:55:80], duration:[02:00])</text><text fill="#000000" font-family="sans-serif" font-size="14" lengthAdjust="spacingAndGlyphs" textLength="110" x="1931.5" y="1052.5254">Streaming Server</text><ellipse cx="1989.5" cy="1021.9922" fill="#FEFECE" filter="url(#f3sfalm0503uw)" rx="12" ry="12" style="stroke:#A80036;stroke-width:2.0;"/><line style="stroke:#A80036;stroke-width:2.0;" x1="1977.5" x2="2001.5" y1="1035.9922" y2="1035.9922"/><polygon fill="#A80036" points="864,1083.9531,874,1087.9531,864,1091.9531,868,1087.9531" style="stroke:#A80036;stroke-width:1.0;"/><line style="stroke:#A80036;stroke-width:1.0;" x1="474" x2="870" y1="1087.9531" y2="1087.9531"/><text fill="#000000" font-family="sans-serif" font-size="13" lengthAdjust="spacingAndGlyphs" textLength="229" x="481" y="1083.0967">send(to:&lt;subscribers&gt;, strm:{endpoint})</text><polygon fill="#A80036" points="1375,1114.3047,1385,1118.3047,1375,1122.3047,1379,1118.3047" style="stroke:#A80036;stroke-width:1.0;"/><line style="stroke:#A80036;stroke-width:1.0;stroke-dasharray:2.0,2.0;" x1="876" x2="1381" y1="1118.3047" y2="1118.3047"/><text fill="#000000" font-family="sans-serif" font-size="13" lengthAdjust="spacingAndGlyphs" textLength="120" x="883" y="1113.4482">zmq(strm:{endpoint})</text><polygon fill="#A80036" points="1003,1144.6563,993,1148.6563,1003,1152.6563,999,1148.6563" style="stroke:#A80036;stroke-width:1.0;"/><line style="stroke:#A80036;stroke-width:1.0;" x1="997" x2="1386" y1="1148.6563" y2="1148.6563"/><text fill="#000000" font-family="sans-serif" font-size="13" lengthAdjust="spacingAndGlyphs" textLength="215" x="1009" y="1143.7998">dispatch(action:play, strm:{endpoint})</text><!--MD5=[f28f1e91453817e308b3701cb09cb9de]
@startuml Message Queue

actor admin as "Admin"
actor coach as "Coach"
boundary emu as "Controller\n(emmulating Stream Deck)"
create mq_emu as "Dispatcher\n(Controller)"
emu -> mq_emu: listen(port:8880)

control srv as "Service\n(Win/Linux)"
create mq_srv as "Dispatcher\n(Service)"
srv -> mq_srv: listen(port:8880)

boundary cns as "Consumers\n(iPad/Mobile/\nWin10 Editing app)"
create mq_cns as "Dispatcher\n(Consumer)"
cns -> mq_cns: listen(port:8880)

mq_cns -> mq_srv: zmq(subscribe, {event, priority, token})

boundary src as "Sources\n(Android/iOS)"
create mq_src as "Dispatcher\n(Source)"
src -> mq_src: listen(port:8880)

admin -> emu: startRecording)
emu - -> mq_emu: send(to:source, msg:start)
mq_emu - -> mq_src: zmq(msg:start)
mq_src - -> src: dispatch(action:start)
create entity vid as "Media File"
src -> vid: create(metadata)
src -> mq_src: send(to:service, msg:{mediaAvailable, metadata})
mq_src - -> mq_srv: zmq(msg:{mediaAvailable, metadata})

mq_srv - -> srv: dispatch(action:fetchMedia, metadata)
srv -> src: fetchMedia(metadata)
src - -> srv: return(stream)
srv -> mq_srv: send(to:<subscribers>, msg:{mediaAvailable}, metadata)
mq_srv - -> mq_cns: zmq(mediaAvailable, metadata)
mq_cns -> cns: dispatch(showNewMedia)
coach -> cns: open(mediaDetail)
cns -> cns: showMediaDetail(metadata, thumbnails)
coach -> cns: peek(atTime:[02:55:80], duration:[02:00])
cns - -> mq_cns: send(to:service, msg:{peek, atTime:[02:55:80], duration:[02:00]})
mq_cns - -> mq_srv: zmq(peek, atTime:[02:55:80], duration:[02:00])
mq_srv -> srv: dispatch(createStreamServer, atTime:[02:55:80], duration:[02:00])
create entity strm as "Streaming Server"
srv -> strm: host(atTime:[02:55:80], duration:[02:00])
srv -> mq_srv: send(to:<subscribers>, strm:{endpoint})
mq_srv - -> mq_cns: zmq(strm:{endpoint})
mq_cns -> cns: dispatch(action:play, strm:{endpoint})
@enduml

PlantUML version 1.2020.22(Sun Dec 06 15:06:27 IST 2020)
(GPL source distribution)
Java Runtime: OpenJDK Runtime Environment
JVM: OpenJDK 64-Bit Server VM
Default Encoding: Cp1252
Language: en
Country: IN
--></g></svg>