<?xml version="1.0" encoding="UTF-8" standalone="no"?><svg xmlns="http://www.w3.org/2000/svg" xmlns:xlink="http://www.w3.org/1999/xlink" contentScriptType="application/ecmascript" contentStyleType="text/css" height="1476px" preserveAspectRatio="none" style="width:1008px;height:1476px;" version="1.1" viewBox="0 0 1008 1476" width="1008px" zoomAndPan="magnify"><defs><filter height="300%" id="fliar19nuepla" width="300%" x="-1" y="-1"><feGaussianBlur result="blurOut" stdDeviation="2.0"/><feColorMatrix in="blurOut" result="blurOut2" type="matrix" values="0 0 0 0 0 0 0 0 0 0 0 0 0 0 0 0 0 0 .4 0"/><feOffset dx="4.0" dy="4.0" in="blurOut2" result="blurOut3"/><feBlend in="SourceGraphic" in2="blurOut3" mode="normal"/></filter></defs><g><text fill="#000000" font-family="sans-serif" font-size="18" lengthAdjust="spacingAndGlyphs" textLength="141" x="435.5" y="30.6855">RXCALIBRATION</text><rect fill="#FFFFFF" filter="url(#fliar19nuepla)" height="625.0313" style="stroke: #000000; stroke-width: 2.0;" width="934" x="20" y="627.7813"/><rect fill="#FFFFFF" filter="url(#fliar19nuepla)" height="549.3281" style="stroke: #000000; stroke-width: 2.0;" width="914" x="30" y="653.1328"/><rect fill="#FFFFFF" filter="url(#fliar19nuepla)" height="213.4609" style="stroke: #000000; stroke-width: 2.0;" width="894" x="40" y="982"/><line style="stroke: #A80036; stroke-width: 1.0; stroke-dasharray: 5.0,5.0;" x1="22" x2="22" y1="126.25" y2="1391.2188"/><line style="stroke: #A80036; stroke-width: 1.0; stroke-dasharray: 5.0,5.0;" x1="77" x2="77" y1="126.25" y2="1391.2188"/><line style="stroke: #A80036; stroke-width: 1.0; stroke-dasharray: 5.0,5.0;" x1="465" x2="465" y1="126.25" y2="1391.2188"/><line style="stroke: #A80036; stroke-width: 1.0; stroke-dasharray: 5.0,5.0;" x1="529" x2="529" y1="126.25" y2="1391.2188"/><line style="stroke: #A80036; stroke-width: 1.0; stroke-dasharray: 5.0,5.0;" x1="589" x2="589" y1="570.625" y2="1391.2188"/><line style="stroke: #A80036; stroke-width: 1.0; stroke-dasharray: 5.0,5.0;" x1="689" x2="689" y1="126.25" y2="1391.2188"/><line style="stroke: #A80036; stroke-width: 1.0; stroke-dasharray: 5.0,5.0;" x1="797" x2="797" y1="126.25" y2="1391.2188"/><line style="stroke: #A80036; stroke-width: 1.0; stroke-dasharray: 5.0,5.0;" x1="885" x2="885" y1="126.25" y2="1391.2188"/><line style="stroke: #A80036; stroke-width: 1.0; stroke-dasharray: 5.0,5.0;" x1="970" x2="970" y1="126.25" y2="1391.2188"/><text fill="#000000" font-family="sans-serif" font-size="14" lengthAdjust="spacingAndGlyphs" textLength="29" x="5" y="123.1738">User</text><ellipse cx="22.5" cy="51.6406" fill="#FEFECE" filter="url(#fliar19nuepla)" rx="8" ry="8" style="stroke: #A80036; stroke-width: 2.0;"/><path d="M22.5,59.6406 L22.5,86.6406 M9.5,67.6406 L35.5,67.6406 M22.5,86.6406 L9.5,101.6406 M22.5,86.6406 L35.5,101.6406 " fill="none" filter="url(#fliar19nuepla)" style="stroke: #A80036; stroke-width: 2.0;"/><text fill="#000000" font-family="sans-serif" font-size="14" lengthAdjust="spacingAndGlyphs" textLength="29" x="5" y="1404.752">User</text><ellipse cx="22.5" cy="1417.8281" fill="#FEFECE" filter="url(#fliar19nuepla)" rx="8" ry="8" style="stroke: #A80036; stroke-width: 2.0;"/><path d="M22.5,1425.8281 L22.5,1452.8281 M9.5,1433.8281 L35.5,1433.8281 M22.5,1452.8281 L9.5,1467.8281 M22.5,1452.8281 L35.5,1467.8281 " fill="none" filter="url(#fliar19nuepla)" style="stroke: #A80036; stroke-width: 2.0;"/><rect fill="#FEFECE" filter="url(#fliar19nuepla)" height="31.6094" style="stroke: #A80036; stroke-width: 1.5;" width="51" x="50" y="89.6406"/><text fill="#000000" font-family="sans-serif" font-size="14" lengthAdjust="spacingAndGlyphs" textLength="37" x="57" y="111.1738">RxCal</text><rect fill="#FEFECE" filter="url(#fliar19nuepla)" height="31.6094" style="stroke: #A80036; stroke-width: 1.5;" width="51" x="50" y="1390.2188"/><text fill="#000000" font-family="sans-serif" font-size="14" lengthAdjust="spacingAndGlyphs" textLength="37" x="57" y="1411.752">RxCal</text><text fill="#000000" font-family="sans-serif" font-size="14" lengthAdjust="spacingAndGlyphs" textLength="39" x="441" y="105.5645">Signal</text><text fill="#000000" font-family="sans-serif" font-size="14" lengthAdjust="spacingAndGlyphs" textLength="65" x="430" y="123.1738">Generator</text><path d="M445,63.0313 L445,87.0313 M445,75.0313 L462,75.0313 " fill="none" filter="url(#fliar19nuepla)" style="stroke: #A80036; stroke-width: 2.0;"/><ellipse cx="474" cy="75.0313" fill="#FEFECE" filter="url(#fliar19nuepla)" rx="12" ry="12" style="stroke: #A80036; stroke-width: 2.0;"/><text fill="#000000" font-family="sans-serif" font-size="14" lengthAdjust="spacingAndGlyphs" textLength="39" x="441" y="1404.752">Signal</text><text fill="#000000" font-family="sans-serif" font-size="14" lengthAdjust="spacingAndGlyphs" textLength="65" x="430" y="1422.3613">Generator</text><path d="M445,1429.4375 L445,1453.4375 M445,1441.4375 L462,1441.4375 " fill="none" filter="url(#fliar19nuepla)" style="stroke: #A80036; stroke-width: 2.0;"/><ellipse cx="474" cy="1441.4375" fill="#FEFECE" filter="url(#fliar19nuepla)" rx="12" ry="12" style="stroke: #A80036; stroke-width: 2.0;"/><rect fill="#FEFECE" filter="url(#fliar19nuepla)" height="31.6094" style="stroke: #A80036; stroke-width: 1.5;" width="33" x="511" y="89.6406"/><text fill="#000000" font-family="sans-serif" font-size="14" lengthAdjust="spacingAndGlyphs" textLength="19" x="518" y="111.1738">DB</text><rect fill="#FEFECE" filter="url(#fliar19nuepla)" height="31.6094" style="stroke: #A80036; stroke-width: 1.5;" width="33" x="511" y="1390.2188"/><text fill="#000000" font-family="sans-serif" font-size="14" lengthAdjust="spacingAndGlyphs" textLength="19" x="518" y="1411.752">DB</text><text fill="#000000" font-family="sans-serif" font-size="14" lengthAdjust="spacingAndGlyphs" textLength="56" x="558" y="1404.752">Freq List</text><ellipse cx="589" cy="1423.8281" fill="#FEFECE" filter="url(#fliar19nuepla)" rx="12" ry="12" style="stroke: #A80036; stroke-width: 2.0;"/><line style="stroke: #A80036; stroke-width: 2.0;" x1="577" x2="601" y1="1437.8281" y2="1437.8281"/><rect fill="#FEFECE" filter="url(#fliar19nuepla)" height="31.6094" style="stroke: #A80036; stroke-width: 1.5;" width="114" x="630" y="89.6406"/><text fill="#000000" font-family="sans-serif" font-size="14" lengthAdjust="spacingAndGlyphs" textLength="100" x="637" y="111.1738">Hardware Client</text><rect fill="#FEFECE" filter="url(#fliar19nuepla)" height="31.6094" style="stroke: #A80036; stroke-width: 1.5;" width="114" x="630" y="1390.2188"/><text fill="#000000" font-family="sans-serif" font-size="14" lengthAdjust="spacingAndGlyphs" textLength="100" x="637" y="1411.752">Hardware Client</text><rect fill="#FEFECE" filter="url(#fliar19nuepla)" height="31.6094" style="stroke: #A80036; stroke-width: 1.5;" width="75" x="758" y="89.6406"/><text fill="#000000" font-family="sans-serif" font-size="14" lengthAdjust="spacingAndGlyphs" textLength="61" x="765" y="111.1738">BIT Client</text><rect fill="#FEFECE" filter="url(#fliar19nuepla)" height="31.6094" style="stroke: #A80036; stroke-width: 1.5;" width="75" x="758" y="1390.2188"/><text fill="#000000" font-family="sans-serif" font-size="14" lengthAdjust="spacingAndGlyphs" textLength="61" x="765" y="1411.752">BIT Client</text><rect fill="#FEFECE" filter="url(#fliar19nuepla)" height="31.6094" style="stroke: #A80036; stroke-width: 1.5;" width="73" x="847" y="89.6406"/><text fill="#000000" font-family="sans-serif" font-size="14" lengthAdjust="spacingAndGlyphs" textLength="59" x="854" y="111.1738">RF Client</text><rect fill="#FEFECE" filter="url(#fliar19nuepla)" height="31.6094" style="stroke: #A80036; stroke-width: 1.5;" width="73" x="847" y="1390.2188"/><text fill="#000000" font-family="sans-serif" font-size="14" lengthAdjust="spacingAndGlyphs" textLength="59" x="854" y="1411.752">RF Client</text><text fill="#000000" font-family="sans-serif" font-size="14" lengthAdjust="spacingAndGlyphs" textLength="67" x="934" y="123.1738">SDR-Omni</text><path d="M950,80.6406 L950,104.6406 M950,92.6406 L967,92.6406 " fill="none" filter="url(#fliar19nuepla)" style="stroke: #A80036; stroke-width: 2.0;"/><ellipse cx="979" cy="92.6406" fill="#FEFECE" filter="url(#fliar19nuepla)" rx="12" ry="12" style="stroke: #A80036; stroke-width: 2.0;"/><text fill="#000000" font-family="sans-serif" font-size="14" lengthAdjust="spacingAndGlyphs" textLength="67" x="934" y="1404.752">SDR-Omni</text><path d="M950,1411.8281 L950,1435.8281 M950,1423.8281 L967,1423.8281 " fill="none" filter="url(#fliar19nuepla)" style="stroke: #A80036; stroke-width: 2.0;"/><ellipse cx="979" cy="1423.8281" fill="#FEFECE" filter="url(#fliar19nuepla)" rx="12" ry="12" style="stroke: #A80036; stroke-width: 2.0;"/><polygon fill="#A80036" points="65.5,154.6016,75.5,158.6016,65.5,162.6016,69.5,158.6016" style="stroke: #A80036; stroke-width: 1.0;"/><line style="stroke: #A80036; stroke-width: 1.0;" x1="22.5" x2="71.5" y1="158.6016" y2="158.6016"/><text fill="#000000" font-family="sans-serif" font-size="13" lengthAdjust="spacingAndGlyphs" textLength="26" x="29.5" y="153.7451">run()</text><polygon fill="#A80036" points="453.5,184.9531,463.5,188.9531,453.5,192.9531,457.5,188.9531" style="stroke: #A80036; stroke-width: 1.0;"/><line style="stroke: #A80036; stroke-width: 1.0;" x1="77.5" x2="459.5" y1="188.9531" y2="188.9531"/><text fill="#000000" font-family="sans-serif" font-size="13" lengthAdjust="spacingAndGlyphs" textLength="43" x="84.5" y="184.0967">CLEAR</text><polygon fill="#A80036" points="453.5,215.3047,463.5,219.3047,453.5,223.3047,457.5,219.3047" style="stroke: #A80036; stroke-width: 1.0;"/><line style="stroke: #A80036; stroke-width: 1.0;" x1="77.5" x2="459.5" y1="219.3047" y2="219.3047"/><text fill="#000000" font-family="sans-serif" font-size="13" lengthAdjust="spacingAndGlyphs" textLength="43" x="84.5" y="214.4482">RESET</text><polygon fill="#A80036" points="453.5,245.6563,463.5,249.6563,453.5,253.6563,457.5,249.6563" style="stroke: #A80036; stroke-width: 1.0;"/><line style="stroke: #A80036; stroke-width: 1.0;" x1="77.5" x2="459.5" y1="249.6563" y2="249.6563"/><text fill="#000000" font-family="sans-serif" font-size="13" lengthAdjust="spacingAndGlyphs" textLength="91" x="84.5" y="244.7998">AM_MOD(OFF)</text><polygon fill="#A80036" points="453.5,276.0078,463.5,280.0078,453.5,284.0078,457.5,280.0078" style="stroke: #A80036; stroke-width: 1.0;"/><line style="stroke: #A80036; stroke-width: 1.0;" x1="77.5" x2="459.5" y1="280.0078" y2="280.0078"/><text fill="#000000" font-family="sans-serif" font-size="13" lengthAdjust="spacingAndGlyphs" textLength="90" x="84.5" y="275.1514">FM_MOD(OFF)</text><polygon fill="#A80036" points="453.5,306.3594,463.5,310.3594,453.5,314.3594,457.5,310.3594" style="stroke: #A80036; stroke-width: 1.0;"/><line style="stroke: #A80036; stroke-width: 1.0;" x1="77.5" x2="459.5" y1="310.3594" y2="310.3594"/><text fill="#000000" font-family="sans-serif" font-size="13" lengthAdjust="spacingAndGlyphs" textLength="100" x="84.5" y="305.5029">PHM_MOD(OFF)</text><polygon fill="#A80036" points="453.5,336.7109,463.5,340.7109,453.5,344.7109,457.5,340.7109" style="stroke: #A80036; stroke-width: 1.0;"/><line style="stroke: #A80036; stroke-width: 1.0;" x1="77.5" x2="459.5" y1="340.7109" y2="340.7109"/><text fill="#000000" font-family="sans-serif" font-size="13" lengthAdjust="spacingAndGlyphs" textLength="114" x="84.5" y="335.8545">PULSE_MOD(OFF)</text><polygon fill="#A80036" points="453.5,367.0625,463.5,371.0625,453.5,375.0625,457.5,371.0625" style="stroke: #A80036; stroke-width: 1.0;"/><line style="stroke: #A80036; stroke-width: 1.0;" x1="77.5" x2="459.5" y1="371.0625" y2="371.0625"/><text fill="#000000" font-family="sans-serif" font-size="13" lengthAdjust="spacingAndGlyphs" textLength="124" x="84.5" y="366.2061">POW_OFFSET(OFF)</text><polygon fill="#A80036" points="453.5,397.4141,463.5,401.4141,453.5,405.4141,457.5,401.4141" style="stroke: #A80036; stroke-width: 1.0;"/><line style="stroke: #A80036; stroke-width: 1.0;" x1="77.5" x2="459.5" y1="401.4141" y2="401.4141"/><text fill="#000000" font-family="sans-serif" font-size="13" lengthAdjust="spacingAndGlyphs" textLength="121" x="84.5" y="396.5576">SET_PWR_AMPL(0)</text><polygon fill="#A80036" points="453.5,427.7656,463.5,431.7656,453.5,435.7656,457.5,431.7656" style="stroke: #A80036; stroke-width: 1.0;"/><line style="stroke: #A80036; stroke-width: 1.0;" x1="77.5" x2="459.5" y1="431.7656" y2="431.7656"/><text fill="#000000" font-family="sans-serif" font-size="13" lengthAdjust="spacingAndGlyphs" textLength="109" x="84.5" y="426.9092">SET_FREQ(1GHz)</text><polygon fill="#A80036" points="453.5,458.1172,463.5,462.1172,453.5,466.1172,457.5,462.1172" style="stroke: #A80036; stroke-width: 1.0;"/><line style="stroke: #A80036; stroke-width: 1.0;" x1="77.5" x2="459.5" y1="462.1172" y2="462.1172"/><text fill="#000000" font-family="sans-serif" font-size="13" lengthAdjust="spacingAndGlyphs" textLength="118" x="84.5" y="457.2607">SET_RF_OUTP(ON)</text><polygon fill="#A80036" points="517.5,488.4688,527.5,492.4688,517.5,496.4688,521.5,492.4688" style="stroke: #A80036; stroke-width: 1.0;"/><line style="stroke: #A80036; stroke-width: 1.0;" x1="77.5" x2="523.5" y1="492.4688" y2="492.4688"/><text fill="#000000" font-family="sans-serif" font-size="13" lengthAdjust="spacingAndGlyphs" textLength="83" x="84.5" y="487.6123">fetchFreqList()</text><polygon fill="#A80036" points="88.5,518.8203,78.5,522.8203,88.5,526.8203,84.5,522.8203" style="stroke: #A80036; stroke-width: 1.0;"/><line style="stroke: #A80036; stroke-width: 1.0; stroke-dasharray: 2.0,2.0;" x1="82.5" x2="528.5" y1="522.8203" y2="522.8203"/><text fill="#000000" font-family="sans-serif" font-size="13" lengthAdjust="spacingAndGlyphs" textLength="58" x="94.5" y="517.9639">return(list)</text><polygon fill="#A80036" points="546,549.1719,556,553.1719,546,557.1719,550,553.1719" style="stroke: #A80036; stroke-width: 1.0;"/><line style="stroke: #A80036; stroke-width: 1.0;" x1="77.5" x2="552" y1="553.1719" y2="553.1719"/><text fill="#000000" font-family="sans-serif" font-size="13" lengthAdjust="spacingAndGlyphs" textLength="44" x="84.5" y="548.3154">create()</text><text fill="#000000" font-family="sans-serif" font-size="14" lengthAdjust="spacingAndGlyphs" textLength="56" x="558" y="577.3535">Freq List</text><ellipse cx="589" cy="546.8203" fill="#FEFECE" filter="url(#fliar19nuepla)" rx="12" ry="12" style="stroke: #A80036; stroke-width: 2.0;"/><line style="stroke: #A80036; stroke-width: 2.0;" x1="577" x2="601" y1="560.8203" y2="560.8203"/><polygon fill="#A80036" points="677,608.7813,687,612.7813,677,616.7813,681,612.7813" style="stroke: #A80036; stroke-width: 1.0;"/><line style="stroke: #A80036; stroke-width: 1.0;" x1="77.5" x2="683" y1="612.7813" y2="612.7813"/><text fill="#000000" font-family="sans-serif" font-size="13" lengthAdjust="spacingAndGlyphs" textLength="106" x="84.5" y="607.9248">powerHold(enable)</text><path d="M20,627.7813 L93,627.7813 L93,635.7813 L83,645.7813 L20,645.7813 L20,627.7813 " fill="#EEEEEE" style="stroke: #000000; stroke-width: 1.0;"/><rect fill="none" height="625.0313" style="stroke: #000000; stroke-width: 2.0;" width="934" x="20" y="627.7813"/><text fill="#000000" font-family="sans-serif" font-size="13" font-weight="bold" lengthAdjust="spacingAndGlyphs" textLength="28" x="35" y="642.2764">loop</text><text fill="#000000" font-family="sans-serif" font-size="11" font-weight="bold" lengthAdjust="spacingAndGlyphs" textLength="115" x="108" y="641.2002">[for every freq-band]</text><path d="M30,653.1328 L103,653.1328 L103,661.1328 L93,671.1328 L30,671.1328 L30,653.1328 " fill="#EEEEEE" style="stroke: #000000; stroke-width: 1.0;"/><rect fill="none" height="549.3281" style="stroke: #000000; stroke-width: 2.0;" width="914" x="30" y="653.1328"/><text fill="#000000" font-family="sans-serif" font-size="13" font-weight="bold" lengthAdjust="spacingAndGlyphs" textLength="28" x="45" y="667.6279">loop</text><text fill="#000000" font-family="sans-serif" font-size="11" font-weight="bold" lengthAdjust="spacingAndGlyphs" textLength="127" x="118" y="666.5518">[for every freq in band]</text><polygon fill="#A80036" points="453.5,689.8359,463.5,693.8359,453.5,697.8359,457.5,693.8359" style="stroke: #A80036; stroke-width: 1.0;"/><line style="stroke: #A80036; stroke-width: 1.0;" x1="77.5" x2="459.5" y1="693.8359" y2="693.8359"/><text fill="#000000" font-family="sans-serif" font-size="13" lengthAdjust="spacingAndGlyphs" textLength="131" x="84.5" y="688.9795">SET_POW_AMPL(dB)</text><polygon fill="#A80036" points="453.5,720.1875,463.5,724.1875,453.5,728.1875,457.5,724.1875" style="stroke: #A80036; stroke-width: 1.0;"/><line style="stroke: #A80036; stroke-width: 1.0;" x1="77.5" x2="459.5" y1="724.1875" y2="724.1875"/><text fill="#000000" font-family="sans-serif" font-size="13" lengthAdjust="spacingAndGlyphs" textLength="97" x="84.5" y="719.3311">SET_FREQ(freq)</text><polygon fill="#A80036" points="785.5,750.5391,795.5,754.5391,785.5,758.5391,789.5,754.5391" style="stroke: #A80036; stroke-width: 1.0;"/><line style="stroke: #A80036; stroke-width: 1.0;" x1="77.5" x2="791.5" y1="754.5391" y2="754.5391"/><text fill="#000000" font-family="sans-serif" font-size="13" lengthAdjust="spacingAndGlyphs" textLength="105" x="84.5" y="749.6826">runAlignment(freq)</text><polygon fill="#A80036" points="873.5,780.8906,883.5,784.8906,873.5,788.8906,877.5,784.8906" style="stroke: #A80036; stroke-width: 1.0;"/><line style="stroke: #A80036; stroke-width: 1.0;" x1="77.5" x2="879.5" y1="784.8906" y2="784.8906"/><text fill="#000000" font-family="sans-serif" font-size="13" lengthAdjust="spacingAndGlyphs" textLength="97" x="84.5" y="780.0342">txfreq(freq, 3125)</text><polygon fill="#A80036" points="873.5,811.2422,883.5,815.2422,873.5,819.2422,877.5,815.2422" style="stroke: #A80036; stroke-width: 1.0;"/><line style="stroke: #A80036; stroke-width: 1.0;" x1="77.5" x2="879.5" y1="815.2422" y2="815.2422"/><text fill="#000000" font-family="sans-serif" font-size="13" lengthAdjust="spacingAndGlyphs" textLength="44" x="84.5" y="810.3857">rxread()</text><polygon fill="#A80036" points="88.5,841.5938,78.5,845.5938,88.5,849.5938,84.5,845.5938" style="stroke: #A80036; stroke-width: 1.0;"/><line style="stroke: #A80036; stroke-width: 1.0; stroke-dasharray: 2.0,2.0;" x1="82.5" x2="884.5" y1="845.5938" y2="845.5938"/><text fill="#000000" font-family="sans-serif" font-size="13" lengthAdjust="spacingAndGlyphs" textLength="109" x="94.5" y="840.7373">return(rxADCAmpl)</text><polygon fill="#A80036" points="873.5,871.9453,883.5,875.9453,873.5,879.9453,877.5,875.9453" style="stroke: #A80036; stroke-width: 1.0;"/><line style="stroke: #A80036; stroke-width: 1.0;" x1="77.5" x2="879.5" y1="875.9453" y2="875.9453"/><text fill="#000000" font-family="sans-serif" font-size="13" lengthAdjust="spacingAndGlyphs" textLength="77" x="84.5" y="871.0889">txattn(60, 60)</text><polygon fill="#A80036" points="873.5,902.2969,883.5,906.2969,873.5,910.2969,877.5,906.2969" style="stroke: #A80036; stroke-width: 1.0;"/><line style="stroke: #A80036; stroke-width: 1.0;" x1="77.5" x2="879.5" y1="906.2969" y2="906.2969"/><text fill="#000000" font-family="sans-serif" font-size="13" lengthAdjust="spacingAndGlyphs" textLength="32" x="84.5" y="901.4404">rfinit()</text><polygon fill="#A80036" points="873.5,932.6484,883.5,936.6484,873.5,940.6484,877.5,936.6484" style="stroke: #A80036; stroke-width: 1.0;"/><line style="stroke: #A80036; stroke-width: 1.0;" x1="77.5" x2="879.5" y1="936.6484" y2="936.6484"/><text fill="#000000" font-family="sans-serif" font-size="13" lengthAdjust="spacingAndGlyphs" textLength="83" x="84.5" y="931.792">rxfreq(freq, 10)</text><polygon fill="#A80036" points="873.5,963,883.5,967,873.5,971,877.5,967" style="stroke: #A80036; stroke-width: 1.0;"/><line style="stroke: #A80036; stroke-width: 1.0;" x1="77.5" x2="879.5" y1="967" y2="967"/><text fill="#000000" font-family="sans-serif" font-size="13" lengthAdjust="spacingAndGlyphs" textLength="91" x="84.5" y="962.1436">scopemode(Off)</text><path d="M40,982 L113,982 L113,990 L103,1000 L40,1000 L40,982 " fill="#EEEEEE" style="stroke: #000000; stroke-width: 1.0;"/><rect fill="none" height="213.4609" style="stroke: #000000; stroke-width: 2.0;" width="894" x="40" y="982"/><text fill="#000000" font-family="sans-serif" font-size="13" font-weight="bold" lengthAdjust="spacingAndGlyphs" textLength="28" x="55" y="996.4951">loop</text><text fill="#000000" font-family="sans-serif" font-size="11" font-weight="bold" lengthAdjust="spacingAndGlyphs" textLength="91" x="128" y="995.4189">[for every route]</text><polygon fill="#A80036" points="873.5,1018.7031,883.5,1022.7031,873.5,1026.7031,877.5,1022.7031" style="stroke: #A80036; stroke-width: 1.0;"/><line style="stroke: #A80036; stroke-width: 1.0;" x1="77.5" x2="879.5" y1="1022.7031" y2="1022.7031"/><text fill="#000000" font-family="sans-serif" font-size="13" lengthAdjust="spacingAndGlyphs" textLength="69" x="84.5" y="1017.8467">rfpath(route)</text><polygon fill="#A80036" points="873.5,1049.0547,883.5,1053.0547,873.5,1057.0547,877.5,1053.0547" style="stroke: #A80036; stroke-width: 1.0;"/><line style="stroke: #A80036; stroke-width: 1.0;" x1="77.5" x2="879.5" y1="1053.0547" y2="1053.0547"/><text fill="#000000" font-family="sans-serif" font-size="13" lengthAdjust="spacingAndGlyphs" textLength="44" x="84.5" y="1048.1982">rxread()</text><polygon fill="#A80036" points="88.5,1079.4063,78.5,1083.4063,88.5,1087.4063,84.5,1083.4063" style="stroke: #A80036; stroke-width: 1.0;"/><line style="stroke: #A80036; stroke-width: 1.0; stroke-dasharray: 2.0,2.0;" x1="82.5" x2="884.5" y1="1083.4063" y2="1083.4063"/><text fill="#000000" font-family="sans-serif" font-size="13" lengthAdjust="spacingAndGlyphs" textLength="98" x="94.5" y="1078.5498">return(rxADCRef)</text><polygon fill="#A80036" points="517.5,1109.7578,527.5,1113.7578,517.5,1117.7578,521.5,1113.7578" style="stroke: #A80036; stroke-width: 1.0;"/><line style="stroke: #A80036; stroke-width: 1.0;" x1="77.5" x2="523.5" y1="1113.7578" y2="1113.7578"/><text fill="#000000" font-family="sans-serif" font-size="13" lengthAdjust="spacingAndGlyphs" textLength="187" x="84.5" y="1108.9014">getCharracterization(power, freq)</text><polygon fill="#A80036" points="88.5,1140.1094,78.5,1144.1094,88.5,1148.1094,84.5,1144.1094" style="stroke: #A80036; stroke-width: 1.0;"/><line style="stroke: #A80036; stroke-width: 1.0; stroke-dasharray: 2.0,2.0;" x1="82.5" x2="528.5" y1="1144.1094" y2="1144.1094"/><text fill="#000000" font-family="sans-serif" font-size="13" lengthAdjust="spacingAndGlyphs" textLength="76" x="94.5" y="1139.2529">return(sgOut)</text><line style="stroke: #A80036; stroke-width: 1.0;" x1="77.5" x2="119.5" y1="1174.4609" y2="1174.4609"/><line style="stroke: #A80036; stroke-width: 1.0;" x1="119.5" x2="119.5" y1="1174.4609" y2="1187.4609"/><line style="stroke: #A80036; stroke-width: 1.0;" x1="78.5" x2="119.5" y1="1187.4609" y2="1187.4609"/><polygon fill="#A80036" points="88.5,1183.4609,78.5,1187.4609,88.5,1191.4609,84.5,1187.4609" style="stroke: #A80036; stroke-width: 1.0;"/><text fill="#000000" font-family="sans-serif" font-size="13" lengthAdjust="spacingAndGlyphs" textLength="374" x="84.5" y="1169.6045">calculateCorrectionFactor(rxADCRef, rxADCAmpl, power, sgOut)</text><line style="stroke: #A80036; stroke-width: 1.0;" x1="77.5" x2="119.5" y1="1231.8125" y2="1231.8125"/><line style="stroke: #A80036; stroke-width: 1.0;" x1="119.5" x2="119.5" y1="1231.8125" y2="1244.8125"/><line style="stroke: #A80036; stroke-width: 1.0;" x1="78.5" x2="119.5" y1="1244.8125" y2="1244.8125"/><polygon fill="#A80036" points="88.5,1240.8125,78.5,1244.8125,88.5,1248.8125,84.5,1244.8125" style="stroke: #A80036; stroke-width: 1.0;"/><text fill="#000000" font-family="sans-serif" font-size="13" lengthAdjust="spacingAndGlyphs" textLength="245" x="84.5" y="1226.9561">calculateThirdOrderPolynomialCoefs(band)</text><polygon fill="#A80036" points="453.5,1278.1641,463.5,1282.1641,453.5,1286.1641,457.5,1282.1641" style="stroke: #A80036; stroke-width: 1.0;"/><line style="stroke: #A80036; stroke-width: 1.0;" x1="77.5" x2="459.5" y1="1282.1641" y2="1282.1641"/><text fill="#000000" font-family="sans-serif" font-size="13" lengthAdjust="spacingAndGlyphs" textLength="121" x="84.5" y="1277.3076">SET_PWR_AMPL(0)</text><polygon fill="#A80036" points="453.5,1308.5156,463.5,1312.5156,453.5,1316.5156,457.5,1312.5156" style="stroke: #A80036; stroke-width: 1.0;"/><line style="stroke: #A80036; stroke-width: 1.0;" x1="77.5" x2="459.5" y1="1312.5156" y2="1312.5156"/><text fill="#000000" font-family="sans-serif" font-size="13" lengthAdjust="spacingAndGlyphs" textLength="109" x="84.5" y="1307.6592">SET_FREQ(1GHz)</text><polygon fill="#A80036" points="453.5,1338.8672,463.5,1342.8672,453.5,1346.8672,457.5,1342.8672" style="stroke: #A80036; stroke-width: 1.0;"/><line style="stroke: #A80036; stroke-width: 1.0;" x1="77.5" x2="459.5" y1="1342.8672" y2="1342.8672"/><text fill="#000000" font-family="sans-serif" font-size="13" lengthAdjust="spacingAndGlyphs" textLength="125" x="84.5" y="1338.0107">SET_RF_OUTP(OFF)</text><polygon fill="#A80036" points="677,1369.2188,687,1373.2188,677,1377.2188,681,1373.2188" style="stroke: #A80036; stroke-width: 1.0;"/><line style="stroke: #A80036; stroke-width: 1.0;" x1="77.5" x2="683" y1="1373.2188" y2="1373.2188"/><text fill="#000000" font-family="sans-serif" font-size="13" lengthAdjust="spacingAndGlyphs" textLength="109" x="84.5" y="1368.3623">powerHold(disable)</text><!--MD5=[551258abb5c8e765d4b21f54a96e7ff8]
@startuml
title RXCALIBRATION
actor User
User -> "RxCal" as rx: run()
boundary "Signal \nGenerator" as sigen
rx -> sigen: CLEAR
rx -> sigen: RESET
rx -> sigen: AM_MOD(OFF)
rx -> sigen: FM_MOD(OFF)
rx -> sigen: PHM_MOD(OFF)
rx -> sigen: PULSE_MOD(OFF)
rx -> sigen: POW_OFFSET(OFF)
rx -> sigen: SET_PWR_AMPL(0)
rx -> sigen: SET_FREQ(1GHz)
rx -> sigen: SET_RF_OUTP(ON)
rx -> "DB" as db: fetchFreqList()
db - -> rx: return(list)  
create entity "Freq List" as freqs
rx -> freqs: create()
rx -> "Hardware Client": powerHold(enable)
loop for every freq-band

    loop for every freq in band
        rx -> sigen: SET_POW_AMPL(dB)
        rx -> sigen: SET_FREQ(freq)
        rx -> "BIT Client" as bit: runAlignment(freq)
        rx -> "RF Client" as rf: txfreq(freq, 3125)
        rx -> rf: rxread()
        rf - -> rx: return(rxADCAmpl)
        rx -> rf: txattn(60, 60)

        rx -> rf: rfinit()
        rx -> rf: rxfreq(freq, 10)
        rx -> rf: scopemode(Off)



        loop for every route
            rx -> rf: rfpath(route)
            rx -> rf: rxread()
            rf - -> rx: return(rxADCRef)
            rx -> db: getCharracterization(power, freq)
            db - -> rx: return(sgOut)
            rx -> rx: calculateCorrectionFactor(rxADCRef, rxADCAmpl, power, sgOut)
        end
    end
    rx -> rx: calculateThirdOrderPolynomialCoefs(band)
end
rx -> sigen: SET_PWR_AMPL(0)
rx -> sigen: SET_FREQ(1GHz)
rx -> sigen: SET_RF_OUTP(OFF)
rx -> "Hardware Client": powerHold(disable)

boundary "SDR-Omni" as dev


@enduml

PlantUML version 1.2020.18(Thu Oct 01 01:10:44 IST 2020)
(GPL source distribution)
Java Runtime: OpenJDK Runtime Environment
JVM: OpenJDK 64-Bit Server VM
Default Encoding: Cp1252
Language: en
Country: IN
--></g></svg>