<?xml version="1.0" encoding="UTF-8" standalone="no"?><svg xmlns="http://www.w3.org/2000/svg" xmlns:xlink="http://www.w3.org/1999/xlink" contentScriptType="application/ecmascript" contentStyleType="text/css" height="1142px" preserveAspectRatio="none" style="width:1188px;height:1142px;" version="1.1" viewBox="0 0 1188 1142" width="1188px" zoomAndPan="magnify"><defs><filter height="300%" id="f2hzgtpehe679" width="300%" x="-1" y="-1"><feGaussianBlur result="blurOut" stdDeviation="2.0"/><feColorMatrix in="blurOut" result="blurOut2" type="matrix" values="0 0 0 0 0 0 0 0 0 0 0 0 0 0 0 0 0 0 .4 0"/><feOffset dx="4.0" dy="4.0" in="blurOut2" result="blurOut3"/><feBlend in="SourceGraphic" in2="blurOut3" mode="normal"/></filter></defs><g><text fill="#000000" font-family="sans-serif" font-size="18" lengthAdjust="spacingAndGlyphs" textLength="314" x="435" y="30.6855">Prioritization of the Consumers (Mobile)</text><rect fill="#FFFFFF" filter="url(#f2hzgtpehe679)" height="48.7031" style="stroke: #000000; stroke-width: 2.0;" width="901" x="273" y="991.1641"/><line style="stroke: #A80036; stroke-width: 1.0; stroke-dasharray: 5.0,5.0;" x1="22" x2="22" y1="126.25" y2="1056.8672"/><line style="stroke: #A80036; stroke-width: 1.0; stroke-dasharray: 5.0,5.0;" x1="107" x2="107" y1="126.25" y2="1056.8672"/><line style="stroke: #A80036; stroke-width: 1.0; stroke-dasharray: 5.0,5.0;" x1="224" x2="224" y1="176.0547" y2="1056.8672"/><line style="stroke: #A80036; stroke-width: 1.0; stroke-dasharray: 5.0,5.0;" x1="350" x2="350" y1="126.25" y2="1056.8672"/><line style="stroke: #A80036; stroke-width: 1.0; stroke-dasharray: 5.0,5.0;" x1="633" x2="633" y1="126.25" y2="1056.8672"/><line style="stroke: #A80036; stroke-width: 1.0; stroke-dasharray: 5.0,5.0;" x1="731" x2="731" y1="126.25" y2="1056.8672"/><line style="stroke: #A80036; stroke-width: 1.0; stroke-dasharray: 5.0,5.0;" x1="844" x2="844" y1="126.25" y2="1056.8672"/><line style="stroke: #A80036; stroke-width: 1.0; stroke-dasharray: 5.0,5.0;" x1="965" x2="965" y1="126.25" y2="1056.8672"/><line style="stroke: #A80036; stroke-width: 1.0; stroke-dasharray: 5.0,5.0;" x1="1114" x2="1114" y1="871" y2="1056.8672"/><text fill="#000000" font-family="sans-serif" font-size="14" lengthAdjust="spacingAndGlyphs" textLength="29" x="5" y="123.1738">User</text><ellipse cx="22.5" cy="51.6406" fill="#FEFECE" filter="url(#f2hzgtpehe679)" rx="8" ry="8" style="stroke: #A80036; stroke-width: 2.0;"/><path d="M22.5,59.6406 L22.5,86.6406 M9.5,67.6406 L35.5,67.6406 M22.5,86.6406 L9.5,101.6406 M22.5,86.6406 L35.5,101.6406 " fill="none" filter="url(#f2hzgtpehe679)" style="stroke: #A80036; stroke-width: 2.0;"/><text fill="#000000" font-family="sans-serif" font-size="14" lengthAdjust="spacingAndGlyphs" textLength="29" x="5" y="1070.4004">User</text><ellipse cx="22.5" cy="1083.4766" fill="#FEFECE" filter="url(#f2hzgtpehe679)" rx="8" ry="8" style="stroke: #A80036; stroke-width: 2.0;"/><path d="M22.5,1091.4766 L22.5,1118.4766 M9.5,1099.4766 L35.5,1099.4766 M22.5,1118.4766 L9.5,1133.4766 M22.5,1118.4766 L35.5,1133.4766 " fill="none" filter="url(#f2hzgtpehe679)" style="stroke: #A80036; stroke-width: 2.0;"/><text fill="#000000" font-family="sans-serif" font-size="14" lengthAdjust="spacingAndGlyphs" textLength="108" x="50" y="123.1738">Directory Service</text><path d="M86.5,80.6406 L86.5,104.6406 M86.5,92.6406 L103.5,92.6406 " fill="none" filter="url(#f2hzgtpehe679)" style="stroke: #A80036; stroke-width: 2.0;"/><ellipse cx="115.5" cy="92.6406" fill="#FEFECE" filter="url(#f2hzgtpehe679)" rx="12" ry="12" style="stroke: #A80036; stroke-width: 2.0;"/><text fill="#000000" font-family="sans-serif" font-size="14" lengthAdjust="spacingAndGlyphs" textLength="108" x="50" y="1070.4004">Directory Service</text><path d="M86.5,1077.4766 L86.5,1101.4766 M86.5,1089.4766 L103.5,1089.4766 " fill="none" filter="url(#f2hzgtpehe679)" style="stroke: #A80036; stroke-width: 2.0;"/><ellipse cx="115.5" cy="1089.4766" fill="#FEFECE" filter="url(#f2hzgtpehe679)" rx="12" ry="12" style="stroke: #A80036; stroke-width: 2.0;"/><text fill="#000000" font-family="sans-serif" font-size="14" lengthAdjust="spacingAndGlyphs" textLength="92" x="175" y="1070.4004">Client Registry</text><ellipse cx="224" cy="1089.4766" fill="#FEFECE" filter="url(#f2hzgtpehe679)" rx="12" ry="12" style="stroke: #A80036; stroke-width: 2.0;"/><line style="stroke: #A80036; stroke-width: 2.0;" x1="212" x2="236" y1="1103.4766" y2="1103.4766"/><rect fill="#FEFECE" filter="url(#f2hzgtpehe679)" height="31.6094" style="stroke: #A80036; stroke-width: 1.5;" width="127" x="287" y="85.6406"/><rect fill="#FEFECE" filter="url(#f2hzgtpehe679)" height="31.6094" style="stroke: #A80036; stroke-width: 1.5;" width="127" x="283" y="89.6406"/><text fill="#000000" font-family="sans-serif" font-size="14" lengthAdjust="spacingAndGlyphs" textLength="113" x="290" y="111.1738">Dispatch Services</text><rect fill="#FEFECE" filter="url(#f2hzgtpehe679)" height="31.6094" style="stroke: #A80036; stroke-width: 1.5;" width="127" x="287" y="1055.8672"/><rect fill="#FEFECE" filter="url(#f2hzgtpehe679)" height="31.6094" style="stroke: #A80036; stroke-width: 1.5;" width="127" x="283" y="1059.8672"/><text fill="#000000" font-family="sans-serif" font-size="14" lengthAdjust="spacingAndGlyphs" textLength="113" x="290" y="1081.4004">Dispatch Services</text><text fill="#000000" font-family="sans-serif" font-size="14" lengthAdjust="spacingAndGlyphs" textLength="95" x="583" y="105.5645">Coaches iPads</text><text fill="#000000" font-family="sans-serif" font-size="14" lengthAdjust="spacingAndGlyphs" textLength="79" x="593" y="123.1738">and Laptops</text><path d="M613,63.0313 L613,87.0313 M613,75.0313 L630,75.0313 " fill="none" filter="url(#f2hzgtpehe679)" style="stroke: #A80036; stroke-width: 2.0;"/><ellipse cx="642" cy="75.0313" fill="#FEFECE" filter="url(#f2hzgtpehe679)" rx="12" ry="12" style="stroke: #A80036; stroke-width: 2.0;"/><text fill="#000000" font-family="sans-serif" font-size="14" lengthAdjust="spacingAndGlyphs" textLength="95" x="583" y="1070.4004">Coaches iPads</text><text fill="#000000" font-family="sans-serif" font-size="14" lengthAdjust="spacingAndGlyphs" textLength="79" x="593" y="1088.0098">and Laptops</text><path d="M613,1095.0859 L613,1119.0859 M613,1107.0859 L630,1107.0859 " fill="none" filter="url(#f2hzgtpehe679)" style="stroke: #A80036; stroke-width: 2.0;"/><ellipse cx="642" cy="1107.0859" fill="#FEFECE" filter="url(#f2hzgtpehe679)" rx="12" ry="12" style="stroke: #A80036; stroke-width: 2.0;"/><text fill="#000000" font-family="sans-serif" font-size="14" lengthAdjust="spacingAndGlyphs" textLength="68" x="694" y="123.1738">Tagging UI</text><path d="M710.5,80.6406 L710.5,104.6406 M710.5,92.6406 L727.5,92.6406 " fill="none" filter="url(#f2hzgtpehe679)" style="stroke: #A80036; stroke-width: 2.0;"/><ellipse cx="739.5" cy="92.6406" fill="#FEFECE" filter="url(#f2hzgtpehe679)" rx="12" ry="12" style="stroke: #A80036; stroke-width: 2.0;"/><text fill="#000000" font-family="sans-serif" font-size="14" lengthAdjust="spacingAndGlyphs" textLength="68" x="694" y="1070.4004">Tagging UI</text><path d="M710.5,1077.4766 L710.5,1101.4766 M710.5,1089.4766 L727.5,1089.4766 " fill="none" filter="url(#f2hzgtpehe679)" style="stroke: #A80036; stroke-width: 2.0;"/><ellipse cx="739.5" cy="1089.4766" fill="#FEFECE" filter="url(#f2hzgtpehe679)" rx="12" ry="12" style="stroke: #A80036; stroke-width: 2.0;"/><rect fill="#FEFECE" filter="url(#f2hzgtpehe679)" height="31.6094" style="stroke: #A80036; stroke-width: 1.5;" width="129" x="778" y="89.6406"/><text fill="#000000" font-family="sans-serif" font-size="14" lengthAdjust="spacingAndGlyphs" textLength="115" x="785" y="111.1738">Streaming Service</text><rect fill="#FEFECE" filter="url(#f2hzgtpehe679)" height="31.6094" style="stroke: #A80036; stroke-width: 1.5;" width="129" x="778" y="1055.8672"/><text fill="#000000" font-family="sans-serif" font-size="14" lengthAdjust="spacingAndGlyphs" textLength="115" x="785" y="1077.4004">Streaming Service</text><text fill="#000000" font-family="sans-serif" font-size="14" lengthAdjust="spacingAndGlyphs" textLength="41" x="942" y="123.1738">Mobile</text><path d="M945,80.6406 L945,104.6406 M945,92.6406 L962,92.6406 " fill="none" filter="url(#f2hzgtpehe679)" style="stroke: #A80036; stroke-width: 2.0;"/><ellipse cx="974" cy="92.6406" fill="#FEFECE" filter="url(#f2hzgtpehe679)" rx="12" ry="12" style="stroke: #A80036; stroke-width: 2.0;"/><text fill="#000000" font-family="sans-serif" font-size="14" lengthAdjust="spacingAndGlyphs" textLength="41" x="942" y="1070.4004">Mobile</text><path d="M945,1077.4766 L945,1101.4766 M945,1089.4766 L962,1089.4766 " fill="none" filter="url(#f2hzgtpehe679)" style="stroke: #A80036; stroke-width: 2.0;"/><ellipse cx="974" cy="1089.4766" fill="#FEFECE" filter="url(#f2hzgtpehe679)" rx="12" ry="12" style="stroke: #A80036; stroke-width: 2.0;"/><rect fill="#FEFECE" filter="url(#f2hzgtpehe679)" height="49.2188" style="stroke: #A80036; stroke-width: 1.5;" width="95" x="1065" y="1055.8672"/><text fill="#000000" font-family="sans-serif" font-size="14" lengthAdjust="spacingAndGlyphs" textLength="81" x="1072" y="1077.4004">File Transfer</text><text fill="#000000" font-family="sans-serif" font-size="14" lengthAdjust="spacingAndGlyphs" textLength="33" x="1096" y="1095.0098">client</text><polygon fill="#A80036" points="163,154.6016,173,158.6016,163,162.6016,167,158.6016" style="stroke: #A80036; stroke-width: 1.0;"/><line style="stroke: #A80036; stroke-width: 1.0;" x1="107" x2="169" y1="158.6016" y2="158.6016"/><text fill="#000000" font-family="sans-serif" font-size="13" lengthAdjust="spacingAndGlyphs" textLength="44" x="114" y="153.7451">create()</text><text fill="#000000" font-family="sans-serif" font-size="14" lengthAdjust="spacingAndGlyphs" textLength="92" x="175" y="182.7832">Client Registry</text><ellipse cx="224" cy="152.25" fill="#FEFECE" filter="url(#f2hzgtpehe679)" rx="12" ry="12" style="stroke: #A80036; stroke-width: 2.0;"/><line style="stroke: #A80036; stroke-width: 2.0;" x1="212" x2="236" y1="166.25" y2="166.25"/><polygon fill="#A80036" points="361.5,214.2109,351.5,218.2109,361.5,222.2109,357.5,218.2109" style="stroke: #A80036; stroke-width: 1.0;"/><line style="stroke: #A80036; stroke-width: 1.0;" x1="355.5" x2="632.5" y1="218.2109" y2="218.2109"/><text fill="#000000" font-family="sans-serif" font-size="13" lengthAdjust="spacingAndGlyphs" textLength="255" x="367.5" y="213.3545">command(directoryService, register, priority)</text><polygon fill="#A80036" points="118,244.5625,108,248.5625,118,252.5625,114,248.5625" style="stroke: #A80036; stroke-width: 1.0;"/><line style="stroke: #A80036; stroke-width: 1.0;" x1="112" x2="349.5" y1="248.5625" y2="248.5625"/><text fill="#000000" font-family="sans-serif" font-size="13" lengthAdjust="spacingAndGlyphs" textLength="194" x="124" y="243.7061">command(register, client, priority)</text><polygon fill="#A80036" points="118,274.9141,108,278.9141,118,282.9141,114,278.9141" style="stroke: #A80036; stroke-width: 1.0;"/><line style="stroke: #A80036; stroke-width: 1.0;" x1="112" x2="349.5" y1="278.9141" y2="278.9141"/><text fill="#000000" font-family="sans-serif" font-size="13" lengthAdjust="spacingAndGlyphs" textLength="87" x="124" y="274.0576">fetchHandlers()</text><polygon fill="#A80036" points="338.5,305.2656,348.5,309.2656,338.5,313.2656,342.5,309.2656" style="stroke: #A80036; stroke-width: 1.0;"/><line style="stroke: #A80036; stroke-width: 1.0; stroke-dasharray: 2.0,2.0;" x1="107" x2="344.5" y1="309.2656" y2="309.2656"/><text fill="#000000" font-family="sans-serif" font-size="13" lengthAdjust="spacingAndGlyphs" textLength="134" x="114" y="304.4092">return(clientAddresses)</text><polygon fill="#A80036" points="361.5,335.6172,351.5,339.6172,361.5,343.6172,357.5,339.6172" style="stroke: #A80036; stroke-width: 1.0;"/><line style="stroke: #A80036; stroke-width: 1.0;" x1="355.5" x2="632.5" y1="339.6172" y2="339.6172"/><text fill="#000000" font-family="sans-serif" font-size="13" lengthAdjust="spacingAndGlyphs" textLength="259" x="367.5" y="334.7607">command(directoryService, subscribe, event)</text><polygon fill="#A80036" points="118,365.9688,108,369.9688,118,373.9688,114,369.9688" style="stroke: #A80036; stroke-width: 1.0;"/><line style="stroke: #A80036; stroke-width: 1.0;" x1="112" x2="349.5" y1="369.9688" y2="369.9688"/><text fill="#000000" font-family="sans-serif" font-size="13" lengthAdjust="spacingAndGlyphs" textLength="198" x="124" y="365.1123">command(subscribe, client, event)</text><polygon fill="#A80036" points="719,396.3203,729,400.3203,719,404.3203,723,400.3203" style="stroke: #A80036; stroke-width: 1.0;"/><line style="stroke: #A80036; stroke-width: 1.0;" x1="22.5" x2="725" y1="400.3203" y2="400.3203"/><text fill="#000000" font-family="sans-serif" font-size="13" lengthAdjust="spacingAndGlyphs" textLength="34" x="29.5" y="395.4639">start()</text><polygon fill="#A80036" points="361.5,426.6719,351.5,430.6719,361.5,434.6719,357.5,430.6719" style="stroke: #A80036; stroke-width: 1.0;"/><line style="stroke: #A80036; stroke-width: 1.0;" x1="355.5" x2="730" y1="430.6719" y2="430.6719"/><text fill="#000000" font-family="sans-serif" font-size="13" lengthAdjust="spacingAndGlyphs" textLength="208" x="367.5" y="425.8154">command(streamingService, record)</text><polygon fill="#A80036" points="832.5,457.0234,842.5,461.0234,832.5,465.0234,836.5,461.0234" style="stroke: #A80036; stroke-width: 1.0;"/><line style="stroke: #A80036; stroke-width: 1.0;" x1="350.5" x2="838.5" y1="461.0234" y2="461.0234"/><text fill="#000000" font-family="sans-serif" font-size="13" lengthAdjust="spacingAndGlyphs" textLength="101" x="357.5" y="456.167">command(record)</text><polygon fill="#A80036" points="361.5,487.375,351.5,491.375,361.5,495.375,357.5,491.375" style="stroke: #A80036; stroke-width: 1.0;"/><line style="stroke: #A80036; stroke-width: 1.0; stroke-dasharray: 2.0,2.0;" x1="355.5" x2="843.5" y1="491.375" y2="491.375"/><text fill="#000000" font-family="sans-serif" font-size="13" lengthAdjust="spacingAndGlyphs" textLength="127" x="367.5" y="486.5186">notify(recordingStarts)</text><polygon fill="#A80036" points="953.5,517.7266,963.5,521.7266,953.5,525.7266,957.5,521.7266" style="stroke: #A80036; stroke-width: 1.0;"/><line style="stroke: #A80036; stroke-width: 1.0;" x1="844.5" x2="959.5" y1="521.7266" y2="521.7266"/><text fill="#000000" font-family="sans-serif" font-size="13" lengthAdjust="spacingAndGlyphs" textLength="92" x="851.5" y="516.8701">startRecording()</text><line style="stroke: #A80036; stroke-width: 1.0;" x1="965.5" x2="1007.5" y1="552.0781" y2="552.0781"/><line style="stroke: #A80036; stroke-width: 1.0;" x1="1007.5" x2="1007.5" y1="552.0781" y2="565.0781"/><line style="stroke: #A80036; stroke-width: 1.0;" x1="966.5" x2="1007.5" y1="565.0781" y2="565.0781"/><polygon fill="#A80036" points="976.5,561.0781,966.5,565.0781,976.5,569.0781,972.5,565.0781" style="stroke: #A80036; stroke-width: 1.0;"/><text fill="#000000" font-family="sans-serif" font-size="13" lengthAdjust="spacingAndGlyphs" textLength="49" x="972.5" y="547.2217">Record()</text><polygon fill="#A80036" points="719,591.4297,729,595.4297,719,599.4297,723,595.4297" style="stroke: #A80036; stroke-width: 1.0;"/><line style="stroke: #A80036; stroke-width: 1.0;" x1="22.5" x2="725" y1="595.4297" y2="595.4297"/><text fill="#000000" font-family="sans-serif" font-size="13" lengthAdjust="spacingAndGlyphs" textLength="33" x="29.5" y="590.5732">stop()</text><polygon fill="#A80036" points="361.5,621.7813,351.5,625.7813,361.5,629.7813,357.5,625.7813" style="stroke: #A80036; stroke-width: 1.0;"/><line style="stroke: #A80036; stroke-width: 1.0;" x1="355.5" x2="730" y1="625.7813" y2="625.7813"/><text fill="#000000" font-family="sans-serif" font-size="13" lengthAdjust="spacingAndGlyphs" textLength="198" x="367.5" y="620.9248">command(streamingService, save)</text><polygon fill="#A80036" points="832.5,652.1328,842.5,656.1328,832.5,660.1328,836.5,656.1328" style="stroke: #A80036; stroke-width: 1.0;"/><line style="stroke: #A80036; stroke-width: 1.0;" x1="350.5" x2="838.5" y1="656.1328" y2="656.1328"/><text fill="#000000" font-family="sans-serif" font-size="13" lengthAdjust="spacingAndGlyphs" textLength="91" x="357.5" y="651.2764">command(save)</text><polygon fill="#A80036" points="953.5,682.4844,963.5,686.4844,953.5,690.4844,957.5,686.4844" style="stroke: #A80036; stroke-width: 1.0;"/><line style="stroke: #A80036; stroke-width: 1.0;" x1="844.5" x2="959.5" y1="686.4844" y2="686.4844"/><text fill="#000000" font-family="sans-serif" font-size="13" lengthAdjust="spacingAndGlyphs" textLength="87" x="851.5" y="681.6279">endRecording()</text><line style="stroke: #A80036; stroke-width: 1.0;" x1="965.5" x2="1007.5" y1="716.8359" y2="716.8359"/><line style="stroke: #A80036; stroke-width: 1.0;" x1="1007.5" x2="1007.5" y1="716.8359" y2="729.8359"/><line style="stroke: #A80036; stroke-width: 1.0;" x1="966.5" x2="1007.5" y1="729.8359" y2="729.8359"/><polygon fill="#A80036" points="976.5,725.8359,966.5,729.8359,976.5,733.8359,972.5,729.8359" style="stroke: #A80036; stroke-width: 1.0;"/><text fill="#000000" font-family="sans-serif" font-size="13" lengthAdjust="spacingAndGlyphs" textLength="35" x="972.5" y="711.9795">Stop()</text><polygon fill="#A80036" points="855.5,756.1875,845.5,760.1875,855.5,764.1875,851.5,760.1875" style="stroke: #A80036; stroke-width: 1.0;"/><line style="stroke: #A80036; stroke-width: 1.0; stroke-dasharray: 2.0,2.0;" x1="849.5" x2="964.5" y1="760.1875" y2="760.1875"/><text fill="#000000" font-family="sans-serif" font-size="13" lengthAdjust="spacingAndGlyphs" textLength="97" x="861.5" y="755.3311">Notify(fileHandle)</text><polygon fill="#A80036" points="118,786.5391,108,790.5391,118,794.5391,114,790.5391" style="stroke: #A80036; stroke-width: 1.0;"/><line style="stroke: #A80036; stroke-width: 1.0;" x1="112" x2="843.5" y1="790.5391" y2="790.5391"/><text fill="#000000" font-family="sans-serif" font-size="13" lengthAdjust="spacingAndGlyphs" textLength="144" x="124" y="785.6826">fetchSubscribers(priority)</text><polygon fill="#A80036" points="832.5,816.8906,842.5,820.8906,832.5,824.8906,836.5,820.8906" style="stroke: #A80036; stroke-width: 1.0;"/><line style="stroke: #A80036; stroke-width: 1.0; stroke-dasharray: 2.0,2.0;" x1="107" x2="838.5" y1="820.8906" y2="820.8906"/><text fill="#000000" font-family="sans-serif" font-size="13" lengthAdjust="spacingAndGlyphs" textLength="119" x="114" y="816.0342">return(client, priority)</text><polygon fill="#A80036" points="1053,847.2422,1063,851.2422,1053,855.2422,1057,851.2422" style="stroke: #A80036; stroke-width: 1.0;"/><line style="stroke: #A80036; stroke-width: 1.0;" x1="844.5" x2="1059" y1="851.2422" y2="851.2422"/><text fill="#000000" font-family="sans-serif" font-size="13" lengthAdjust="spacingAndGlyphs" textLength="44" x="851.5" y="846.3857">create()</text><rect fill="#FEFECE" filter="url(#f2hzgtpehe679)" height="49.2188" style="stroke: #A80036; stroke-width: 1.5;" width="95" x="1065" y="828.8906"/><text fill="#000000" font-family="sans-serif" font-size="14" lengthAdjust="spacingAndGlyphs" textLength="81" x="1072" y="850.4238">File Transfer</text><text fill="#000000" font-family="sans-serif" font-size="14" lengthAdjust="spacingAndGlyphs" textLength="33" x="1096" y="868.0332">client</text><polygon fill="#A80036" points="1102.5,911.4609,1112.5,915.4609,1102.5,919.4609,1106.5,915.4609" style="stroke: #A80036; stroke-width: 1.0;"/><line style="stroke: #A80036; stroke-width: 1.0;" x1="844.5" x2="1108.5" y1="915.4609" y2="915.4609"/><text fill="#000000" font-family="sans-serif" font-size="13" lengthAdjust="spacingAndGlyphs" textLength="213" x="851.5" y="910.6045">transferJob(fileHandle, client, priority)</text><polygon fill="#A80036" points="976.5,941.8125,966.5,945.8125,976.5,949.8125,972.5,945.8125" style="stroke: #A80036; stroke-width: 1.0;"/><line style="stroke: #A80036; stroke-width: 1.0;" x1="970.5" x2="1113.5" y1="945.8125" y2="945.8125"/><text fill="#000000" font-family="sans-serif" font-size="13" lengthAdjust="spacingAndGlyphs" textLength="125" x="982.5" y="940.9561">fetchVideo(fileHandle)</text><polygon fill="#A80036" points="1102.5,972.1641,1112.5,976.1641,1102.5,980.1641,1106.5,976.1641" style="stroke: #A80036; stroke-width: 1.0;"/><line style="stroke: #A80036; stroke-width: 1.0; stroke-dasharray: 2.0,2.0;" x1="965.5" x2="1108.5" y1="976.1641" y2="976.1641"/><text fill="#000000" font-family="sans-serif" font-size="13" lengthAdjust="spacingAndGlyphs" textLength="97" x="972.5" y="971.3076">return(mediaFile)</text><path d="M273,991.1641 L346,991.1641 L346,999.1641 L336,1009.1641 L273,1009.1641 L273,991.1641 " fill="#EEEEEE" style="stroke: #000000; stroke-width: 1.0;"/><rect fill="none" height="48.7031" style="stroke: #000000; stroke-width: 2.0;" width="901" x="273" y="991.1641"/><text fill="#000000" font-family="sans-serif" font-size="13" font-weight="bold" lengthAdjust="spacingAndGlyphs" textLength="28" x="288" y="1005.6592">loop</text><text fill="#000000" font-family="sans-serif" font-size="11" font-weight="bold" lengthAdjust="spacingAndGlyphs" textLength="110" x="361" y="1004.583">[for all subscribers]</text><polygon fill="#A80036" points="361.5,1027.8672,351.5,1031.8672,361.5,1035.8672,357.5,1031.8672" style="stroke: #A80036; stroke-width: 1.0;"/><line style="stroke: #A80036; stroke-width: 1.0; stroke-dasharray: 2.0,2.0;" x1="355.5" x2="1113.5" y1="1031.8672" y2="1031.8672"/><text fill="#000000" font-family="sans-serif" font-size="13" lengthAdjust="spacingAndGlyphs" textLength="121" x="367.5" y="1027.0107">return(streamHandle)</text><!--MD5=[a4d20d597fefc75171d2e018a881327a]
@startuml 
title Prioritization of the Consumers (Mobile)
    actor "User" as user
    boundary "Directory Service" as dir
    create entity "Client Registry" as reg
    dir -> reg: create()
    collections "Dispatch Services" as dispatch
    boundary "Coaches iPads\n and Laptops" as coach
    coach -> "Dispatch Service" as dispatch: command(directoryService, register, priority)
    dispatch -> dir: command(register, client, priority)
    
    dispatch -> dir: fetchHandlers()
    dir - -> dispatch: return(clientAddresses)
    
    coach -> dispatch: command(directoryService, subscribe, event)
    
    dispatch -> dir: command(subscribe, client, event)
    boundary "Tagging UI" as tag
    user -> tag: start()
    tag -> dispatch: command(streamingService, record)
    dispatch -> "Streaming Service" as strm: command(record)
    strm - -> dispatch: notify(recordingStarts) 
    boundary "Mobile" as mobl
    strm -> mobl: startRecording()
    mobl -> mobl: Record()
    
    user -> tag: stop()

    tag -> dispatch: command(streamingService, save)
    dispatch -> strm: command(save)
    strm -> mobl: endRecording()
    mobl -> mobl: Stop()
    mobl - -> strm: Notify(fileHandle)
    strm -> dir: fetchSubscribers(priority)
    dir - -> strm: return(client, priority)
    create "File Transfer\nclient" as ft
    strm -> ft: create()
    strm -> ft: transferJob(fileHandle, client, priority)
    ft -> mobl: fetchVideo(fileHandle)
    mobl - -> ft: return(mediaFile)
    loop for all subscribers
        ft - -> dispatch: return(streamHandle)
    end

@enduml

PlantUML version 1.2020.18(Thu Oct 01 01:10:44 IST 2020)
(GPL source distribution)
Java Runtime: OpenJDK Runtime Environment
JVM: OpenJDK 64-Bit Server VM
Default Encoding: Cp1252
Language: en
Country: IN
--></g></svg>