<?xml version="1.0" encoding="UTF-8" standalone="no"?><svg xmlns="http://www.w3.org/2000/svg" xmlns:xlink="http://www.w3.org/1999/xlink" contentScriptType="application/ecmascript" contentStyleType="text/css" height="818px" preserveAspectRatio="none" style="width:792px;height:818px;" version="1.1" viewBox="0 0 792 818" width="792px" zoomAndPan="magnify"><defs><filter height="300%" id="felykv0i66tnz" width="300%" x="-1" y="-1"><feGaussianBlur result="blurOut" stdDeviation="2.0"/><feColorMatrix in="blurOut" result="blurOut2" type="matrix" values="0 0 0 0 0 0 0 0 0 0 0 0 0 0 0 0 0 0 .4 0"/><feOffset dx="4.0" dy="4.0" in="blurOut2" result="blurOut3"/><feBlend in="SourceGraphic" in2="blurOut3" mode="normal"/></filter></defs><g><text fill="#000000" font-family="sans-serif" font-size="18" lengthAdjust="spacingAndGlyphs" textLength="282" x="257" y="30.6855">Mobile Phone under Server Control</text><rect fill="#FFFFFF" filter="url(#felykv0i66tnz)" height="216.3672" style="stroke:#A80036;stroke-width:1.0;" width="10" x="214.5" y="317.2656"/><line style="stroke:#A80036;stroke-width:1.0;stroke-dasharray:5.0,5.0;" x1="22" x2="22" y1="126.25" y2="732.6484"/><line style="stroke:#A80036;stroke-width:1.0;stroke-dasharray:5.0,5.0;" x1="219.5" x2="219.5" y1="126.25" y2="732.6484"/><line style="stroke:#A80036;stroke-width:1.0;stroke-dasharray:5.0,5.0;" x1="387.5" x2="387.5" y1="126.25" y2="732.6484"/><line style="stroke:#A80036;stroke-width:1.0;stroke-dasharray:5.0,5.0;" x1="478.5" x2="478.5" y1="126.25" y2="732.6484"/><line style="stroke:#A80036;stroke-width:1.0;stroke-dasharray:5.0,5.0;" x1="579" x2="579" y1="176.0547" y2="732.6484"/><line style="stroke:#A80036;stroke-width:1.0;stroke-dasharray:5.0,5.0;" x1="650" x2="650" y1="461.125" y2="732.6484"/><line style="stroke:#A80036;stroke-width:1.0;stroke-dasharray:5.0,5.0;" x1="740" x2="740" y1="611.7891" y2="732.6484"/><text fill="#000000" font-family="sans-serif" font-size="14" lengthAdjust="spacingAndGlyphs" textLength="29" x="5" y="123.1738">User</text><ellipse cx="22.5" cy="51.6406" fill="#FEFECE" filter="url(#felykv0i66tnz)" rx="8" ry="8" style="stroke:#A80036;stroke-width:2.0;"/><path d="M22.5,59.6406 L22.5,86.6406 M9.5,67.6406 L35.5,67.6406 M22.5,86.6406 L9.5,101.6406 M22.5,86.6406 L35.5,101.6406 " fill="none" filter="url(#felykv0i66tnz)" style="stroke:#A80036;stroke-width:2.0;"/><text fill="#000000" font-family="sans-serif" font-size="14" lengthAdjust="spacingAndGlyphs" textLength="29" x="5" y="746.1816">User</text><ellipse cx="22.5" cy="759.2578" fill="#FEFECE" filter="url(#felykv0i66tnz)" rx="8" ry="8" style="stroke:#A80036;stroke-width:2.0;"/><path d="M22.5,767.2578 L22.5,794.2578 M9.5,775.2578 L35.5,775.2578 M22.5,794.2578 L9.5,809.2578 M22.5,794.2578 L35.5,809.2578 " fill="none" filter="url(#felykv0i66tnz)" style="stroke:#A80036;stroke-width:2.0;"/><text fill="#000000" font-family="sans-serif" font-size="14" lengthAdjust="spacingAndGlyphs" textLength="98" x="167.5" y="123.1738">Control Domain</text><ellipse cx="219.5" cy="92.6406" fill="#FEFECE" filter="url(#felykv0i66tnz)" rx="12" ry="12" style="stroke:#A80036;stroke-width:2.0;"/><polygon fill="#A80036" points="215.5,80.6406,221.5,75.6406,219.5,80.6406,221.5,85.6406,215.5,80.6406" style="stroke:#A80036;stroke-width:1.0;"/><text fill="#000000" font-family="sans-serif" font-size="14" lengthAdjust="spacingAndGlyphs" textLength="98" x="167.5" y="746.1816">Control Domain</text><ellipse cx="219.5" cy="765.2578" fill="#FEFECE" filter="url(#felykv0i66tnz)" rx="12" ry="12" style="stroke:#A80036;stroke-width:2.0;"/><polygon fill="#A80036" points="215.5,753.2578,221.5,748.2578,219.5,753.2578,221.5,758.2578,215.5,753.2578" style="stroke:#A80036;stroke-width:1.0;"/><text fill="#000000" font-family="sans-serif" font-size="14" lengthAdjust="spacingAndGlyphs" textLength="108" x="330.5" y="123.1738">Directory Service</text><ellipse cx="387.5" cy="92.6406" fill="#FEFECE" filter="url(#felykv0i66tnz)" rx="12" ry="12" style="stroke:#A80036;stroke-width:2.0;"/><polygon fill="#A80036" points="383.5,80.6406,389.5,75.6406,387.5,80.6406,389.5,85.6406,383.5,80.6406" style="stroke:#A80036;stroke-width:1.0;"/><text fill="#000000" font-family="sans-serif" font-size="14" lengthAdjust="spacingAndGlyphs" textLength="108" x="330.5" y="746.1816">Directory Service</text><ellipse cx="387.5" cy="765.2578" fill="#FEFECE" filter="url(#felykv0i66tnz)" rx="12" ry="12" style="stroke:#A80036;stroke-width:2.0;"/><polygon fill="#A80036" points="383.5,753.2578,389.5,748.2578,387.5,753.2578,389.5,758.2578,383.5,753.2578" style="stroke:#A80036;stroke-width:1.0;"/><text fill="#000000" font-family="sans-serif" font-size="14" lengthAdjust="spacingAndGlyphs" textLength="41" x="455.5" y="123.1738">Mobile</text><path d="M458.5,80.6406 L458.5,104.6406 M458.5,92.6406 L475.5,92.6406 " fill="none" filter="url(#felykv0i66tnz)" style="stroke:#A80036;stroke-width:2.0;"/><ellipse cx="487.5" cy="92.6406" fill="#FEFECE" filter="url(#felykv0i66tnz)" rx="12" ry="12" style="stroke:#A80036;stroke-width:2.0;"/><text fill="#000000" font-family="sans-serif" font-size="14" lengthAdjust="spacingAndGlyphs" textLength="41" x="455.5" y="746.1816">Mobile</text><path d="M458.5,753.2578 L458.5,777.2578 M458.5,765.2578 L475.5,765.2578 " fill="none" filter="url(#felykv0i66tnz)" style="stroke:#A80036;stroke-width:2.0;"/><ellipse cx="487.5" cy="765.2578" fill="#FEFECE" filter="url(#felykv0i66tnz)" rx="12" ry="12" style="stroke:#A80036;stroke-width:2.0;"/><text fill="#000000" font-family="sans-serif" font-size="14" lengthAdjust="spacingAndGlyphs" textLength="55" x="549" y="746.1816">Dispatch</text><ellipse cx="579.5" cy="765.2578" fill="#FEFECE" filter="url(#felykv0i66tnz)" rx="12" ry="12" style="stroke:#A80036;stroke-width:2.0;"/><polygon fill="#A80036" points="575.5,753.2578,581.5,748.2578,579.5,753.2578,581.5,758.2578,575.5,753.2578" style="stroke:#A80036;stroke-width:1.0;"/><text fill="#000000" font-family="sans-serif" font-size="14" lengthAdjust="spacingAndGlyphs" textLength="54" x="620" y="746.1816">File Sink</text><ellipse cx="650" cy="765.2578" fill="#FEFECE" filter="url(#felykv0i66tnz)" rx="12" ry="12" style="stroke:#A80036;stroke-width:2.0;"/><line style="stroke:#A80036;stroke-width:2.0;" x1="638" x2="662" y1="779.2578" y2="779.2578"/><text fill="#000000" font-family="sans-serif" font-size="14" lengthAdjust="spacingAndGlyphs" textLength="95" x="690" y="746.1816">Transfer Agent</text><ellipse cx="740.5" cy="765.2578" fill="#FEFECE" filter="url(#felykv0i66tnz)" rx="12" ry="12" style="stroke:#A80036;stroke-width:2.0;"/><polygon fill="#A80036" points="736.5,753.2578,742.5,748.2578,740.5,753.2578,742.5,758.2578,736.5,753.2578" style="stroke:#A80036;stroke-width:1.0;"/><rect fill="#FFFFFF" filter="url(#felykv0i66tnz)" height="216.3672" style="stroke:#A80036;stroke-width:1.0;" width="10" x="214.5" y="317.2656"/><polygon fill="#A80036" points="537,154.6016,547,158.6016,537,162.6016,541,158.6016" style="stroke:#A80036;stroke-width:1.0;"/><line style="stroke:#A80036;stroke-width:1.0;" x1="479" x2="543" y1="158.6016" y2="158.6016"/><text fill="#000000" font-family="sans-serif" font-size="13" lengthAdjust="spacingAndGlyphs" textLength="46" x="486" y="153.7451">launch()</text><text fill="#000000" font-family="sans-serif" font-size="14" lengthAdjust="spacingAndGlyphs" textLength="55" x="549" y="182.7832">Dispatch</text><ellipse cx="579.5" cy="152.25" fill="#FEFECE" filter="url(#felykv0i66tnz)" rx="12" ry="12" style="stroke:#A80036;stroke-width:2.0;"/><polygon fill="#A80036" points="398.5,214.2109,388.5,218.2109,398.5,222.2109,394.5,218.2109" style="stroke:#A80036;stroke-width:1.0;"/><line style="stroke:#A80036;stroke-width:1.0;" x1="392.5" x2="578.5" y1="218.2109" y2="218.2109"/><text fill="#000000" font-family="sans-serif" font-size="13" lengthAdjust="spacingAndGlyphs" textLength="100" x="404.5" y="213.3545">register(endpoint)</text><polygon fill="#A80036" points="375.5,244.5625,385.5,248.5625,375.5,252.5625,379.5,248.5625" style="stroke:#A80036;stroke-width:1.0;"/><line style="stroke:#A80036;stroke-width:1.0;" x1="219.5" x2="381.5" y1="248.5625" y2="248.5625"/><text fill="#000000" font-family="sans-serif" font-size="13" lengthAdjust="spacingAndGlyphs" textLength="84" x="226.5" y="243.7061">fetchSources()</text><polygon fill="#A80036" points="230.5,274.9141,220.5,278.9141,230.5,282.9141,226.5,278.9141" style="stroke:#A80036;stroke-width:1.0;"/><line style="stroke:#A80036;stroke-width:1.0;stroke-dasharray:2.0,2.0;" x1="224.5" x2="386.5" y1="278.9141" y2="278.9141"/><text fill="#000000" font-family="sans-serif" font-size="13" lengthAdjust="spacingAndGlyphs" textLength="90" x="236.5" y="274.0576">return(endpoint)</text><line style="stroke:#A80036;stroke-width:1.0;" x1="219.5" x2="266.5" y1="304.2656" y2="304.2656"/><line style="stroke:#A80036;stroke-width:1.0;" x1="266.5" x2="266.5" y1="304.2656" y2="317.2656"/><line style="stroke:#A80036;stroke-width:1.0;" x1="225.5" x2="266.5" y1="317.2656" y2="317.2656"/><polygon fill="#A80036" points="235.5,313.2656,225.5,317.2656,235.5,321.2656,231.5,317.2656" style="stroke:#A80036;stroke-width:1.0;"/><text fill="#000000" font-family="sans-serif" font-size="13" lengthAdjust="spacingAndGlyphs" textLength="154" x="231.5" y="299.4092">populateSources(enpoints)</text><polygon fill="#A80036" points="202.5,348.6172,212.5,352.6172,202.5,356.6172,206.5,352.6172" style="stroke:#A80036;stroke-width:1.0;"/><line style="stroke:#A80036;stroke-width:1.0;" x1="22.5" x2="208.5" y1="352.6172" y2="352.6172"/><text fill="#000000" font-family="sans-serif" font-size="13" lengthAdjust="spacingAndGlyphs" textLength="168" x="29.5" y="347.7607">startRecoring(selectedCams)</text><polygon fill="#A80036" points="567.5,378.9688,577.5,382.9688,567.5,386.9688,571.5,382.9688" style="stroke:#A80036;stroke-width:1.0;"/><line style="stroke:#A80036;stroke-width:1.0;" x1="224.5" x2="573.5" y1="382.9688" y2="382.9688"/><text fill="#000000" font-family="sans-serif" font-size="13" lengthAdjust="spacingAndGlyphs" textLength="163" x="231.5" y="378.1123">command(record, metadata)</text><polygon fill="#A80036" points="490,409.3203,480,413.3203,490,417.3203,486,413.3203" style="stroke:#A80036;stroke-width:1.0;"/><line style="stroke:#A80036;stroke-width:1.0;" x1="484" x2="578.5" y1="413.3203" y2="413.3203"/><text fill="#000000" font-family="sans-serif" font-size="13" lengthAdjust="spacingAndGlyphs" textLength="44" x="496" y="408.4639">record()</text><polygon fill="#A80036" points="608,439.6719,618,443.6719,608,447.6719,612,443.6719" style="stroke:#A80036;stroke-width:1.0;"/><line style="stroke:#A80036;stroke-width:1.0;" x1="479" x2="614" y1="443.6719" y2="443.6719"/><text fill="#000000" font-family="sans-serif" font-size="13" lengthAdjust="spacingAndGlyphs" textLength="44" x="486" y="438.8154">create()</text><text fill="#000000" font-family="sans-serif" font-size="14" lengthAdjust="spacingAndGlyphs" textLength="54" x="620" y="467.8535">File Sink</text><ellipse cx="650" cy="437.3203" fill="#FEFECE" filter="url(#felykv0i66tnz)" rx="12" ry="12" style="stroke:#A80036;stroke-width:2.0;"/><line style="stroke:#A80036;stroke-width:2.0;" x1="638" x2="662" y1="451.3203" y2="451.3203"/><polygon fill="#A80036" points="202.5,499.2813,212.5,503.2813,202.5,507.2813,206.5,503.2813" style="stroke:#A80036;stroke-width:1.0;"/><line style="stroke:#A80036;stroke-width:1.0;" x1="22.5" x2="208.5" y1="503.2813" y2="503.2813"/><text fill="#000000" font-family="sans-serif" font-size="13" lengthAdjust="spacingAndGlyphs" textLength="91" x="29.5" y="498.4248">stopRecording()</text><polygon fill="#A80036" points="567.5,529.6328,577.5,533.6328,567.5,537.6328,571.5,533.6328" style="stroke:#A80036;stroke-width:1.0;"/><line style="stroke:#A80036;stroke-width:1.0;" x1="219.5" x2="573.5" y1="533.6328" y2="533.6328"/><text fill="#000000" font-family="sans-serif" font-size="13" lengthAdjust="spacingAndGlyphs" textLength="91" x="226.5" y="528.7764">command(save)</text><polygon fill="#A80036" points="490,559.9844,480,563.9844,490,567.9844,486,563.9844" style="stroke:#A80036;stroke-width:1.0;"/><line style="stroke:#A80036;stroke-width:1.0;" x1="484" x2="578.5" y1="563.9844" y2="563.9844"/><text fill="#000000" font-family="sans-serif" font-size="13" lengthAdjust="spacingAndGlyphs" textLength="34" x="496" y="559.1279">save()</text><polygon fill="#A80036" points="678,590.3359,688,594.3359,678,598.3359,682,594.3359" style="stroke:#A80036;stroke-width:1.0;"/><line style="stroke:#A80036;stroke-width:1.0;" x1="479" x2="684" y1="594.3359" y2="594.3359"/><text fill="#000000" font-family="sans-serif" font-size="13" lengthAdjust="spacingAndGlyphs" textLength="99" x="486" y="589.4795">host(videoFileUrl)</text><text fill="#000000" font-family="sans-serif" font-size="14" lengthAdjust="spacingAndGlyphs" textLength="95" x="690" y="618.5176">Transfer Agent</text><ellipse cx="740.5" cy="587.9844" fill="#FEFECE" filter="url(#felykv0i66tnz)" rx="12" ry="12" style="stroke:#A80036;stroke-width:2.0;"/><polygon fill="#A80036" points="736.5,575.9844,742.5,570.9844,740.5,575.9844,742.5,580.9844,736.5,575.9844" style="stroke:#A80036;stroke-width:1.0;"/><polygon fill="#A80036" points="230.5,649.9453,220.5,653.9453,230.5,657.9453,226.5,653.9453" style="stroke:#A80036;stroke-width:1.0;"/><line style="stroke:#A80036;stroke-width:1.0;stroke-dasharray:2.0,2.0;" x1="224.5" x2="578.5" y1="653.9453" y2="653.9453"/><text fill="#000000" font-family="sans-serif" font-size="13" lengthAdjust="spacingAndGlyphs" textLength="154" x="236.5" y="649.0889">command(endpoint, fileUrl)</text><polygon fill="#A80036" points="728.5,680.2969,738.5,684.2969,728.5,688.2969,732.5,684.2969" style="stroke:#A80036;stroke-width:1.0;"/><line style="stroke:#A80036;stroke-width:1.0;" x1="219.5" x2="734.5" y1="684.2969" y2="684.2969"/><text fill="#000000" font-family="sans-serif" font-size="13" lengthAdjust="spacingAndGlyphs" textLength="83" x="226.5" y="679.4404">fetchVideo(url)</text><polygon fill="#A80036" points="230.5,710.6484,220.5,714.6484,230.5,718.6484,226.5,714.6484" style="stroke:#A80036;stroke-width:1.0;"/><line style="stroke:#A80036;stroke-width:1.0;stroke-dasharray:2.0,2.0;" x1="224.5" x2="739.5" y1="714.6484" y2="714.6484"/><text fill="#000000" font-family="sans-serif" font-size="13" lengthAdjust="spacingAndGlyphs" textLength="112" x="236.5" y="709.792">return(videoStream)</text><!--MD5=[5d0cc29280bd34774f96d2e68fdf0389]
@startuml Mobile Phone under Server Control 

title Mobile Phone under Server Control 
actor "User" as usr
control "Control Domain" as ctrl

control "Directory Service" as dir
boundary "Mobile" as mbl
create control "Dispatch" as dspm
mbl -> dspm: launch()
dspm -> dir: register(endpoint)

ctrl -> dir: fetchSources()
dir - -> ctrl: return(endpoint)
ctrl -> ctrl: populateSources(enpoints)

activate ctrl
usr -> ctrl: startRecoring(selectedCams)
ctrl -> dspm: command(record, metadata)
dspm -> mbl: record()
create entity "File Sink" as snk
mbl -> snk: create()
usr -> ctrl: stopRecording()
ctrl -> dspm: command(save)
deactivate ctrl

dspm -> mbl: save()
create control "Transfer Agent" as trsfr
mbl -> trsfr: host(videoFileUrl)
dspm - -> ctrl: command(endpoint, fileUrl)
ctrl -> trsfr: fetchVideo(url)
trsfr - -> ctrl: return(videoStream)

@enduml

PlantUML version 1.2020.22(Sun Dec 06 15:06:27 IST 2020)
(GPL source distribution)
Java Runtime: OpenJDK Runtime Environment
JVM: OpenJDK 64-Bit Server VM
Default Encoding: Cp1252
Language: en
Country: IN
--></g></svg>