<?xml version="1.0" encoding="UTF-8" standalone="no"?><svg xmlns="http://www.w3.org/2000/svg" xmlns:xlink="http://www.w3.org/1999/xlink" contentScriptType="application/ecmascript" contentStyleType="text/css" height="564px" preserveAspectRatio="none" style="width:503px;height:564px;" version="1.1" viewBox="0 0 503 564" width="503px" zoomAndPan="magnify"><defs><filter height="300%" id="fb9bil6xrsy8f" width="300%" x="-1" y="-1"><feGaussianBlur result="blurOut" stdDeviation="2.0"/><feColorMatrix in="blurOut" result="blurOut2" type="matrix" values="0 0 0 0 0 0 0 0 0 0 0 0 0 0 0 0 0 0 .4 0"/><feOffset dx="4.0" dy="4.0" in="blurOut2" result="blurOut3"/><feBlend in="SourceGraphic" in2="blurOut3" mode="normal"/></filter></defs><g><text fill="#000000" font-family="sans-serif" font-size="18" lengthAdjust="spacingAndGlyphs" textLength="288" x="108" y="30.6855">Mobile Phone under Manual Control</text><line style="stroke:#A80036;stroke-width:1.0;stroke-dasharray:5.0,5.0;" x1="22" x2="22" y1="126.25" y2="479.0234"/><line style="stroke:#A80036;stroke-width:1.0;stroke-dasharray:5.0,5.0;" x1="182.5" x2="182.5" y1="126.25" y2="479.0234"/><line style="stroke:#A80036;stroke-width:1.0;stroke-dasharray:5.0,5.0;" x1="393" x2="393" y1="126.25" y2="479.0234"/><line style="stroke:#A80036;stroke-width:1.0;stroke-dasharray:5.0,5.0;" x1="477" x2="477" y1="236.7578" y2="479.0234"/><text fill="#000000" font-family="sans-serif" font-size="14" lengthAdjust="spacingAndGlyphs" textLength="29" x="5" y="123.1738">User</text><ellipse cx="22.5" cy="51.6406" fill="#FEFECE" filter="url(#fb9bil6xrsy8f)" rx="8" ry="8" style="stroke:#A80036;stroke-width:2.0;"/><path d="M22.5,59.6406 L22.5,86.6406 M9.5,67.6406 L35.5,67.6406 M22.5,86.6406 L9.5,101.6406 M22.5,86.6406 L35.5,101.6406 " fill="none" filter="url(#fb9bil6xrsy8f)" style="stroke:#A80036;stroke-width:2.0;"/><text fill="#000000" font-family="sans-serif" font-size="14" lengthAdjust="spacingAndGlyphs" textLength="29" x="5" y="492.5566">User</text><ellipse cx="22.5" cy="505.6328" fill="#FEFECE" filter="url(#fb9bil6xrsy8f)" rx="8" ry="8" style="stroke:#A80036;stroke-width:2.0;"/><path d="M22.5,513.6328 L22.5,540.6328 M9.5,521.6328 L35.5,521.6328 M22.5,540.6328 L9.5,555.6328 M22.5,540.6328 L35.5,555.6328 " fill="none" filter="url(#fb9bil6xrsy8f)" style="stroke:#A80036;stroke-width:2.0;"/><text fill="#000000" font-family="sans-serif" font-size="14" lengthAdjust="spacingAndGlyphs" textLength="70" x="144.5" y="123.1738">Mobile App</text><path d="M162,80.6406 L162,104.6406 M162,92.6406 L179,92.6406 " fill="none" filter="url(#fb9bil6xrsy8f)" style="stroke:#A80036;stroke-width:2.0;"/><ellipse cx="191" cy="92.6406" fill="#FEFECE" filter="url(#fb9bil6xrsy8f)" rx="12" ry="12" style="stroke:#A80036;stroke-width:2.0;"/><text fill="#000000" font-family="sans-serif" font-size="14" lengthAdjust="spacingAndGlyphs" textLength="70" x="144.5" y="492.5566">Mobile App</text><path d="M162,499.6328 L162,523.6328 M162,511.6328 L179,511.6328 " fill="none" filter="url(#fb9bil6xrsy8f)" style="stroke:#A80036;stroke-width:2.0;"/><ellipse cx="191" cy="511.6328" fill="#FEFECE" filter="url(#fb9bil6xrsy8f)" rx="12" ry="12" style="stroke:#A80036;stroke-width:2.0;"/><rect fill="#FEFECE" filter="url(#fb9bil6xrsy8f)" height="31.6094" style="stroke:#A80036;stroke-width:1.5;" width="101" x="341" y="89.6406"/><text fill="#000000" font-family="sans-serif" font-size="14" lengthAdjust="spacingAndGlyphs" textLength="87" x="348" y="111.1738">Azure Service</text><rect fill="#FEFECE" filter="url(#fb9bil6xrsy8f)" height="31.6094" style="stroke:#A80036;stroke-width:1.5;" width="101" x="341" y="478.0234"/><text fill="#000000" font-family="sans-serif" font-size="14" lengthAdjust="spacingAndGlyphs" textLength="87" x="348" y="499.5566">Azure Service</text><text fill="#000000" font-family="sans-serif" font-size="14" lengthAdjust="spacingAndGlyphs" textLength="37" x="456" y="492.5566">Matrix</text><ellipse cx="477.5" cy="511.6328" fill="#FEFECE" filter="url(#fb9bil6xrsy8f)" rx="12" ry="12" style="stroke:#A80036;stroke-width:2.0;"/><line style="stroke:#A80036;stroke-width:2.0;" x1="465.5" x2="489.5" y1="525.6328" y2="525.6328"/><polygon fill="#A80036" points="381.5,154.6016,391.5,158.6016,381.5,162.6016,385.5,158.6016" style="stroke:#A80036;stroke-width:1.0;"/><line style="stroke:#A80036;stroke-width:1.0;" x1="182.5" x2="387.5" y1="158.6016" y2="158.6016"/><text fill="#000000" font-family="sans-serif" font-size="13" lengthAdjust="spacingAndGlyphs" textLength="107" x="189.5" y="153.7451">register(user, pwd)</text><polygon fill="#A80036" points="170.5,184.9531,180.5,188.9531,170.5,192.9531,174.5,188.9531" style="stroke:#A80036;stroke-width:1.0;"/><line style="stroke:#A80036;stroke-width:1.0;" x1="22.5" x2="176.5" y1="188.9531" y2="188.9531"/><text fill="#000000" font-family="sans-serif" font-size="13" lengthAdjust="spacingAndGlyphs" textLength="105" x="29.5" y="184.0967">createNewMatrix()</text><polygon fill="#A80036" points="444,215.3047,454,219.3047,444,223.3047,448,219.3047" style="stroke:#A80036;stroke-width:1.0;"/><line style="stroke:#A80036;stroke-width:1.0;" x1="182.5" x2="450" y1="219.3047" y2="219.3047"/><text fill="#000000" font-family="sans-serif" font-size="13" lengthAdjust="spacingAndGlyphs" textLength="44" x="189.5" y="214.4482">create()</text><text fill="#000000" font-family="sans-serif" font-size="14" lengthAdjust="spacingAndGlyphs" textLength="37" x="456" y="243.4863">Matrix</text><ellipse cx="477.5" cy="212.9531" fill="#FEFECE" filter="url(#fb9bil6xrsy8f)" rx="12" ry="12" style="stroke:#A80036;stroke-width:2.0;"/><line style="stroke:#A80036;stroke-width:2.0;" x1="465.5" x2="489.5" y1="226.9531" y2="226.9531"/><polygon fill="#A80036" points="170.5,274.9141,180.5,278.9141,170.5,282.9141,174.5,278.9141" style="stroke:#A80036;stroke-width:1.0;"/><line style="stroke:#A80036;stroke-width:1.0;" x1="22.5" x2="176.5" y1="278.9141" y2="278.9141"/><text fill="#000000" font-family="sans-serif" font-size="13" lengthAdjust="spacingAndGlyphs" textLength="44" x="29.5" y="274.0576">record()</text><polygon fill="#A80036" points="465.5,305.2656,475.5,309.2656,465.5,313.2656,469.5,309.2656" style="stroke:#A80036;stroke-width:1.0;"/><line style="stroke:#A80036;stroke-width:1.0;" x1="182.5" x2="471.5" y1="309.2656" y2="309.2656"/><text fill="#000000" font-family="sans-serif" font-size="13" lengthAdjust="spacingAndGlyphs" textLength="103" x="189.5" y="304.4092">createVideoSink()</text><polygon fill="#A80036" points="170.5,335.6172,180.5,339.6172,170.5,343.6172,174.5,339.6172" style="stroke:#A80036;stroke-width:1.0;"/><line style="stroke:#A80036;stroke-width:1.0;" x1="22.5" x2="176.5" y1="339.6172" y2="339.6172"/><text fill="#000000" font-family="sans-serif" font-size="13" lengthAdjust="spacingAndGlyphs" textLength="33" x="29.5" y="334.7607">stop()</text><polygon fill="#A80036" points="465.5,365.9688,475.5,369.9688,465.5,373.9688,469.5,369.9688" style="stroke:#A80036;stroke-width:1.0;"/><line style="stroke:#A80036;stroke-width:1.0;" x1="182.5" x2="471.5" y1="369.9688" y2="369.9688"/><text fill="#000000" font-family="sans-serif" font-size="13" lengthAdjust="spacingAndGlyphs" textLength="81" x="189.5" y="365.1123">saveVideo(url)</text><polygon fill="#A80036" points="170.5,396.3203,180.5,400.3203,170.5,404.3203,174.5,400.3203" style="stroke:#A80036;stroke-width:1.0;"/><line style="stroke:#A80036;stroke-width:1.0;" x1="22.5" x2="176.5" y1="400.3203" y2="400.3203"/><text fill="#000000" font-family="sans-serif" font-size="13" lengthAdjust="spacingAndGlyphs" textLength="136" x="29.5" y="395.4639">uploadMatrix(metadata)</text><polygon fill="#A80036" points="381.5,426.6719,391.5,430.6719,381.5,434.6719,385.5,430.6719" style="stroke:#A80036;stroke-width:1.0;"/><line style="stroke:#A80036;stroke-width:1.0;" x1="182.5" x2="387.5" y1="430.6719" y2="430.6719"/><text fill="#000000" font-family="sans-serif" font-size="13" lengthAdjust="spacingAndGlyphs" textLength="187" x="189.5" y="425.8154">upload(matrix{metadata, media})</text><polygon fill="#A80036" points="193.5,457.0234,183.5,461.0234,193.5,465.0234,189.5,461.0234" style="stroke:#A80036;stroke-width:1.0;"/><line style="stroke:#A80036;stroke-width:1.0;stroke-dasharray:2.0,2.0;" x1="187.5" x2="392.5" y1="461.0234" y2="461.0234"/><text fill="#000000" font-family="sans-serif" font-size="13" lengthAdjust="spacingAndGlyphs" textLength="122" x="199.5" y="456.167">return(azureVideoUrl)</text><!--MD5=[01b0ac8a1ba2d3290aee6aa3db2760a2]
@startuml Mobile Phone under Manual Control 
title Mobile Phone under Manual Control 
actor "User" as usr
boundary "Mobile App" as app
app -> "Azure Service" as azr: register(user, pwd)
usr -> app: createNewMatrix()
create entity "Matrix" as mtx
app -> mtx: create()
usr -> app: record()
app -> mtx: createVideoSink()
usr -> app: stop()
app -> mtx: saveVideo(url)
usr -> app: uploadMatrix(metadata)
app -> azr: upload(matrix{metadata, media})
azr - -> app: return(azureVideoUrl)
@enduml

PlantUML version 1.2020.22(Sun Dec 06 15:06:27 IST 2020)
(GPL source distribution)
Java Runtime: OpenJDK Runtime Environment
JVM: OpenJDK 64-Bit Server VM
Default Encoding: Cp1252
Language: en
Country: IN
--></g></svg>