<?xml version="1.0" encoding="UTF-8" standalone="no"?><svg xmlns="http://www.w3.org/2000/svg" xmlns:xlink="http://www.w3.org/1999/xlink" contentScriptType="application/ecmascript" contentStyleType="text/css" height="860px" preserveAspectRatio="none" style="width:1231px;height:860px;" version="1.1" viewBox="0 0 1231 860" width="1231px" zoomAndPan="magnify"><defs><filter height="300%" id="fs1w8sfnxxnk5" width="300%" x="-1" y="-1"><feGaussianBlur result="blurOut" stdDeviation="2.0"/><feColorMatrix in="blurOut" result="blurOut2" type="matrix" values="0 0 0 0 0 0 0 0 0 0 0 0 0 0 0 0 0 0 .4 0"/><feOffset dx="4.0" dy="4.0" in="blurOut2" result="blurOut3"/><feBlend in="SourceGraphic" in2="blurOut3" mode="normal"/></filter></defs><g><text fill="#000000" font-family="sans-serif" font-size="18" lengthAdjust="spacingAndGlyphs" textLength="281" x="471.5" y="30.6855">File Transfer Style Implementations</text><rect fill="#DDDDDD" height="811.7266" style="stroke:#A80036;stroke-width:1.0;" width="192" x="308.5" y="42.6406"/><text fill="#000000" font-family="sans-serif" font-size="13" font-weight="bold" lengthAdjust="spacingAndGlyphs" textLength="166" x="319.5" y="56.1357">[serialized on the sender's</text><text fill="#000000" font-family="sans-serif" font-size="13" font-weight="bold" lengthAdjust="spacingAndGlyphs" textLength="155" x="327" y="72.4873">device, but not visible to</text><text fill="#000000" font-family="sans-serif" font-size="13" font-weight="bold" lengthAdjust="spacingAndGlyphs" textLength="186" x="311.5" y="88.8389">the application after sending]</text><rect fill="#DDDDDD" height="811.7266" style="stroke:#A80036;stroke-width:1.0;" width="158" x="659" y="42.6406"/><text fill="#000000" font-family="sans-serif" font-size="13" font-weight="bold" lengthAdjust="spacingAndGlyphs" textLength="152" x="662" y="56.1357">[running in background]</text><rect fill="#DDDDDD" height="811.7266" style="stroke:#A80036;stroke-width:1.0;" width="285" x="908" y="42.6406"/><text fill="#000000" font-family="sans-serif" font-size="13" font-weight="bold" lengthAdjust="spacingAndGlyphs" textLength="209" x="946" y="56.1357">The file transfer client can follow</text><text fill="#000000" font-family="sans-serif" font-size="13" font-weight="bold" lengthAdjust="spacingAndGlyphs" textLength="188" x="956.5" y="72.4873">any of the available protocols</text><text fill="#000000" font-family="sans-serif" font-size="13" font-weight="bold" lengthAdjust="spacingAndGlyphs" textLength="189" x="956" y="88.8389">used for file transfer and most</text><text fill="#000000" font-family="sans-serif" font-size="13" font-weight="bold" lengthAdjust="spacingAndGlyphs" textLength="185" x="958" y="105.1904">appropriate for our use-cases</text><line style="stroke:#A80036;stroke-width:1.0;stroke-dasharray:5.0,5.0;" x1="22" x2="22" y1="162.9141" y2="766.7578"/><line style="stroke:#A80036;stroke-width:1.0;stroke-dasharray:5.0,5.0;" x1="103" x2="103" y1="162.9141" y2="766.7578"/><line style="stroke:#A80036;stroke-width:1.0;stroke-dasharray:5.0,5.0;" x1="404" x2="404" y1="162.9141" y2="766.7578"/><line style="stroke:#A80036;stroke-width:1.0;stroke-dasharray:5.0,5.0;" x1="572.5" x2="572.5" y1="162.9141" y2="766.7578"/><line style="stroke:#A80036;stroke-width:1.0;stroke-dasharray:5.0,5.0;" x1="738" x2="738" y1="206.2188" y2="766.7578"/><line style="stroke:#A80036;stroke-width:1.0;stroke-dasharray:5.0,5.0;" x1="862" x2="862" y1="162.9141" y2="766.7578"/><line style="stroke:#A80036;stroke-width:1.0;stroke-dasharray:5.0,5.0;" x1="978" x2="978" y1="549.2148" y2="766.7578"/><line style="stroke:#A80036;stroke-width:1.0;stroke-dasharray:5.0,5.0;" x1="1125" x2="1125" y1="676.25" y2="766.7578"/><text fill="#000000" font-family="sans-serif" font-size="14" lengthAdjust="spacingAndGlyphs" textLength="29" x="5" y="159.8379">User</text><ellipse cx="22.5" cy="88.3047" fill="#FEFECE" filter="url(#fs1w8sfnxxnk5)" rx="8" ry="8" style="stroke:#A80036;stroke-width:2.0;"/><path d="M22.5,96.3047 L22.5,123.3047 M9.5,104.3047 L35.5,104.3047 M22.5,123.3047 L9.5,138.3047 M22.5,123.3047 L35.5,138.3047 " fill="none" filter="url(#fs1w8sfnxxnk5)" style="stroke:#A80036;stroke-width:2.0;"/><text fill="#000000" font-family="sans-serif" font-size="14" lengthAdjust="spacingAndGlyphs" textLength="29" x="5" y="780.291">User</text><ellipse cx="22.5" cy="793.3672" fill="#FEFECE" filter="url(#fs1w8sfnxxnk5)" rx="8" ry="8" style="stroke:#A80036;stroke-width:2.0;"/><path d="M22.5,801.3672 L22.5,828.3672 M9.5,809.3672 L35.5,809.3672 M22.5,828.3672 L9.5,843.3672 M22.5,828.3672 L35.5,843.3672 " fill="none" filter="url(#fs1w8sfnxxnk5)" style="stroke:#A80036;stroke-width:2.0;"/><text fill="#000000" font-family="sans-serif" font-size="14" lengthAdjust="spacingAndGlyphs" textLength="100" x="50" y="159.8379">Tagging UI/iPad</text><path d="M82.5,117.3047 L82.5,141.3047 M82.5,129.3047 L99.5,129.3047 " fill="none" filter="url(#fs1w8sfnxxnk5)" style="stroke:#A80036;stroke-width:2.0;"/><ellipse cx="111.5" cy="129.3047" fill="#FEFECE" filter="url(#fs1w8sfnxxnk5)" rx="12" ry="12" style="stroke:#A80036;stroke-width:2.0;"/><text fill="#000000" font-family="sans-serif" font-size="14" lengthAdjust="spacingAndGlyphs" textLength="100" x="50" y="780.291">Tagging UI/iPad</text><path d="M82.5,787.3672 L82.5,811.3672 M82.5,799.3672 L99.5,799.3672 " fill="none" filter="url(#fs1w8sfnxxnk5)" style="stroke:#A80036;stroke-width:2.0;"/><ellipse cx="111.5" cy="799.3672" fill="#FEFECE" filter="url(#fs1w8sfnxxnk5)" rx="12" ry="12" style="stroke:#A80036;stroke-width:2.0;"/><text fill="#000000" font-family="sans-serif" font-size="14" lengthAdjust="spacingAndGlyphs" textLength="104" x="349.5" y="142.2285">Message Queue</text><text fill="#000000" font-family="sans-serif" font-size="14" lengthAdjust="spacingAndGlyphs" textLength="111" x="346" y="159.8379">(ZMQ, RabbitMQ)</text><ellipse cx="404.5" cy="111.6953" fill="#FEFECE" filter="url(#fs1w8sfnxxnk5)" rx="12" ry="12" style="stroke:#A80036;stroke-width:2.0;"/><line style="stroke:#A80036;stroke-width:2.0;" x1="392.5" x2="416.5" y1="125.6953" y2="125.6953"/><text fill="#000000" font-family="sans-serif" font-size="14" lengthAdjust="spacingAndGlyphs" textLength="104" x="349.5" y="780.291">Message Queue</text><text fill="#000000" font-family="sans-serif" font-size="14" lengthAdjust="spacingAndGlyphs" textLength="111" x="346" y="797.9004">(ZMQ, RabbitMQ)</text><ellipse cx="404.5" cy="816.9766" fill="#FEFECE" filter="url(#fs1w8sfnxxnk5)" rx="12" ry="12" style="stroke:#A80036;stroke-width:2.0;"/><line style="stroke:#A80036;stroke-width:2.0;" x1="392.5" x2="416.5" y1="830.9766" y2="830.9766"/><text fill="#000000" font-family="sans-serif" font-size="14" lengthAdjust="spacingAndGlyphs" textLength="127" x="506.5" y="142.2285">Streaming/Encoding</text><text fill="#000000" font-family="sans-serif" font-size="14" lengthAdjust="spacingAndGlyphs" textLength="47" x="546.5" y="159.8379">Service</text><ellipse cx="573" cy="111.6953" fill="#FEFECE" filter="url(#fs1w8sfnxxnk5)" rx="12" ry="12" style="stroke:#A80036;stroke-width:2.0;"/><polygon fill="#A80036" points="569,99.6953,575,94.6953,573,99.6953,575,104.6953,569,99.6953" style="stroke:#A80036;stroke-width:1.0;"/><text fill="#000000" font-family="sans-serif" font-size="14" lengthAdjust="spacingAndGlyphs" textLength="127" x="506.5" y="780.291">Streaming/Encoding</text><text fill="#000000" font-family="sans-serif" font-size="14" lengthAdjust="spacingAndGlyphs" textLength="47" x="546.5" y="797.9004">Service</text><ellipse cx="573" cy="816.9766" fill="#FEFECE" filter="url(#fs1w8sfnxxnk5)" rx="12" ry="12" style="stroke:#A80036;stroke-width:2.0;"/><polygon fill="#A80036" points="569,804.9766,575,799.9766,573,804.9766,575,809.9766,569,804.9766" style="stroke:#A80036;stroke-width:1.0;"/><rect fill="#FEFECE" filter="url(#fs1w8sfnxxnk5)" height="31.6094" style="stroke:#A80036;stroke-width:1.5;" width="82" x="695" y="765.7578"/><text fill="#000000" font-family="sans-serif" font-size="14" lengthAdjust="spacingAndGlyphs" textLength="68" x="702" y="787.291">Dispatcher</text><rect fill="#FEFECE" filter="url(#fs1w8sfnxxnk5)" height="31.6094" style="stroke:#A80036;stroke-width:1.5;" width="71" x="827" y="122.3047"/><rect fill="#FEFECE" filter="url(#fs1w8sfnxxnk5)" height="31.6094" style="stroke:#A80036;stroke-width:1.5;" width="71" x="823" y="126.3047"/><text fill="#000000" font-family="sans-serif" font-size="14" lengthAdjust="spacingAndGlyphs" textLength="57" x="830" y="147.8379">Cameras</text><rect fill="#FEFECE" filter="url(#fs1w8sfnxxnk5)" height="31.6094" style="stroke:#A80036;stroke-width:1.5;" width="71" x="827" y="765.7578"/><rect fill="#FEFECE" filter="url(#fs1w8sfnxxnk5)" height="31.6094" style="stroke:#A80036;stroke-width:1.5;" width="71" x="823" y="769.7578"/><text fill="#000000" font-family="sans-serif" font-size="14" lengthAdjust="spacingAndGlyphs" textLength="57" x="830" y="791.291">Cameras</text><text fill="#000000" font-family="sans-serif" font-size="14" lengthAdjust="spacingAndGlyphs" textLength="127" x="912" y="780.291">File Transfer Server</text><ellipse cx="978.5" cy="799.3672" fill="#FEFECE" filter="url(#fs1w8sfnxxnk5)" rx="12" ry="12" style="stroke:#A80036;stroke-width:2.0;"/><polygon fill="#A80036" points="974.5,787.3672,980.5,782.3672,978.5,787.3672,980.5,792.3672,974.5,787.3672" style="stroke:#A80036;stroke-width:1.0;"/><text fill="#000000" font-family="sans-serif" font-size="14" lengthAdjust="spacingAndGlyphs" textLength="121" x="1062" y="780.291">File Transfer Client</text><ellipse cx="1125.5" cy="799.3672" fill="#FEFECE" filter="url(#fs1w8sfnxxnk5)" rx="12" ry="12" style="stroke:#A80036;stroke-width:2.0;"/><polygon fill="#A80036" points="1121.5,787.3672,1127.5,782.3672,1125.5,787.3672,1127.5,792.3672,1121.5,787.3672" style="stroke:#A80036;stroke-width:1.0;"/><polygon fill="#A80036" points="683,191.2656,693,195.2656,683,199.2656,687,195.2656" style="stroke:#A80036;stroke-width:1.0;"/><line style="stroke:#A80036;stroke-width:1.0;" x1="573" x2="689" y1="195.2656" y2="195.2656"/><text fill="#000000" font-family="sans-serif" font-size="13" lengthAdjust="spacingAndGlyphs" textLength="34" x="580" y="190.4092">start()</text><rect fill="#FEFECE" filter="url(#fs1w8sfnxxnk5)" height="31.6094" style="stroke:#A80036;stroke-width:1.5;" width="82" x="695" y="172.9141"/><text fill="#000000" font-family="sans-serif" font-size="14" lengthAdjust="spacingAndGlyphs" textLength="68" x="702" y="194.4473">Dispatcher</text><rect fill="#EEEEEE" filter="url(#fs1w8sfnxxnk5)" height="3" style="stroke:#EEEEEE;stroke-width:1.0;" width="1224" x="0" y="240.6992"/><line style="stroke:#000000;stroke-width:1.0;" x1="0" x2="1224" y1="240.6992" y2="240.6992"/><line style="stroke:#000000;stroke-width:1.0;" x1="0" x2="1224" y1="243.6992" y2="243.6992"/><rect fill="#EEEEEE" filter="url(#fs1w8sfnxxnk5)" height="24.3516" style="stroke:#000000;stroke-width:2.0;" width="117" x="553.5" y="229.5234"/><text fill="#000000" font-family="sans-serif" font-size="13" font-weight="bold" lengthAdjust="spacingAndGlyphs" textLength="99" x="559.5" y="247.0186">Start Recording</text><path d="M59,268.875 L59,327.875 L906,327.875 L906,278.875 L896,268.875 L59,268.875 " fill="#FBFB77" filter="url(#fs1w8sfnxxnk5)" style="stroke:#A80036;stroke-width:1.0;"/><path d="M896,268.875 L896,278.875 L906,278.875 L896,268.875 " fill="#FBFB77" style="stroke:#A80036;stroke-width:1.0;"/><text fill="#000000" font-family="sans-serif" font-size="13" lengthAdjust="spacingAndGlyphs" textLength="182" x="353.5" y="287.3701">This includes all the sequences</text><text fill="#000000" font-family="sans-serif" font-size="13" lengthAdjust="spacingAndGlyphs" textLength="245" x="353.5" y="303.7217">as mentioned in the message_queue.puml</text><text fill="#000000" font-family="sans-serif" font-size="13" lengthAdjust="spacingAndGlyphs" textLength="50" x="353.5" y="320.0732">diagram.</text><rect fill="#EEEEEE" filter="url(#fs1w8sfnxxnk5)" height="3" style="stroke:#EEEEEE;stroke-width:1.0;" width="1224" x="0" y="358.1055"/><line style="stroke:#000000;stroke-width:1.0;" x1="0" x2="1224" y1="358.1055" y2="358.1055"/><line style="stroke:#000000;stroke-width:1.0;" x1="0" x2="1224" y1="361.1055" y2="361.1055"/><rect fill="#EEEEEE" filter="url(#fs1w8sfnxxnk5)" height="24.3516" style="stroke:#000000;stroke-width:2.0;" width="116" x="554" y="346.9297"/><text fill="#000000" font-family="sans-serif" font-size="13" font-weight="bold" lengthAdjust="spacingAndGlyphs" textLength="98" x="560" y="364.4248">Stop Recording</text><polygon fill="#A80036" points="415.5,399.6328,405.5,403.6328,415.5,407.6328,411.5,403.6328" style="stroke:#A80036;stroke-width:1.0;"/><line style="stroke:#A80036;stroke-width:1.0;" x1="409.5" x2="737" y1="403.6328" y2="403.6328"/><text fill="#000000" font-family="sans-serif" font-size="13" lengthAdjust="spacingAndGlyphs" textLength="192" x="421.5" y="398.7764">enque(notifyFileSaved{metadata})</text><polygon fill="#A80036" points="392.5,429.9844,402.5,433.9844,392.5,437.9844,396.5,433.9844" style="stroke:#A80036;stroke-width:1.0;"/><line style="stroke:#A80036;stroke-width:1.0;" x1="103" x2="398.5" y1="433.9844" y2="433.9844"/><text fill="#000000" font-family="sans-serif" font-size="13" lengthAdjust="spacingAndGlyphs" textLength="192" x="110" y="429.1279">deque(notifyFileSaved{metadata})</text><polygon fill="#A80036" points="392.5,460.3359,402.5,464.3359,392.5,468.3359,396.5,464.3359" style="stroke:#A80036;stroke-width:1.0;"/><line style="stroke:#A80036;stroke-width:1.0;" x1="103" x2="398.5" y1="464.3359" y2="464.3359"/><text fill="#000000" font-family="sans-serif" font-size="13" lengthAdjust="spacingAndGlyphs" textLength="166" x="110" y="459.4795">enque(fetchVideo{metadata})</text><polygon fill="#A80036" points="415.5,490.6875,405.5,494.6875,415.5,498.6875,411.5,494.6875" style="stroke:#A80036;stroke-width:1.0;"/><line style="stroke:#A80036;stroke-width:1.0;" x1="409.5" x2="737" y1="494.6875" y2="494.6875"/><text fill="#000000" font-family="sans-serif" font-size="13" lengthAdjust="spacingAndGlyphs" textLength="166" x="421.5" y="489.8311">deque(fetchVideo{metadata})</text><polygon fill="#A80036" points="900,521.0391,910,525.0391,900,529.0391,904,525.0391" style="stroke:#A80036;stroke-width:1.0;"/><line style="stroke:#A80036;stroke-width:1.0;" x1="573" x2="906" y1="525.0391" y2="525.0391"/><text fill="#000000" font-family="sans-serif" font-size="13" lengthAdjust="spacingAndGlyphs" textLength="147" x="580" y="520.1826">open(endpoint, metadata)</text><text fill="#000000" font-family="sans-serif" font-size="14" lengthAdjust="spacingAndGlyphs" textLength="127" x="912" y="555.9434">File Transfer Server</text><ellipse cx="978.5" cy="525.4102" fill="#FEFECE" filter="url(#fs1w8sfnxxnk5)" rx="12" ry="12" style="stroke:#A80036;stroke-width:2.0;"/><polygon fill="#A80036" points="974.5,513.4102,980.5,508.4102,978.5,513.4102,980.5,518.4102,974.5,513.4102" style="stroke:#A80036;stroke-width:1.0;"/><path d="M1049.5,507.6875 L1049.5,566.6875 L1209.5,566.6875 L1209.5,517.6875 L1199.5,507.6875 L1049.5,507.6875 " fill="#FBFB77" filter="url(#fs1w8sfnxxnk5)" style="stroke:#A80036;stroke-width:1.0;"/><path d="M1199.5,507.6875 L1199.5,517.6875 L1209.5,517.6875 L1199.5,507.6875 " fill="#FBFB77" style="stroke:#A80036;stroke-width:1.0;"/><text fill="#000000" font-family="sans-serif" font-size="13" lengthAdjust="spacingAndGlyphs" textLength="134" x="1055.5" y="526.1826">https://en.wikipedia.org</text><text fill="#000000" font-family="sans-serif" font-size="13" lengthAdjust="spacingAndGlyphs" textLength="139" x="1055.5" y="542.5342">/wiki/Comparison_of_file</text><text fill="#000000" font-family="sans-serif" font-size="13" lengthAdjust="spacingAndGlyphs" textLength="110" x="1055.5" y="558.8857">_transfer_protocols</text><polygon fill="#A80036" points="415.5,594.0938,405.5,598.0938,415.5,602.0938,411.5,598.0938" style="stroke:#A80036;stroke-width:1.0;"/><line style="stroke:#A80036;stroke-width:1.0;" x1="409.5" x2="737" y1="598.0938" y2="598.0938"/><text fill="#000000" font-family="sans-serif" font-size="13" lengthAdjust="spacingAndGlyphs" textLength="244" x="421.5" y="593.2373">enque(notifyEndpoint{endpoint, metadata})</text><polygon fill="#A80036" points="392.5,624.4453,402.5,628.4453,392.5,632.4453,396.5,628.4453" style="stroke:#A80036;stroke-width:1.0;"/><line style="stroke:#A80036;stroke-width:1.0;" x1="103" x2="398.5" y1="628.4453" y2="628.4453"/><text fill="#000000" font-family="sans-serif" font-size="13" lengthAdjust="spacingAndGlyphs" textLength="244" x="110" y="623.5889">deque(notifyEndpoint{endpoint, metadata})</text><polygon fill="#A80036" points="1050,654.7969,1060,658.7969,1050,662.7969,1054,658.7969" style="stroke:#A80036;stroke-width:1.0;"/><line style="stroke:#A80036;stroke-width:1.0;" x1="103" x2="1056" y1="658.7969" y2="658.7969"/><text fill="#000000" font-family="sans-serif" font-size="13" lengthAdjust="spacingAndGlyphs" textLength="147" x="110" y="653.9404">open(endpoint, metadata)</text><text fill="#000000" font-family="sans-serif" font-size="14" lengthAdjust="spacingAndGlyphs" textLength="121" x="1062" y="682.9785">File Transfer Client</text><ellipse cx="1125.5" cy="652.4453" fill="#FEFECE" filter="url(#fs1w8sfnxxnk5)" rx="12" ry="12" style="stroke:#A80036;stroke-width:2.0;"/><polygon fill="#A80036" points="1121.5,640.4453,1127.5,635.4453,1125.5,640.4453,1127.5,645.4453,1121.5,640.4453" style="stroke:#A80036;stroke-width:1.0;"/><polygon fill="#A80036" points="989.5,714.4063,979.5,718.4063,989.5,722.4063,985.5,718.4063" style="stroke:#A80036;stroke-width:1.0;"/><line style="stroke:#A80036;stroke-width:1.0;" x1="983.5" x2="1124.5" y1="718.4063" y2="718.4063"/><text fill="#000000" font-family="sans-serif" font-size="13" lengthAdjust="spacingAndGlyphs" textLength="123" x="995.5" y="713.5498">fetchVideo(metadata)</text><polygon fill="#A80036" points="1113.5,744.7578,1123.5,748.7578,1113.5,752.7578,1117.5,748.7578" style="stroke:#A80036;stroke-width:1.0;"/><line style="stroke:#A80036;stroke-width:1.0;stroke-dasharray:2.0,2.0;" x1="978.5" x2="1119.5" y1="748.7578" y2="748.7578"/><text fill="#000000" font-family="sans-serif" font-size="13" lengthAdjust="spacingAndGlyphs" textLength="99" x="985.5" y="743.9014">return(fileStream)</text><!--MD5=[1c111b1b0bea65ba7e081489c0c0fdf1]
@startuml File Transfer Style Implementations 
title File Transfer Style Implementations 
actor "User" as usr
boundary "Tagging UI/iPad" as tag
box [serialized on the sender's \ndevice, but not visible to\nthe application after sending] 
    entity "Message Queue\n(ZMQ, RabbitMQ)" as mq
end box
control "Streaming/Encoding\nService" as strm
box [running in background]
    create "Dispatcher" as dsp
    strm -> dsp: start()
end box
collections "Cameras" as cams
== Start Recording ==
note over tag, cams
This includes all the sequences
as mentioned in the message_queue.puml
diagram.
end note
== Stop Recording ==
dsp -> mq: enque(notifyFileSaved{metadata})
tag -> mq: deque(notifyFileSaved{metadata})
tag -> mq: enque(fetchVideo{metadata})
dsp -> mq: deque(fetchVideo{metadata})
box The file transfer client can follow\nany of the available protocols\nused for file transfer and most\nappropriate for our use-cases
create control "File Transfer Server" as fts
strm -> fts: open(endpoint, metadata)
note right
https://en.wikipedia.org
/wiki/Comparison_of_file
_transfer_protocols
end note
dsp -> mq: enque(notifyEndpoint{endpoint, metadata})
tag -> mq: deque(notifyEndpoint{endpoint, metadata})
create control "File Transfer Client" as ftc
tag -> ftc: open(endpoint, metadata)
ftc -> fts: fetchVideo(metadata)
fts - -> ftc: return(fileStream)

@enduml

PlantUML version 1.2020.22(Sun Dec 06 15:06:27 IST 2020)
(GPL source distribution)
Java Runtime: OpenJDK Runtime Environment
JVM: OpenJDK 64-Bit Server VM
Default Encoding: Cp1252
Language: en
Country: IN
--></g></svg>