<?xml version="1.0" encoding="UTF-8" standalone="no"?><svg xmlns="http://www.w3.org/2000/svg" xmlns:xlink="http://www.w3.org/1999/xlink" contentScriptType="application/ecmascript" contentStyleType="text/css" height="936px" preserveAspectRatio="none" style="width:847px;height:936px;" version="1.1" viewBox="0 0 847 936" width="847px" zoomAndPan="magnify"><defs><filter height="300%" id="f1lufvu69rga8k" width="300%" x="-1" y="-1"><feGaussianBlur result="blurOut" stdDeviation="2.0"/><feColorMatrix in="blurOut" result="blurOut2" type="matrix" values="0 0 0 0 0 0 0 0 0 0 0 0 0 0 0 0 0 0 .4 0"/><feOffset dx="4.0" dy="4.0" in="blurOut2" result="blurOut3"/><feBlend in="SourceGraphic" in2="blurOut3" mode="normal"/></filter></defs><g><text fill="#000000" font-family="sans-serif" font-size="18" lengthAdjust="spacingAndGlyphs" textLength="115" x="364.25" y="30.6855">Subset Videos</text><rect fill="#FFFFFF" filter="url(#f1lufvu69rga8k)" height="135.7578" style="stroke: #000000; stroke-width: 2.0;" width="323" x="20" y="143.25"/><rect fill="#FFFFFF" filter="url(#f1lufvu69rga8k)" height="141.0781" style="stroke: #000000; stroke-width: 2.0;" width="313" x="520.5" y="430.9297"/><rect fill="#FFFFFF" height="46.1875" style="stroke: none; stroke-width: 1.0;" width="313" x="520.5" y="479.6328"/><rect fill="#FFFFFF" height="46.1875" style="stroke: none; stroke-width: 1.0;" width="313" x="520.5" y="525.8203"/><rect fill="#FFFFFF" filter="url(#f1lufvu69rga8k)" height="247.8125" style="stroke: #000000; stroke-width: 2.0;" width="762.5" x="10" y="586.0078"/><rect fill="#FFFFFF" height="168.7578" style="stroke: none; stroke-width: 1.0;" width="762.5" x="10" y="665.0625"/><rect fill="#FFFFFF" filter="url(#f1lufvu69rga8k)" height="109.4063" style="stroke: #000000; stroke-width: 2.0;" width="628.5" x="20" y="717.4141"/><line style="stroke: #A80036; stroke-width: 1.0; stroke-dasharray: 5.0,5.0;" x1="47" x2="47" y1="126.25" y2="850.8203"/><line style="stroke: #A80036; stroke-width: 1.0; stroke-dasharray: 5.0,5.0;" x1="112" x2="112" y1="126.25" y2="850.8203"/><line style="stroke: #A80036; stroke-width: 1.0; stroke-dasharray: 5.0,5.0;" x1="188" x2="188" y1="126.25" y2="850.8203"/><line style="stroke: #A80036; stroke-width: 1.0; stroke-dasharray: 5.0,5.0;" x1="287" x2="287" y1="126.25" y2="850.8203"/><line style="stroke: #A80036; stroke-width: 1.0; stroke-dasharray: 5.0,5.0;" x1="584.5" x2="584.5" y1="126.25" y2="850.8203"/><line style="stroke: #A80036; stroke-width: 1.0; stroke-dasharray: 5.0,5.0;" x1="767.5" x2="767.5" y1="334.6172" y2="850.8203"/><text fill="#000000" font-family="sans-serif" font-size="14" lengthAdjust="spacingAndGlyphs" textLength="29" x="30" y="123.1738">User</text><ellipse cx="47.5" cy="51.6406" fill="#FEFECE" filter="url(#f1lufvu69rga8k)" rx="8" ry="8" style="stroke: #A80036; stroke-width: 2.0;"/><path d="M47.5,59.6406 L47.5,86.6406 M34.5,67.6406 L60.5,67.6406 M47.5,86.6406 L34.5,101.6406 M47.5,86.6406 L60.5,101.6406 " fill="none" filter="url(#f1lufvu69rga8k)" style="stroke: #A80036; stroke-width: 2.0;"/><text fill="#000000" font-family="sans-serif" font-size="14" lengthAdjust="spacingAndGlyphs" textLength="29" x="30" y="864.3535">User</text><ellipse cx="47.5" cy="877.4297" fill="#FEFECE" filter="url(#f1lufvu69rga8k)" rx="8" ry="8" style="stroke: #A80036; stroke-width: 2.0;"/><path d="M47.5,885.4297 L47.5,912.4297 M34.5,893.4297 L60.5,893.4297 M47.5,912.4297 L34.5,927.4297 M47.5,912.4297 L60.5,927.4297 " fill="none" filter="url(#f1lufvu69rga8k)" style="stroke: #A80036; stroke-width: 2.0;"/><text fill="#000000" font-family="sans-serif" font-size="14" lengthAdjust="spacingAndGlyphs" textLength="68" x="75" y="123.1738">Tagging UI</text><path d="M91.5,80.6406 L91.5,104.6406 M91.5,92.6406 L108.5,92.6406 " fill="none" filter="url(#f1lufvu69rga8k)" style="stroke: #A80036; stroke-width: 2.0;"/><ellipse cx="120.5" cy="92.6406" fill="#FEFECE" filter="url(#f1lufvu69rga8k)" rx="12" ry="12" style="stroke: #A80036; stroke-width: 2.0;"/><text fill="#000000" font-family="sans-serif" font-size="14" lengthAdjust="spacingAndGlyphs" textLength="68" x="75" y="864.3535">Tagging UI</text><path d="M91.5,871.4297 L91.5,895.4297 M91.5,883.4297 L108.5,883.4297 " fill="none" filter="url(#f1lufvu69rga8k)" style="stroke: #A80036; stroke-width: 2.0;"/><ellipse cx="120.5" cy="883.4297" fill="#FEFECE" filter="url(#f1lufvu69rga8k)" rx="12" ry="12" style="stroke: #A80036; stroke-width: 2.0;"/><text fill="#000000" font-family="sans-serif" font-size="14" lengthAdjust="spacingAndGlyphs" textLength="52" x="159" y="123.1738">IP Cams</text><path d="M167.5,80.6406 L167.5,104.6406 M167.5,92.6406 L184.5,92.6406 " fill="none" filter="url(#f1lufvu69rga8k)" style="stroke: #A80036; stroke-width: 2.0;"/><ellipse cx="196.5" cy="92.6406" fill="#FEFECE" filter="url(#f1lufvu69rga8k)" rx="12" ry="12" style="stroke: #A80036; stroke-width: 2.0;"/><text fill="#000000" font-family="sans-serif" font-size="14" lengthAdjust="spacingAndGlyphs" textLength="52" x="159" y="864.3535">IP Cams</text><path d="M167.5,871.4297 L167.5,895.4297 M167.5,883.4297 L184.5,883.4297 " fill="none" filter="url(#f1lufvu69rga8k)" style="stroke: #A80036; stroke-width: 2.0;"/><ellipse cx="196.5" cy="883.4297" fill="#FEFECE" filter="url(#f1lufvu69rga8k)" rx="12" ry="12" style="stroke: #A80036; stroke-width: 2.0;"/><text fill="#000000" font-family="sans-serif" font-size="14" lengthAdjust="spacingAndGlyphs" textLength="115" x="227" y="123.1738">Streaming Service</text><ellipse cx="287.5" cy="92.6406" fill="#FEFECE" filter="url(#f1lufvu69rga8k)" rx="12" ry="12" style="stroke: #A80036; stroke-width: 2.0;"/><polygon fill="#A80036" points="283.5,80.6406,289.5,75.6406,287.5,80.6406,289.5,85.6406,283.5,80.6406" style="stroke: #A80036; stroke-width: 1.0;"/><text fill="#000000" font-family="sans-serif" font-size="14" lengthAdjust="spacingAndGlyphs" textLength="115" x="227" y="864.3535">Streaming Service</text><ellipse cx="287.5" cy="883.4297" fill="#FEFECE" filter="url(#f1lufvu69rga8k)" rx="12" ry="12" style="stroke: #A80036; stroke-width: 2.0;"/><polygon fill="#A80036" points="283.5,871.4297,289.5,866.4297,287.5,871.4297,289.5,876.4297,283.5,871.4297" style="stroke: #A80036; stroke-width: 1.0;"/><text fill="#000000" font-family="sans-serif" font-size="14" lengthAdjust="spacingAndGlyphs" textLength="59" x="552" y="105.5645">Coaches'</text><text fill="#000000" font-family="sans-serif" font-size="14" lengthAdjust="spacingAndGlyphs" textLength="102" x="530.5" y="123.1738">Tablets\Laptops</text><path d="M564,63.0313 L564,87.0313 M564,75.0313 L581,75.0313 " fill="none" filter="url(#f1lufvu69rga8k)" style="stroke: #A80036; stroke-width: 2.0;"/><ellipse cx="593" cy="75.0313" fill="#FEFECE" filter="url(#f1lufvu69rga8k)" rx="12" ry="12" style="stroke: #A80036; stroke-width: 2.0;"/><text fill="#000000" font-family="sans-serif" font-size="14" lengthAdjust="spacingAndGlyphs" textLength="59" x="552" y="864.3535">Coaches'</text><text fill="#000000" font-family="sans-serif" font-size="14" lengthAdjust="spacingAndGlyphs" textLength="102" x="530.5" y="881.9629">Tablets\Laptops</text><path d="M564,889.0391 L564,913.0391 M564,901.0391 L581,901.0391 " fill="none" filter="url(#f1lufvu69rga8k)" style="stroke: #A80036; stroke-width: 2.0;"/><ellipse cx="593" cy="901.0391" fill="#FEFECE" filter="url(#f1lufvu69rga8k)" rx="12" ry="12" style="stroke: #A80036; stroke-width: 2.0;"/><text fill="#000000" font-family="sans-serif" font-size="14" lengthAdjust="spacingAndGlyphs" textLength="51" x="739" y="864.3535">Settings</text><text fill="#000000" font-family="sans-serif" font-size="14" lengthAdjust="spacingAndGlyphs" textLength="106" x="711.5" y="881.9629">(Media Transfer)</text><ellipse cx="767.5" cy="901.0391" fill="#FEFECE" filter="url(#f1lufvu69rga8k)" rx="12" ry="12" style="stroke: #A80036; stroke-width: 2.0;"/><line style="stroke: #A80036; stroke-width: 2.0;" x1="755.5" x2="779.5" y1="915.0391" y2="915.0391"/><path d="M20,143.25 L194,143.25 L194,151.25 L184,161.25 L20,161.25 L20,143.25 " fill="#EEEEEE" style="stroke: #000000; stroke-width: 1.0;"/><rect fill="none" height="135.7578" style="stroke: #000000; stroke-width: 2.0;" width="323" x="20" y="143.25"/><text fill="#000000" font-family="sans-serif" font-size="13" font-weight="bold" lengthAdjust="spacingAndGlyphs" textLength="129" x="35" y="157.7451">Record and Transfer</text><polygon fill="#A80036" points="176,179.9531,186,183.9531,176,187.9531,180,183.9531" style="stroke: #A80036; stroke-width: 1.0;"/><line style="stroke: #A80036; stroke-width: 1.0;" x1="47.5" x2="182" y1="183.9531" y2="183.9531"/><text fill="#000000" font-family="sans-serif" font-size="13" lengthAdjust="spacingAndGlyphs" textLength="34" x="54.5" y="179.0967">start()</text><path d="M65,196.9531 L65,238.9531 L333,238.9531 L333,206.9531 L323,196.9531 L65,196.9531 " fill="#FBFB77" filter="url(#f1lufvu69rga8k)" style="stroke: #A80036; stroke-width: 1.0;"/><path d="M323,196.9531 L323,206.9531 L333,206.9531 L323,196.9531 " fill="#FBFB77" style="stroke: #A80036; stroke-width: 1.0;"/><text fill="#000000" font-family="sans-serif" font-size="13" lengthAdjust="spacingAndGlyphs" textLength="215" x="83" y="215.4482">The process till the streaming service</text><text fill="#000000" font-family="sans-serif" font-size="13" lengthAdjust="spacingAndGlyphs" textLength="202" x="95" y="231.7998">is ready to send media to Coaches</text><polygon fill="#A80036" points="176,267.0078,186,271.0078,176,275.0078,180,271.0078" style="stroke: #A80036; stroke-width: 1.0;"/><line style="stroke: #A80036; stroke-width: 1.0;" x1="47.5" x2="182" y1="271.0078" y2="271.0078"/><text fill="#000000" font-family="sans-serif" font-size="13" lengthAdjust="spacingAndGlyphs" textLength="33" x="54.5" y="266.1514">stop()</text><polygon fill="#A80036" points="699.5,288.0078,709.5,292.0078,699.5,296.0078,703.5,292.0078" style="stroke: #A80036; stroke-width: 1.0;"/><line style="stroke: #A80036; stroke-width: 1.0;" x1="584.5" x2="705.5" y1="292.0078" y2="292.0078"/><text fill="#000000" font-family="sans-serif" font-size="14" lengthAdjust="spacingAndGlyphs" textLength="51" x="739" y="332.541">Settings</text><text fill="#000000" font-family="sans-serif" font-size="14" lengthAdjust="spacingAndGlyphs" textLength="106" x="711.5" y="350.1504">(Media Transfer)</text><ellipse cx="767.5" cy="302.0078" fill="#FEFECE" filter="url(#f1lufvu69rga8k)" rx="12" ry="12" style="stroke: #A80036; stroke-width: 2.0;"/><line style="stroke: #A80036; stroke-width: 2.0;" x1="755.5" x2="779.5" y1="316.0078" y2="316.0078"/><polygon fill="#A80036" points="572.5,381.5781,582.5,385.5781,572.5,389.5781,576.5,385.5781" style="stroke: #A80036; stroke-width: 1.0;"/><line style="stroke: #A80036; stroke-width: 1.0;" x1="287.5" x2="578.5" y1="385.5781" y2="385.5781"/><text fill="#000000" font-family="sans-serif" font-size="13" lengthAdjust="spacingAndGlyphs" textLength="273" x="294.5" y="380.7217">transfer(metadata, thumbnail, mediaFileHandle)</text><polygon fill="#A80036" points="755.5,411.9297,765.5,415.9297,755.5,419.9297,759.5,415.9297" style="stroke: #A80036; stroke-width: 1.0;"/><line style="stroke: #A80036; stroke-width: 1.0;" x1="584.5" x2="761.5" y1="415.9297" y2="415.9297"/><text fill="#000000" font-family="sans-serif" font-size="13" lengthAdjust="spacingAndGlyphs" textLength="91" x="591.5" y="411.0732">checkSettings()</text><path d="M520.5,430.9297 L581.5,430.9297 L581.5,438.9297 L571.5,448.9297 L520.5,448.9297 L520.5,430.9297 " fill="#EEEEEE" style="stroke: #000000; stroke-width: 1.0;"/><rect fill="none" height="141.0781" style="stroke: #000000; stroke-width: 2.0;" width="313" x="520.5" y="430.9297"/><text fill="#000000" font-family="sans-serif" font-size="13" font-weight="bold" lengthAdjust="spacingAndGlyphs" textLength="16" x="535.5" y="445.4248">alt</text><text fill="#000000" font-family="sans-serif" font-size="11" font-weight="bold" lengthAdjust="spacingAndGlyphs" textLength="164" x="596.5" y="444.3486">[Is offensive video required?]</text><polygon fill="#A80036" points="595.5,467.6328,585.5,471.6328,595.5,475.6328,591.5,471.6328" style="stroke: #A80036; stroke-width: 1.0;"/><line style="stroke: #A80036; stroke-width: 1.0; stroke-dasharray: 2.0,2.0;" x1="589.5" x2="766.5" y1="471.6328" y2="471.6328"/><text fill="#000000" font-family="sans-serif" font-size="13" lengthAdjust="spacingAndGlyphs" textLength="89" x="601.5" y="466.7764">return(decision)</text><line style="stroke: #000000; stroke-width: 1.0; stroke-dasharray: 2.0,2.0;" x1="520.5" x2="833.5" y1="480.6328" y2="480.6328"/><text fill="#000000" font-family="sans-serif" font-size="11" font-weight="bold" lengthAdjust="spacingAndGlyphs" textLength="167" x="525.5" y="492.0518">[Is defensive video required?]</text><polygon fill="#A80036" points="595.5,513.8203,585.5,517.8203,595.5,521.8203,591.5,517.8203" style="stroke: #A80036; stroke-width: 1.0;"/><line style="stroke: #A80036; stroke-width: 1.0; stroke-dasharray: 2.0,2.0;" x1="589.5" x2="766.5" y1="517.8203" y2="517.8203"/><text fill="#000000" font-family="sans-serif" font-size="13" lengthAdjust="spacingAndGlyphs" textLength="89" x="601.5" y="512.9639">return(decision)</text><line style="stroke: #000000; stroke-width: 1.0; stroke-dasharray: 2.0,2.0;" x1="520.5" x2="833.5" y1="526.8203" y2="526.8203"/><text fill="#000000" font-family="sans-serif" font-size="11" font-weight="bold" lengthAdjust="spacingAndGlyphs" textLength="255" x="525.5" y="538.2393">[Is the video with the camera angle required?]</text><polygon fill="#A80036" points="595.5,560.0078,585.5,564.0078,595.5,568.0078,591.5,564.0078" style="stroke: #A80036; stroke-width: 1.0;"/><line style="stroke: #A80036; stroke-width: 1.0; stroke-dasharray: 2.0,2.0;" x1="589.5" x2="766.5" y1="564.0078" y2="564.0078"/><text fill="#000000" font-family="sans-serif" font-size="13" lengthAdjust="spacingAndGlyphs" textLength="89" x="601.5" y="559.1514">return(decision)</text><path d="M10,586.0078 L71,586.0078 L71,594.0078 L61,604.0078 L10,604.0078 L10,586.0078 " fill="#EEEEEE" style="stroke: #000000; stroke-width: 1.0;"/><rect fill="none" height="247.8125" style="stroke: #000000; stroke-width: 2.0;" width="762.5" x="10" y="586.0078"/><text fill="#000000" font-family="sans-serif" font-size="13" font-weight="bold" lengthAdjust="spacingAndGlyphs" textLength="16" x="25" y="600.5029">alt</text><text fill="#000000" font-family="sans-serif" font-size="11" font-weight="bold" lengthAdjust="spacingAndGlyphs" textLength="172" x="86" y="599.4268">[If decision == auto-download?]</text><polygon fill="#A80036" points="298.5,622.7109,288.5,626.7109,298.5,630.7109,294.5,626.7109" style="stroke: #A80036; stroke-width: 1.0;"/><line style="stroke: #A80036; stroke-width: 1.0;" x1="292.5" x2="583.5" y1="626.7109" y2="626.7109"/><text fill="#000000" font-family="sans-serif" font-size="13" lengthAdjust="spacingAndGlyphs" textLength="132" x="304.5" y="621.8545">fetch(mediaFileHandle)</text><polygon fill="#A80036" points="572.5,653.0625,582.5,657.0625,572.5,661.0625,576.5,657.0625" style="stroke: #A80036; stroke-width: 1.0;"/><line style="stroke: #A80036; stroke-width: 1.0; stroke-dasharray: 2.0,2.0;" x1="287.5" x2="578.5" y1="657.0625" y2="657.0625"/><text fill="#000000" font-family="sans-serif" font-size="13" lengthAdjust="spacingAndGlyphs" textLength="137" x="294.5" y="652.2061">return(mediaFileBlocks)</text><line style="stroke: #000000; stroke-width: 1.0; stroke-dasharray: 2.0,2.0;" x1="10" x2="772.5" y1="666.0625" y2="666.0625"/><line style="stroke: #A80036; stroke-width: 1.0;" x1="584.5" x2="626.5" y1="689.4141" y2="689.4141"/><line style="stroke: #A80036; stroke-width: 1.0;" x1="626.5" x2="626.5" y1="689.4141" y2="702.4141"/><line style="stroke: #A80036; stroke-width: 1.0;" x1="585.5" x2="626.5" y1="702.4141" y2="702.4141"/><polygon fill="#A80036" points="595.5,698.4141,585.5,702.4141,595.5,706.4141,591.5,702.4141" style="stroke: #A80036; stroke-width: 1.0;"/><text fill="#000000" font-family="sans-serif" font-size="13" lengthAdjust="spacingAndGlyphs" textLength="169" x="591.5" y="684.5576">Display(metadata, thumbnail)</text><path d="M20,717.4141 L85,717.4141 L85,725.4141 L75,735.4141 L20,735.4141 L20,717.4141 " fill="#EEEEEE" style="stroke: #000000; stroke-width: 1.0;"/><rect fill="none" height="109.4063" style="stroke: #000000; stroke-width: 2.0;" width="628.5" x="20" y="717.4141"/><text fill="#000000" font-family="sans-serif" font-size="13" font-weight="bold" lengthAdjust="spacingAndGlyphs" textLength="20" x="35" y="731.9092">opt</text><text fill="#000000" font-family="sans-serif" font-size="11" font-weight="bold" lengthAdjust="spacingAndGlyphs" textLength="218" x="100" y="730.833">[User chooses to fetch video (optional)]</text><polygon fill="#A80036" points="572.5,754.1172,582.5,758.1172,572.5,762.1172,576.5,758.1172" style="stroke: #A80036; stroke-width: 1.0;"/><line style="stroke: #A80036; stroke-width: 1.0;" x1="47.5" x2="578.5" y1="758.1172" y2="758.1172"/><text fill="#000000" font-family="sans-serif" font-size="13" lengthAdjust="spacingAndGlyphs" textLength="73" x="54.5" y="753.2607">ShowVideo()</text><polygon fill="#A80036" points="298.5,784.4688,288.5,788.4688,298.5,792.4688,294.5,788.4688" style="stroke: #A80036; stroke-width: 1.0;"/><line style="stroke: #A80036; stroke-width: 1.0;" x1="292.5" x2="583.5" y1="788.4688" y2="788.4688"/><text fill="#000000" font-family="sans-serif" font-size="13" lengthAdjust="spacingAndGlyphs" textLength="132" x="304.5" y="783.6123">fetch(mediaFileHandle)</text><polygon fill="#A80036" points="572.5,814.8203,582.5,818.8203,572.5,822.8203,576.5,818.8203" style="stroke: #A80036; stroke-width: 1.0;"/><line style="stroke: #A80036; stroke-width: 1.0; stroke-dasharray: 2.0,2.0;" x1="287.5" x2="578.5" y1="818.8203" y2="818.8203"/><text fill="#000000" font-family="sans-serif" font-size="13" lengthAdjust="spacingAndGlyphs" textLength="137" x="294.5" y="813.9639">return(mediaFileBlocks)</text><!--MD5=[f8256c31e30414bd78acf401239445b8]
@startuml Subset Videos
title Subset Videos
actor "User" as usr
boundary "Tagging UI" as tag
boundary "IP Cams" as ip
control "Streaming Service" as strm
group Record and Transfer
    usr -> ip: start()
    note over tag,strm
    	The process till the streaming service 
        is ready to send media to Coaches
    end note
    usr -> ip: stop()
end
boundary "Coaches'\nTablets\Laptops" as coach
create entity "Settings\n(Media Transfer)" as sett
coach -> sett
strm -> coach: transfer(metadata, thumbnail, mediaFileHandle)
coach -> sett: checkSettings()
alt Is offensive video required?
    sett - -> coach: return(decision)
else Is defensive video required?
    sett - -> coach: return(decision)
else Is the video with the camera angle required?
    sett - -> coach: return(decision)
end

alt If decision == auto-download?
    coach -> strm: fetch(mediaFileHandle)
    strm - -> coach: return(mediaFileBlocks)
else
    coach -> coach: Display(metadata, thumbnail)
    opt User chooses to fetch video (optional)
        usr -> coach: ShowVideo()
        coach -> strm: fetch(mediaFileHandle)
        strm - -> coach: return(mediaFileBlocks)
    end
end
@enduml

PlantUML version 1.2020.18(Thu Oct 01 01:10:44 IST 2020)
(GPL source distribution)
Java Runtime: OpenJDK Runtime Environment
JVM: OpenJDK 64-Bit Server VM
Default Encoding: Cp1252
Language: en
Country: IN
--></g></svg>