<?xml version="1.0" encoding="UTF-8" standalone="no"?><svg xmlns="http://www.w3.org/2000/svg" xmlns:xlink="http://www.w3.org/1999/xlink" contentScriptType="application/ecmascript" contentStyleType="text/css" height="1142px" preserveAspectRatio="none" style="width:1197px;height:1142px;" version="1.1" viewBox="0 0 1197 1142" width="1197px" zoomAndPan="magnify"><defs><filter height="300%" id="f1r3en5ox88yrb" width="300%" x="-1" y="-1"><feGaussianBlur result="blurOut" stdDeviation="2.0"/><feColorMatrix in="blurOut" result="blurOut2" type="matrix" values="0 0 0 0 0 0 0 0 0 0 0 0 0 0 0 0 0 0 .4 0"/><feOffset dx="4.0" dy="4.0" in="blurOut2" result="blurOut3"/><feBlend in="SourceGraphic" in2="blurOut3" mode="normal"/></filter></defs><g><text fill="#000000" font-family="sans-serif" font-size="18" lengthAdjust="spacingAndGlyphs" textLength="314" x="439.5" y="30.6855">Prioritization of the Consumers (Mobile)</text><rect fill="#FFFFFF" filter="url(#f1r3en5ox88yrb)" height="48.7031" style="stroke: #000000; stroke-width: 2.0;" width="901" x="282" y="991.1641"/><line style="stroke: #A80036; stroke-width: 1.0; stroke-dasharray: 5.0,5.0;" x1="22" x2="22" y1="126.25" y2="1056.8672"/><line style="stroke: #A80036; stroke-width: 1.0; stroke-dasharray: 5.0,5.0;" x1="107" x2="107" y1="126.25" y2="1056.8672"/><line style="stroke: #A80036; stroke-width: 1.0; stroke-dasharray: 5.0,5.0;" x1="228" x2="228" y1="176.0547" y2="1056.8672"/><line style="stroke: #A80036; stroke-width: 1.0; stroke-dasharray: 5.0,5.0;" x1="359" x2="359" y1="126.25" y2="1056.8672"/><line style="stroke: #A80036; stroke-width: 1.0; stroke-dasharray: 5.0,5.0;" x1="642" x2="642" y1="126.25" y2="1056.8672"/><line style="stroke: #A80036; stroke-width: 1.0; stroke-dasharray: 5.0,5.0;" x1="740" x2="740" y1="126.25" y2="1056.8672"/><line style="stroke: #A80036; stroke-width: 1.0; stroke-dasharray: 5.0,5.0;" x1="853" x2="853" y1="126.25" y2="1056.8672"/><line style="stroke: #A80036; stroke-width: 1.0; stroke-dasharray: 5.0,5.0;" x1="974" x2="974" y1="126.25" y2="1056.8672"/><line style="stroke: #A80036; stroke-width: 1.0; stroke-dasharray: 5.0,5.0;" x1="1123" x2="1123" y1="871" y2="1056.8672"/><text fill="#000000" font-family="sans-serif" font-size="14" lengthAdjust="spacingAndGlyphs" textLength="29" x="5" y="123.1738">User</text><ellipse cx="22.5" cy="51.6406" fill="#FEFECE" filter="url(#f1r3en5ox88yrb)" rx="8" ry="8" style="stroke: #A80036; stroke-width: 2.0;"/><path d="M22.5,59.6406 L22.5,86.6406 M9.5,67.6406 L35.5,67.6406 M22.5,86.6406 L9.5,101.6406 M22.5,86.6406 L35.5,101.6406 " fill="none" filter="url(#f1r3en5ox88yrb)" style="stroke: #A80036; stroke-width: 2.0;"/><text fill="#000000" font-family="sans-serif" font-size="14" lengthAdjust="spacingAndGlyphs" textLength="29" x="5" y="1070.4004">User</text><ellipse cx="22.5" cy="1083.4766" fill="#FEFECE" filter="url(#f1r3en5ox88yrb)" rx="8" ry="8" style="stroke: #A80036; stroke-width: 2.0;"/><path d="M22.5,1091.4766 L22.5,1118.4766 M9.5,1099.4766 L35.5,1099.4766 M22.5,1118.4766 L9.5,1133.4766 M22.5,1118.4766 L35.5,1133.4766 " fill="none" filter="url(#f1r3en5ox88yrb)" style="stroke: #A80036; stroke-width: 2.0;"/><text fill="#000000" font-family="sans-serif" font-size="14" lengthAdjust="spacingAndGlyphs" textLength="108" x="50" y="123.1738">Directory Service</text><path d="M86.5,80.6406 L86.5,104.6406 M86.5,92.6406 L103.5,92.6406 " fill="none" filter="url(#f1r3en5ox88yrb)" style="stroke: #A80036; stroke-width: 2.0;"/><ellipse cx="115.5" cy="92.6406" fill="#FEFECE" filter="url(#f1r3en5ox88yrb)" rx="12" ry="12" style="stroke: #A80036; stroke-width: 2.0;"/><text fill="#000000" font-family="sans-serif" font-size="14" lengthAdjust="spacingAndGlyphs" textLength="108" x="50" y="1070.4004">Directory Service</text><path d="M86.5,1077.4766 L86.5,1101.4766 M86.5,1089.4766 L103.5,1089.4766 " fill="none" filter="url(#f1r3en5ox88yrb)" style="stroke: #A80036; stroke-width: 2.0;"/><ellipse cx="115.5" cy="1089.4766" fill="#FEFECE" filter="url(#f1r3en5ox88yrb)" rx="12" ry="12" style="stroke: #A80036; stroke-width: 2.0;"/><text fill="#000000" font-family="sans-serif" font-size="14" lengthAdjust="spacingAndGlyphs" textLength="101" x="175" y="1070.4004">Tenant Registry</text><ellipse cx="228.5" cy="1089.4766" fill="#FEFECE" filter="url(#f1r3en5ox88yrb)" rx="12" ry="12" style="stroke: #A80036; stroke-width: 2.0;"/><line style="stroke: #A80036; stroke-width: 2.0;" x1="216.5" x2="240.5" y1="1103.4766" y2="1103.4766"/><rect fill="#FEFECE" filter="url(#f1r3en5ox88yrb)" height="31.6094" style="stroke: #A80036; stroke-width: 1.5;" width="127" x="296" y="85.6406"/><rect fill="#FEFECE" filter="url(#f1r3en5ox88yrb)" height="31.6094" style="stroke: #A80036; stroke-width: 1.5;" width="127" x="292" y="89.6406"/><text fill="#000000" font-family="sans-serif" font-size="14" lengthAdjust="spacingAndGlyphs" textLength="113" x="299" y="111.1738">Dispatch Services</text><rect fill="#FEFECE" filter="url(#f1r3en5ox88yrb)" height="31.6094" style="stroke: #A80036; stroke-width: 1.5;" width="127" x="296" y="1055.8672"/><rect fill="#FEFECE" filter="url(#f1r3en5ox88yrb)" height="31.6094" style="stroke: #A80036; stroke-width: 1.5;" width="127" x="292" y="1059.8672"/><text fill="#000000" font-family="sans-serif" font-size="14" lengthAdjust="spacingAndGlyphs" textLength="113" x="299" y="1081.4004">Dispatch Services</text><text fill="#000000" font-family="sans-serif" font-size="14" lengthAdjust="spacingAndGlyphs" textLength="95" x="592" y="105.5645">Coaches iPads</text><text fill="#000000" font-family="sans-serif" font-size="14" lengthAdjust="spacingAndGlyphs" textLength="79" x="602" y="123.1738">and Laptops</text><path d="M622,63.0313 L622,87.0313 M622,75.0313 L639,75.0313 " fill="none" filter="url(#f1r3en5ox88yrb)" style="stroke: #A80036; stroke-width: 2.0;"/><ellipse cx="651" cy="75.0313" fill="#FEFECE" filter="url(#f1r3en5ox88yrb)" rx="12" ry="12" style="stroke: #A80036; stroke-width: 2.0;"/><text fill="#000000" font-family="sans-serif" font-size="14" lengthAdjust="spacingAndGlyphs" textLength="95" x="592" y="1070.4004">Coaches iPads</text><text fill="#000000" font-family="sans-serif" font-size="14" lengthAdjust="spacingAndGlyphs" textLength="79" x="602" y="1088.0098">and Laptops</text><path d="M622,1095.0859 L622,1119.0859 M622,1107.0859 L639,1107.0859 " fill="none" filter="url(#f1r3en5ox88yrb)" style="stroke: #A80036; stroke-width: 2.0;"/><ellipse cx="651" cy="1107.0859" fill="#FEFECE" filter="url(#f1r3en5ox88yrb)" rx="12" ry="12" style="stroke: #A80036; stroke-width: 2.0;"/><text fill="#000000" font-family="sans-serif" font-size="14" lengthAdjust="spacingAndGlyphs" textLength="68" x="703" y="123.1738">Tagging UI</text><path d="M719.5,80.6406 L719.5,104.6406 M719.5,92.6406 L736.5,92.6406 " fill="none" filter="url(#f1r3en5ox88yrb)" style="stroke: #A80036; stroke-width: 2.0;"/><ellipse cx="748.5" cy="92.6406" fill="#FEFECE" filter="url(#f1r3en5ox88yrb)" rx="12" ry="12" style="stroke: #A80036; stroke-width: 2.0;"/><text fill="#000000" font-family="sans-serif" font-size="14" lengthAdjust="spacingAndGlyphs" textLength="68" x="703" y="1070.4004">Tagging UI</text><path d="M719.5,1077.4766 L719.5,1101.4766 M719.5,1089.4766 L736.5,1089.4766 " fill="none" filter="url(#f1r3en5ox88yrb)" style="stroke: #A80036; stroke-width: 2.0;"/><ellipse cx="748.5" cy="1089.4766" fill="#FEFECE" filter="url(#f1r3en5ox88yrb)" rx="12" ry="12" style="stroke: #A80036; stroke-width: 2.0;"/><rect fill="#FEFECE" filter="url(#f1r3en5ox88yrb)" height="31.6094" style="stroke: #A80036; stroke-width: 1.5;" width="129" x="787" y="89.6406"/><text fill="#000000" font-family="sans-serif" font-size="14" lengthAdjust="spacingAndGlyphs" textLength="115" x="794" y="111.1738">Streaming Service</text><rect fill="#FEFECE" filter="url(#f1r3en5ox88yrb)" height="31.6094" style="stroke: #A80036; stroke-width: 1.5;" width="129" x="787" y="1055.8672"/><text fill="#000000" font-family="sans-serif" font-size="14" lengthAdjust="spacingAndGlyphs" textLength="115" x="794" y="1077.4004">Streaming Service</text><text fill="#000000" font-family="sans-serif" font-size="14" lengthAdjust="spacingAndGlyphs" textLength="41" x="951" y="123.1738">Mobile</text><path d="M954,80.6406 L954,104.6406 M954,92.6406 L971,92.6406 " fill="none" filter="url(#f1r3en5ox88yrb)" style="stroke: #A80036; stroke-width: 2.0;"/><ellipse cx="983" cy="92.6406" fill="#FEFECE" filter="url(#f1r3en5ox88yrb)" rx="12" ry="12" style="stroke: #A80036; stroke-width: 2.0;"/><text fill="#000000" font-family="sans-serif" font-size="14" lengthAdjust="spacingAndGlyphs" textLength="41" x="951" y="1070.4004">Mobile</text><path d="M954,1077.4766 L954,1101.4766 M954,1089.4766 L971,1089.4766 " fill="none" filter="url(#f1r3en5ox88yrb)" style="stroke: #A80036; stroke-width: 2.0;"/><ellipse cx="983" cy="1089.4766" fill="#FEFECE" filter="url(#f1r3en5ox88yrb)" rx="12" ry="12" style="stroke: #A80036; stroke-width: 2.0;"/><rect fill="#FEFECE" filter="url(#f1r3en5ox88yrb)" height="49.2188" style="stroke: #A80036; stroke-width: 1.5;" width="95" x="1074" y="1055.8672"/><text fill="#000000" font-family="sans-serif" font-size="14" lengthAdjust="spacingAndGlyphs" textLength="81" x="1081" y="1077.4004">File Transfer</text><text fill="#000000" font-family="sans-serif" font-size="14" lengthAdjust="spacingAndGlyphs" textLength="33" x="1105" y="1095.0098">client</text><polygon fill="#A80036" points="163,154.6016,173,158.6016,163,162.6016,167,158.6016" style="stroke: #A80036; stroke-width: 1.0;"/><line style="stroke: #A80036; stroke-width: 1.0;" x1="107" x2="169" y1="158.6016" y2="158.6016"/><text fill="#000000" font-family="sans-serif" font-size="13" lengthAdjust="spacingAndGlyphs" textLength="44" x="114" y="153.7451">create()</text><text fill="#000000" font-family="sans-serif" font-size="14" lengthAdjust="spacingAndGlyphs" textLength="101" x="175" y="182.7832">Tenant Registry</text><ellipse cx="228.5" cy="152.25" fill="#FEFECE" filter="url(#f1r3en5ox88yrb)" rx="12" ry="12" style="stroke: #A80036; stroke-width: 2.0;"/><line style="stroke: #A80036; stroke-width: 2.0;" x1="216.5" x2="240.5" y1="166.25" y2="166.25"/><polygon fill="#A80036" points="370.5,214.2109,360.5,218.2109,370.5,222.2109,366.5,218.2109" style="stroke: #A80036; stroke-width: 1.0;"/><line style="stroke: #A80036; stroke-width: 1.0;" x1="364.5" x2="641.5" y1="218.2109" y2="218.2109"/><text fill="#000000" font-family="sans-serif" font-size="13" lengthAdjust="spacingAndGlyphs" textLength="255" x="376.5" y="213.3545">command(directoryService, register, priority)</text><polygon fill="#A80036" points="118,244.5625,108,248.5625,118,252.5625,114,248.5625" style="stroke: #A80036; stroke-width: 1.0;"/><line style="stroke: #A80036; stroke-width: 1.0;" x1="112" x2="358.5" y1="248.5625" y2="248.5625"/><text fill="#000000" font-family="sans-serif" font-size="13" lengthAdjust="spacingAndGlyphs" textLength="199" x="124" y="243.7061">command(register, tenant, priority)</text><polygon fill="#A80036" points="118,274.9141,108,278.9141,118,282.9141,114,278.9141" style="stroke: #A80036; stroke-width: 1.0;"/><line style="stroke: #A80036; stroke-width: 1.0;" x1="112" x2="358.5" y1="278.9141" y2="278.9141"/><text fill="#000000" font-family="sans-serif" font-size="13" lengthAdjust="spacingAndGlyphs" textLength="87" x="124" y="274.0576">fetchHandlers()</text><polygon fill="#A80036" points="347.5,305.2656,357.5,309.2656,347.5,313.2656,351.5,309.2656" style="stroke: #A80036; stroke-width: 1.0;"/><line style="stroke: #A80036; stroke-width: 1.0; stroke-dasharray: 2.0,2.0;" x1="107" x2="353.5" y1="309.2656" y2="309.2656"/><text fill="#000000" font-family="sans-serif" font-size="13" lengthAdjust="spacingAndGlyphs" textLength="139" x="114" y="304.4092">return(tenantAddresses)</text><polygon fill="#A80036" points="370.5,335.6172,360.5,339.6172,370.5,343.6172,366.5,339.6172" style="stroke: #A80036; stroke-width: 1.0;"/><line style="stroke: #A80036; stroke-width: 1.0;" x1="364.5" x2="641.5" y1="339.6172" y2="339.6172"/><text fill="#000000" font-family="sans-serif" font-size="13" lengthAdjust="spacingAndGlyphs" textLength="259" x="376.5" y="334.7607">command(directoryService, subscribe, event)</text><polygon fill="#A80036" points="118,365.9688,108,369.9688,118,373.9688,114,369.9688" style="stroke: #A80036; stroke-width: 1.0;"/><line style="stroke: #A80036; stroke-width: 1.0;" x1="112" x2="358.5" y1="369.9688" y2="369.9688"/><text fill="#000000" font-family="sans-serif" font-size="13" lengthAdjust="spacingAndGlyphs" textLength="203" x="124" y="365.1123">command(subscribe, tenant, event)</text><polygon fill="#A80036" points="728,396.3203,738,400.3203,728,404.3203,732,400.3203" style="stroke: #A80036; stroke-width: 1.0;"/><line style="stroke: #A80036; stroke-width: 1.0;" x1="22.5" x2="734" y1="400.3203" y2="400.3203"/><text fill="#000000" font-family="sans-serif" font-size="13" lengthAdjust="spacingAndGlyphs" textLength="34" x="29.5" y="395.4639">start()</text><polygon fill="#A80036" points="370.5,426.6719,360.5,430.6719,370.5,434.6719,366.5,430.6719" style="stroke: #A80036; stroke-width: 1.0;"/><line style="stroke: #A80036; stroke-width: 1.0;" x1="364.5" x2="739" y1="430.6719" y2="430.6719"/><text fill="#000000" font-family="sans-serif" font-size="13" lengthAdjust="spacingAndGlyphs" textLength="208" x="376.5" y="425.8154">command(streamingService, record)</text><polygon fill="#A80036" points="841.5,457.0234,851.5,461.0234,841.5,465.0234,845.5,461.0234" style="stroke: #A80036; stroke-width: 1.0;"/><line style="stroke: #A80036; stroke-width: 1.0;" x1="359.5" x2="847.5" y1="461.0234" y2="461.0234"/><text fill="#000000" font-family="sans-serif" font-size="13" lengthAdjust="spacingAndGlyphs" textLength="101" x="366.5" y="456.167">command(record)</text><polygon fill="#A80036" points="370.5,487.375,360.5,491.375,370.5,495.375,366.5,491.375" style="stroke: #A80036; stroke-width: 1.0;"/><line style="stroke: #A80036; stroke-width: 1.0; stroke-dasharray: 2.0,2.0;" x1="364.5" x2="852.5" y1="491.375" y2="491.375"/><text fill="#000000" font-family="sans-serif" font-size="13" lengthAdjust="spacingAndGlyphs" textLength="127" x="376.5" y="486.5186">notify(recordingStarts)</text><polygon fill="#A80036" points="962.5,517.7266,972.5,521.7266,962.5,525.7266,966.5,521.7266" style="stroke: #A80036; stroke-width: 1.0;"/><line style="stroke: #A80036; stroke-width: 1.0;" x1="853.5" x2="968.5" y1="521.7266" y2="521.7266"/><text fill="#000000" font-family="sans-serif" font-size="13" lengthAdjust="spacingAndGlyphs" textLength="92" x="860.5" y="516.8701">startRecording()</text><line style="stroke: #A80036; stroke-width: 1.0;" x1="974.5" x2="1016.5" y1="552.0781" y2="552.0781"/><line style="stroke: #A80036; stroke-width: 1.0;" x1="1016.5" x2="1016.5" y1="552.0781" y2="565.0781"/><line style="stroke: #A80036; stroke-width: 1.0;" x1="975.5" x2="1016.5" y1="565.0781" y2="565.0781"/><polygon fill="#A80036" points="985.5,561.0781,975.5,565.0781,985.5,569.0781,981.5,565.0781" style="stroke: #A80036; stroke-width: 1.0;"/><text fill="#000000" font-family="sans-serif" font-size="13" lengthAdjust="spacingAndGlyphs" textLength="49" x="981.5" y="547.2217">Record()</text><polygon fill="#A80036" points="728,591.4297,738,595.4297,728,599.4297,732,595.4297" style="stroke: #A80036; stroke-width: 1.0;"/><line style="stroke: #A80036; stroke-width: 1.0;" x1="22.5" x2="734" y1="595.4297" y2="595.4297"/><text fill="#000000" font-family="sans-serif" font-size="13" lengthAdjust="spacingAndGlyphs" textLength="33" x="29.5" y="590.5732">stop()</text><polygon fill="#A80036" points="370.5,621.7813,360.5,625.7813,370.5,629.7813,366.5,625.7813" style="stroke: #A80036; stroke-width: 1.0;"/><line style="stroke: #A80036; stroke-width: 1.0;" x1="364.5" x2="739" y1="625.7813" y2="625.7813"/><text fill="#000000" font-family="sans-serif" font-size="13" lengthAdjust="spacingAndGlyphs" textLength="198" x="376.5" y="620.9248">command(streamingService, save)</text><polygon fill="#A80036" points="841.5,652.1328,851.5,656.1328,841.5,660.1328,845.5,656.1328" style="stroke: #A80036; stroke-width: 1.0;"/><line style="stroke: #A80036; stroke-width: 1.0;" x1="359.5" x2="847.5" y1="656.1328" y2="656.1328"/><text fill="#000000" font-family="sans-serif" font-size="13" lengthAdjust="spacingAndGlyphs" textLength="91" x="366.5" y="651.2764">command(save)</text><polygon fill="#A80036" points="962.5,682.4844,972.5,686.4844,962.5,690.4844,966.5,686.4844" style="stroke: #A80036; stroke-width: 1.0;"/><line style="stroke: #A80036; stroke-width: 1.0;" x1="853.5" x2="968.5" y1="686.4844" y2="686.4844"/><text fill="#000000" font-family="sans-serif" font-size="13" lengthAdjust="spacingAndGlyphs" textLength="87" x="860.5" y="681.6279">endRecording()</text><line style="stroke: #A80036; stroke-width: 1.0;" x1="974.5" x2="1016.5" y1="716.8359" y2="716.8359"/><line style="stroke: #A80036; stroke-width: 1.0;" x1="1016.5" x2="1016.5" y1="716.8359" y2="729.8359"/><line style="stroke: #A80036; stroke-width: 1.0;" x1="975.5" x2="1016.5" y1="729.8359" y2="729.8359"/><polygon fill="#A80036" points="985.5,725.8359,975.5,729.8359,985.5,733.8359,981.5,729.8359" style="stroke: #A80036; stroke-width: 1.0;"/><text fill="#000000" font-family="sans-serif" font-size="13" lengthAdjust="spacingAndGlyphs" textLength="35" x="981.5" y="711.9795">Stop()</text><polygon fill="#A80036" points="864.5,756.1875,854.5,760.1875,864.5,764.1875,860.5,760.1875" style="stroke: #A80036; stroke-width: 1.0;"/><line style="stroke: #A80036; stroke-width: 1.0; stroke-dasharray: 2.0,2.0;" x1="858.5" x2="973.5" y1="760.1875" y2="760.1875"/><text fill="#000000" font-family="sans-serif" font-size="13" lengthAdjust="spacingAndGlyphs" textLength="97" x="870.5" y="755.3311">Notify(fileHandle)</text><polygon fill="#A80036" points="118,786.5391,108,790.5391,118,794.5391,114,790.5391" style="stroke: #A80036; stroke-width: 1.0;"/><line style="stroke: #A80036; stroke-width: 1.0;" x1="112" x2="852.5" y1="790.5391" y2="790.5391"/><text fill="#000000" font-family="sans-serif" font-size="13" lengthAdjust="spacingAndGlyphs" textLength="144" x="124" y="785.6826">fetchSubscribers(priority)</text><polygon fill="#A80036" points="841.5,816.8906,851.5,820.8906,841.5,824.8906,845.5,820.8906" style="stroke: #A80036; stroke-width: 1.0;"/><line style="stroke: #A80036; stroke-width: 1.0; stroke-dasharray: 2.0,2.0;" x1="107" x2="847.5" y1="820.8906" y2="820.8906"/><text fill="#000000" font-family="sans-serif" font-size="13" lengthAdjust="spacingAndGlyphs" textLength="124" x="114" y="816.0342">return(tenant, priority)</text><polygon fill="#A80036" points="1062,847.2422,1072,851.2422,1062,855.2422,1066,851.2422" style="stroke: #A80036; stroke-width: 1.0;"/><line style="stroke: #A80036; stroke-width: 1.0;" x1="853.5" x2="1068" y1="851.2422" y2="851.2422"/><text fill="#000000" font-family="sans-serif" font-size="13" lengthAdjust="spacingAndGlyphs" textLength="44" x="860.5" y="846.3857">create()</text><rect fill="#FEFECE" filter="url(#f1r3en5ox88yrb)" height="49.2188" style="stroke: #A80036; stroke-width: 1.5;" width="95" x="1074" y="828.8906"/><text fill="#000000" font-family="sans-serif" font-size="14" lengthAdjust="spacingAndGlyphs" textLength="81" x="1081" y="850.4238">File Transfer</text><text fill="#000000" font-family="sans-serif" font-size="14" lengthAdjust="spacingAndGlyphs" textLength="33" x="1105" y="868.0332">client</text><polygon fill="#A80036" points="1111.5,911.4609,1121.5,915.4609,1111.5,919.4609,1115.5,915.4609" style="stroke: #A80036; stroke-width: 1.0;"/><line style="stroke: #A80036; stroke-width: 1.0;" x1="853.5" x2="1117.5" y1="915.4609" y2="915.4609"/><text fill="#000000" font-family="sans-serif" font-size="13" lengthAdjust="spacingAndGlyphs" textLength="218" x="860.5" y="910.6045">transferJob(fileHandle, tenant, priority)</text><polygon fill="#A80036" points="985.5,941.8125,975.5,945.8125,985.5,949.8125,981.5,945.8125" style="stroke: #A80036; stroke-width: 1.0;"/><line style="stroke: #A80036; stroke-width: 1.0;" x1="979.5" x2="1122.5" y1="945.8125" y2="945.8125"/><text fill="#000000" font-family="sans-serif" font-size="13" lengthAdjust="spacingAndGlyphs" textLength="125" x="991.5" y="940.9561">fetchVideo(fileHandle)</text><polygon fill="#A80036" points="1111.5,972.1641,1121.5,976.1641,1111.5,980.1641,1115.5,976.1641" style="stroke: #A80036; stroke-width: 1.0;"/><line style="stroke: #A80036; stroke-width: 1.0; stroke-dasharray: 2.0,2.0;" x1="974.5" x2="1117.5" y1="976.1641" y2="976.1641"/><text fill="#000000" font-family="sans-serif" font-size="13" lengthAdjust="spacingAndGlyphs" textLength="97" x="981.5" y="971.3076">return(mediaFile)</text><path d="M282,991.1641 L355,991.1641 L355,999.1641 L345,1009.1641 L282,1009.1641 L282,991.1641 " fill="#EEEEEE" style="stroke: #000000; stroke-width: 1.0;"/><rect fill="none" height="48.7031" style="stroke: #000000; stroke-width: 2.0;" width="901" x="282" y="991.1641"/><text fill="#000000" font-family="sans-serif" font-size="13" font-weight="bold" lengthAdjust="spacingAndGlyphs" textLength="28" x="297" y="1005.6592">loop</text><text fill="#000000" font-family="sans-serif" font-size="11" font-weight="bold" lengthAdjust="spacingAndGlyphs" textLength="110" x="370" y="1004.583">[for all subscribers]</text><polygon fill="#A80036" points="370.5,1027.8672,360.5,1031.8672,370.5,1035.8672,366.5,1031.8672" style="stroke: #A80036; stroke-width: 1.0;"/><line style="stroke: #A80036; stroke-width: 1.0; stroke-dasharray: 2.0,2.0;" x1="364.5" x2="1122.5" y1="1031.8672" y2="1031.8672"/><text fill="#000000" font-family="sans-serif" font-size="13" lengthAdjust="spacingAndGlyphs" textLength="121" x="376.5" y="1027.0107">return(streamHandle)</text><!--MD5=[d41a6eeef8f51841528761fdf160e151]
@startuml 
title Prioritization of the Consumers (Mobile)
    actor "User" as user
    boundary "Directory Service" as dir
    create entity "Tenant Registry" as reg
    dir -> reg: create()
    collections "Dispatch Services" as dispatch
    boundary "Coaches iPads\n and Laptops" as coach
    coach -> "Dispatch Service" as dispatch: command(directoryService, register, priority)
    dispatch -> dir: command(register, tenant, priority)
    
    dispatch -> dir: fetchHandlers()
    dir - -> dispatch: return(tenantAddresses)
    
    coach -> dispatch: command(directoryService, subscribe, event)
    
    dispatch -> dir: command(subscribe, tenant, event)
    boundary "Tagging UI" as tag
    user -> tag: start()
    tag -> dispatch: command(streamingService, record)
    dispatch -> "Streaming Service" as strm: command(record)
    strm - -> dispatch: notify(recordingStarts) 
    boundary "Mobile" as mobl
    strm -> mobl: startRecording()
    mobl -> mobl: Record()
    
    user -> tag: stop()

    tag -> dispatch: command(streamingService, save)
    dispatch -> strm: command(save)
    strm -> mobl: endRecording()
    mobl -> mobl: Stop()
    mobl - -> strm: Notify(fileHandle)
    strm -> dir: fetchSubscribers(priority)
    dir - -> strm: return(tenant, priority)
    create "File Transfer\nclient" as ft
    strm -> ft: create()
    strm -> ft: transferJob(fileHandle, tenant, priority)
    ft -> mobl: fetchVideo(fileHandle)
    mobl - -> ft: return(mediaFile)
    loop for all subscribers
        ft - -> dispatch: return(streamHandle)
    end

@enduml

PlantUML version 1.2020.18(Thu Oct 01 01:10:44 IST 2020)
(GPL source distribution)
Java Runtime: OpenJDK Runtime Environment
JVM: OpenJDK 64-Bit Server VM
Default Encoding: Cp1252
Language: en
Country: IN
--></g></svg>